# Blender 4.0.2
# www.blender.org
mtllib chocolate.mtl
g Cube_Mesh
v -0.063479 -0.008276 0.135427
v -0.064880 0.008276 0.138416
v -0.063479 -0.008276 -0.135427
v -0.064728 0.006480 -0.138092
v 0.063479 -0.008276 0.135427
v 0.064880 0.008276 0.138416
v 0.063479 -0.008276 -0.135427
v 0.064884 0.008320 -0.138424
v -0.063479 -0.008276 -0.059196
v -0.064880 0.008276 -0.060502
v 0.063479 -0.008276 -0.059196
v 0.064880 0.008276 -0.060502
v 0.065224 0.012345 -0.060823
v 0.065224 0.012345 0.139150
v -0.065224 0.012345 0.139150
v -0.065224 0.012345 -0.060823
v -0.063135 -0.012345 -0.058874
v -0.063135 -0.012345 0.134693
v 0.063135 -0.012345 0.134693
v 0.063135 -0.012345 -0.058874
v 0.068255 0.008276 -0.060502
v 0.068255 0.008276 0.138416
v 0.066782 -0.008276 0.135427
v 0.066782 -0.008276 -0.059196
v 0.068618 0.012345 -0.060823
v 0.068618 0.012345 0.139150
v 0.066419 -0.012345 0.134693
v 0.066419 -0.012345 -0.058874
v -0.066782 -0.008276 -0.059196
v -0.066782 -0.008276 0.135427
v -0.068255 0.008276 0.138416
v -0.068255 0.008276 -0.060502
v -0.068618 0.012345 0.139150
v -0.068618 0.012345 -0.060823
v -0.066419 -0.012345 -0.058874
v -0.066419 -0.012345 0.134693
v -0.064880 0.008276 -0.099459
v 0.063479 -0.008276 -0.097311
v -0.063479 -0.008276 -0.097311
v 0.064531 0.004153 -0.098924
v 0.000000 -0.008276 -0.135427
v 0.000000 0.005723 -0.137955
v 0.000000 -0.008276 0.135427
v 0.000000 0.008276 0.138416
v 0.000000 0.004153 -0.060176
v 0.000000 -0.008276 -0.059196
v 0.000000 0.012345 0.139150
v 0.000000 0.012345 -0.060823
v 0.000000 -0.012345 0.134693
v 0.000000 -0.012345 -0.058874
v 0.000000 -0.008276 -0.097311
v 0.000000 0.008276 -0.099459
v -0.031740 -0.008276 -0.135427
v -0.032440 0.008276 0.138416
v -0.031740 -0.008276 -0.059196
v -0.032612 0.012345 0.139150
v -0.031567 -0.012345 -0.058874
v -0.031936 -0.003642 -0.097913
v -0.032440 0.008276 -0.138416
v -0.031740 -0.008276 0.135427
v -0.032440 0.008276 -0.060502
v -0.032612 0.012345 -0.060823
v -0.031567 -0.012345 0.134693
v -0.032703 0.014499 -0.100266
v 0.032440 0.008276 -0.138416
v 0.031740 -0.008276 0.135427
v 0.032440 0.008276 -0.060502
v 0.032612 0.012345 -0.060823
v 0.031567 -0.012345 0.134693
v 0.032581 0.011616 -0.099892
v 0.031740 -0.008276 -0.135427
v 0.032440 0.008276 0.138416
v 0.031740 -0.008276 -0.059196
v 0.032612 0.012345 0.139150
v 0.031567 -0.012345 -0.058874
v 0.031636 -0.010717 -0.096995
v 0.065224 0.012345 0.039164
v -0.065224 0.012345 0.039164
v -0.063135 -0.012345 0.037909
v 0.063135 -0.012345 0.037909
v 0.068255 0.008276 0.038957
v 0.066782 -0.008276 0.038116
v 0.068618 0.012345 0.039164
v 0.066419 -0.012345 0.037909
v -0.066782 -0.008276 0.038116
v -0.068255 0.008276 0.038957
v -0.068618 0.012345 0.039164
v -0.066419 -0.012345 0.037909
v 0.000000 -0.012345 0.037909
v 0.000000 0.012345 0.039164
v -0.031567 -0.012345 0.037909
v -0.032612 0.012345 0.039164
v 0.032612 0.012345 0.039164
v 0.031567 -0.012345 0.037909
v 0.065224 0.012345 0.089519
v -0.063135 -0.012345 0.086651
v 0.068255 0.008276 0.089047
v 0.068618 0.012345 0.089519
v -0.066782 -0.008276 0.087124
v -0.066419 -0.012345 0.086651
v 0.000000 -0.012345 0.086651
v 0.000000 0.012345 0.089519
v -0.031567 -0.012345 0.086651
v -0.032612 0.012345 0.089519
v 0.032612 0.012345 0.089519
v 0.031567 -0.012345 0.086651
v -0.065224 0.012345 0.089519
v 0.063135 -0.012345 0.086651
v 0.066782 -0.008276 0.087124
v 0.066419 -0.012345 0.086651
v -0.068255 0.008276 0.089047
v -0.068618 0.012345 0.089519
v -0.065224 0.012345 -0.010465
v 0.063135 -0.012345 -0.010130
v 0.066782 -0.008276 -0.010185
v 0.066419 -0.012345 -0.010130
v -0.068255 0.008276 -0.010410
v -0.068618 0.012345 -0.010465
v 0.065224 0.012345 -0.010465
v -0.063135 -0.012345 -0.010130
v 0.068255 0.008276 -0.010410
v 0.068618 0.012345 -0.010465
v -0.066782 -0.008276 -0.010185
v -0.066419 -0.012345 -0.010130
v 0.000000 -0.012345 -0.010130
v 0.000000 0.012345 -0.010465
v -0.031567 -0.012345 -0.010130
v -0.032612 0.012345 -0.010465
v 0.032612 0.012345 -0.010465
v 0.031567 -0.012345 -0.010130
vn -0.9964 -0.0843 -0.0000
vn -0.0000 -0.1777 -0.9841
vn -0.0000 -0.1777 0.9841
vn -0.0000 -0.0787 -0.9969
vn -0.0459 0.9982 0.0382
vn -0.0869 0.9936 0.0724
vn -0.1839 0.9709 0.1532
vn 0.0233 -0.9995 0.0194
vn 0.0466 -0.9982 0.0388
vn 0.0769 -0.9950 0.0640
vn 0.9964 -0.0843 -0.0000
vn -0.0000 1.0000 -0.0000
vn -0.0000 -1.0000 -0.0000
vn 0.9961 -0.0887 -0.0000
vn -0.9961 -0.0887 -0.0000
vn 0.0459 -0.9982 -0.0383
vn 0.0232 -0.9995 -0.0193
vn 0.0757 -0.9951 -0.0630
vn -0.1211 0.9875 -0.1009
vn -0.0937 0.9925 -0.0781
vn -0.1913 0.9685 -0.1593
vn -0.0933 0.9926 -0.0777
vn -0.0876 0.9935 -0.0730
vn -0.1027 0.9910 -0.0855
vn -0.0750 -0.9952 0.0624
vn -0.0385 -0.9987 0.0321
vn -0.1448 -0.9821 0.1206
vn -0.0382 -0.9988 -0.0318
vn -0.0734 -0.9954 -0.0612
vn -0.1405 -0.9832 -0.1170
vn -0.1143 0.9889 0.0952
vn -0.1095 0.9898 0.0912
vn -0.1005 0.9914 0.0837
vn 0.0386 -0.9987 -0.0321
vn 0.0737 -0.9954 -0.0614
vn 0.0753 -0.9952 0.0627
vn 0.0388 -0.9987 0.0323
vn 0.1337 0.9847 -0.1114
vn 0.1127 0.9892 -0.0938
vn 0.0792 0.9947 -0.0660
vn 0.1454 0.9819 0.1211
vn 0.1546 0.9796 0.1287
vn 0.1244 0.9868 0.1036
vn 0.0799 0.9960 -0.0402
vn 0.1473 0.9889 0.0169
vn -0.0000 0.9943 -0.1067
vn 0.1378 0.9900 0.0308
vn 0.0710 0.9971 -0.0258
vn 0.2232 0.9692 0.1042
vn -0.0461 -0.9982 -0.0384
vn -0.0233 -0.9995 -0.0194
vn -0.0234 -0.9995 0.0195
vn -0.0467 -0.9982 0.0389
vn -0.0560 0.9973 -0.0466
vn -0.0792 0.9947 -0.0660
vn -0.1244 0.9868 0.1036
vn 0.1421 -0.9827 -0.1184
vn 0.1465 -0.9816 0.1220
vn 0.1883 0.9695 -0.1568
vn 0.1812 0.9718 0.1509
vn 0.2243 0.9710 0.0831
vn -0.0014 0.9963 -0.0864
vn -0.0761 -0.9951 -0.0634
vn -0.0774 -0.9949 0.0645
vt 0.567673 0.333518
vt 0.566032 0.333287
vt 0.567673 0.333287
vt 0.566032 0.332056
vt 0.567673 0.331646
vt 0.567673 0.332056
vt 0.427102 0.346607
vt 0.433380 0.351316
vt 0.427102 0.352885
vt 0.427102 0.351316
vt 0.437513 0.336866
vt 0.439886 0.336866
vt 0.439293 0.336866
vt 0.564391 0.331415
vt 0.564801 0.331184
vt 0.564801 0.331415
vt 0.567673 0.331415
vt 0.568083 0.331184
vt 0.568083 0.331415
vt 0.566032 0.331415
vt 0.567673 0.331184
vt 0.437513 0.333158
vt 0.435141 0.333158
vt 0.473855 0.393694
vt 0.427771 0.373251
vt 0.473528 0.373176
vt 0.435141 0.336866
vt 0.433380 0.352885
vt 0.433380 0.346607
vt 0.433380 0.348177
vt 0.440754 0.348498
vt 0.426176 0.341936
vt 0.440731 0.341931
vt 0.434548 0.336866
vt 0.433380 0.345488
vt 0.427102 0.345488
vt 0.433380 0.342097
vt 0.433380 0.343233
vt 0.484844 0.348483
vt 0.470076 0.348488
vt 0.426788 0.311699
vt 0.472545 0.311625
vt 0.433380 0.331149
vt 0.427102 0.332285
vt 0.427102 0.331149
vt 0.433380 0.327775
vt 0.433380 0.328894
vt 0.426107 0.322233
vt 0.440662 0.322228
vt 0.432769 0.336866
vt 0.612461 0.393467
vt 0.566034 0.393543
vt 0.568083 0.331646
vt 0.564801 0.331646
vt 0.566032 0.333749
vt 0.567673 0.333749
vt 0.565621 0.331646
vt 0.565211 0.331415
vt 0.565621 0.331415
vt 0.568904 0.331646
vt 0.568493 0.331415
vt 0.568904 0.331415
vt 0.433955 0.336866
vt 0.433362 0.336866
vt 0.427102 0.349746
vt 0.427102 0.348177
vt 0.440708 0.335363
vt 0.426130 0.328801
vt 0.440685 0.328795
vt 0.433380 0.349746
vt 0.473200 0.352659
vt 0.427116 0.332217
vt 0.472872 0.332142
vt 0.568904 0.331184
vt 0.565621 0.331184
vt 0.438106 0.336866
vt 0.438700 0.336866
vt 0.567673 0.332877
vt 0.566032 0.332467
vt 0.567673 0.332467
vt 0.569314 0.331415
vt 0.569314 0.331184
vt 0.569314 0.331646
vt 0.565211 0.331646
vt 0.427443 0.352734
vt 0.565211 0.331184
vt 0.566032 0.331184
vt 0.566032 0.331646
vt 0.568493 0.331646
vt 0.426153 0.335368
vt 0.568493 0.331184
vt 0.470053 0.341920
vt 0.455475 0.335358
vt 0.470030 0.335352
vt 0.565051 0.331991
vt 0.518969 0.311549
vt 0.564723 0.311474
vt 0.565706 0.373026
vt 0.519624 0.352583
vt 0.565379 0.352508
vt 0.470007 0.328785
vt 0.455430 0.322222
vt 0.469984 0.322217
vt 0.519297 0.332066
vt 0.455453 0.328790
vt 0.520280 0.393618
vt 0.427102 0.330030
vt 0.427102 0.328894
vt 0.433380 0.330030
vt 0.455521 0.348493
vt 0.433380 0.344352
vt 0.427102 0.343233
vt 0.427102 0.344352
vt 0.455498 0.341925
vt 0.519952 0.373100
vt 0.426198 0.348504
vt 0.427102 0.327775
vt 0.428099 0.393768
vt 0.433380 0.330030
vt 0.612133 0.372950
vt 0.484821 0.341915
vt 0.427102 0.342097
vt 0.611150 0.311398
vt 0.433380 0.332285
vt 0.484752 0.322212
vt 0.484798 0.335347
vt 0.484775 0.328779
vt 0.611805 0.352433
vt 0.611477 0.331915
vt 0.566032 0.333518
vt 0.564391 0.331184
vt 0.564391 0.331646
vt 0.566032 0.332877
s 1
usemtl Material.008
f 39/1/1 4/2/1 3/3/1
f 65/4/2 7/5/2 71/6/2
f 5/7/3 27/7/3 23/7/3
f 54/8/3 1/9/3 60/10/3
f 13/11/4 21/11/4 12/11/4
f 10/12/4 62/13/4 61/13/4
f 37/14/5 61/15/6 64/16/7
f 38/17/8 73/18/9 76/19/10
f 40/20/11 11/21/11 38/17/11
f 10/22/4 29/23/4 32/22/4
f 107/24/12 56/25/12 104/26/12
f 12/11/4 24/27/4 11/27/4
f 2/28/3 30/9/3 1/9/3
f 6/29/3 74/30/3 72/30/3
f 108/31/13 69/32/13 106/33/13
f 60/10/3 18/9/3 63/10/3
f 73/34/4 20/27/4 75/34/4
f 1/9/3 36/9/3 18/9/3
f 97/35/14 23/7/14 109/36/14
f 109/36/14 27/7/14 110/36/14
f 21/37/14 122/38/14 121/38/14
f 20/39/13 116/40/13 114/40/13
f 14/29/3 22/29/3 26/29/3
f 11/27/4 28/27/4 20/27/4
f 6/29/3 23/7/3 22/29/3
f 14/41/12 98/42/12 95/42/12
f 117/43/15 29/44/15 123/45/15
f 31/46/15 112/47/15 111/47/15
f 123/45/15 35/44/15 124/45/15
f 18/48/13 100/49/13 96/49/13
f 9/50/4 35/50/4 29/50/4
f 16/12/4 32/12/4 34/12/4
f 16/51/12 118/52/12 113/52/12
f 15/28/3 31/28/3 2/28/3
f 7/5/11 40/20/11 38/17/11
f 71/53/16 38/17/17 76/19/18
f 59/54/19 37/14/20 64/16/21
f 10/55/1 39/1/1 9/56/1
f 65/57/22 52/58/23 70/59/24
f 53/60/25 51/61/26 58/62/27
f 46/63/4 57/64/4 55/64/4
f 43/65/3 69/66/3 66/66/3
f 101/67/13 63/68/13 103/69/13
f 54/8/3 47/70/3 56/8/3
f 102/71/12 74/72/12 105/73/12
f 51/61/28 55/74/29 58/62/30
f 52/58/31 67/75/32 70/59/33
f 67/76/4 48/77/4 68/76/4
f 66/66/3 44/70/3 43/65/3
f 53/78/2 42/79/2 41/80/2
f 4/2/2 53/78/2 3/3/2
f 39/81/34 55/74/35 9/82/13
f 2/28/3 56/8/3 15/28/3
f 103/69/13 18/48/13 96/49/13
f 55/64/4 17/50/4 9/50/4
f 53/60/36 39/81/37 3/83/13
f 59/54/38 52/58/39 42/84/40
f 43/65/3 63/10/3 49/65/3
f 104/26/12 47/85/12 102/71/12
f 52/58/41 61/15/42 45/86/43
f 61/13/4 48/77/4 45/77/4
f 44/70/3 60/10/3 43/65/3
f 5/7/3 72/30/3 66/66/3
f 12/11/4 68/76/4 13/11/4
f 40/20/44 67/75/45 12/87/46
f 105/73/12 14/41/12 95/42/12
f 66/66/3 19/7/3 5/7/3
f 8/88/47 70/59/48 40/20/49
f 71/53/50 51/61/51 41/89/13
f 46/63/4 75/34/4 50/63/4
f 106/33/13 49/90/13 101/67/13
f 72/30/3 47/70/3 44/70/3
f 51/61/52 73/18/53 46/91/13
f 42/79/2 71/6/2 41/80/2
f 130/92/13 89/93/13 125/94/13
f 129/95/12 77/96/12 119/97/12
f 128/98/12 90/99/12 126/100/12
f 127/101/13 79/102/13 120/103/13
f 126/100/12 93/104/12 129/95/12
f 125/94/13 91/105/13 127/101/13
f 78/106/12 112/24/12 107/24/12
f 79/102/13 124/103/13 120/103/13
f 85/107/15 100/108/15 99/108/15
f 86/109/15 118/43/15 117/43/15
f 99/108/15 86/109/15 85/107/15
f 77/96/12 122/97/12 119/97/12
f 80/110/13 110/31/13 108/31/13
f 97/35/14 83/111/14 98/35/14
f 115/112/14 84/113/14 116/112/14
f 121/38/14 82/113/14 115/112/14
f 114/40/13 94/114/13 130/92/13
f 113/52/12 92/115/12 128/98/12
f 22/29/14 98/35/14 26/29/14
f 108/31/13 27/116/13 19/116/13
f 30/117/15 111/47/15 99/108/15
f 99/108/15 36/117/15 30/117/15
f 107/24/12 33/118/12 15/118/12
f 94/114/13 101/67/13 89/93/13
f 93/104/12 95/42/12 77/96/12
f 92/115/12 102/71/12 90/99/12
f 91/105/13 96/49/13 79/102/13
f 90/99/12 105/73/12 93/104/12
f 89/93/13 103/69/13 91/105/13
f 96/49/13 88/102/13 79/102/13
f 111/47/15 87/119/15 86/109/15
f 95/42/12 83/96/12 77/96/12
f 82/113/14 110/36/14 84/113/14
f 81/111/14 109/36/14 82/113/14
f 80/110/13 106/33/13 94/114/13
f 78/106/12 104/26/12 92/115/12
f 16/51/12 128/98/12 62/120/12
f 20/39/13 130/92/13 75/121/13
f 24/122/14 121/38/14 115/112/14
f 115/112/14 28/122/14 24/122/14
f 119/97/12 25/123/12 13/123/12
f 32/124/15 118/43/15 34/124/15
f 120/103/13 35/125/13 17/125/13
f 50/126/13 127/101/13 57/127/13
f 48/128/12 129/95/12 68/129/12
f 57/127/13 120/103/13 17/125/13
f 62/120/12 126/100/12 48/128/12
f 68/129/12 119/97/12 13/123/12
f 75/121/13 125/94/13 50/126/13
f 113/52/12 87/106/12 78/106/12
f 123/45/15 88/107/15 85/107/15
f 85/107/15 117/43/15 123/45/15
f 114/40/13 84/110/13 80/110/13
f 81/111/14 122/38/14 83/111/14
f 39/1/1 37/130/1 4/2/1
f 65/4/2 8/88/2 7/5/2
f 5/7/3 19/7/3 27/7/3
f 54/8/3 2/28/3 1/9/3
f 13/11/4 25/11/4 21/11/4
f 10/12/4 16/12/4 62/13/4
f 37/14/5 10/131/12 61/15/6
f 38/17/8 11/21/13 73/18/9
f 40/20/11 12/87/11 11/21/11
f 10/22/4 9/23/4 29/23/4
f 107/24/12 15/118/12 56/25/12
f 12/11/4 21/11/4 24/27/4
f 2/28/3 31/28/3 30/9/3
f 6/29/3 14/29/3 74/30/3
f 108/31/13 19/116/13 69/32/13
f 60/10/3 1/9/3 18/9/3
f 73/34/4 11/27/4 20/27/4
f 1/9/3 30/9/3 36/9/3
f 97/35/14 22/29/14 23/7/14
f 109/36/14 23/7/14 27/7/14
f 21/37/14 25/37/14 122/38/14
f 20/39/13 28/39/13 116/40/13
f 14/29/3 6/29/3 22/29/3
f 11/27/4 24/27/4 28/27/4
f 6/29/3 5/7/3 23/7/3
f 14/41/12 26/41/12 98/42/12
f 117/43/15 32/124/15 29/44/15
f 31/46/15 33/46/15 112/47/15
f 123/45/15 29/44/15 35/44/15
f 18/48/13 36/48/13 100/49/13
f 9/50/4 17/50/4 35/50/4
f 16/12/4 10/12/4 32/12/4
f 16/51/12 34/51/12 118/52/12
f 15/28/3 33/28/3 31/28/3
f 7/5/11 8/88/11 40/20/11
f 71/53/16 7/5/13 38/17/17
f 59/54/19 4/132/54 37/14/20
f 10/55/1 37/130/1 39/1/1
f 65/57/22 42/84/55 52/58/23
f 53/60/25 41/89/13 51/61/26
f 46/63/4 50/63/4 57/64/4
f 43/65/3 49/65/3 69/66/3
f 101/67/13 49/90/13 63/68/13
f 54/8/3 44/70/3 47/70/3
f 102/71/12 47/85/12 74/72/12
f 51/61/28 46/91/13 55/74/29
f 52/58/31 45/86/56 67/75/32
f 67/76/4 45/77/4 48/77/4
f 66/66/3 72/30/3 44/70/3
f 53/78/2 59/133/2 42/79/2
f 4/2/2 59/133/2 53/78/2
f 39/81/34 58/62/57 55/74/35
f 2/28/3 54/8/3 56/8/3
f 103/69/13 63/68/13 18/48/13
f 55/64/4 57/64/4 17/50/4
f 53/60/36 58/62/58 39/81/37
f 59/54/38 64/16/59 52/58/39
f 43/65/3 60/10/3 63/10/3
f 104/26/12 56/25/12 47/85/12
f 52/58/41 64/16/60 61/15/42
f 61/13/4 62/13/4 48/77/4
f 44/70/3 54/8/3 60/10/3
f 5/7/3 6/29/3 72/30/3
f 12/11/4 67/76/4 68/76/4
f 40/20/44 70/59/61 67/75/45
f 105/73/12 74/72/12 14/41/12
f 66/66/3 69/66/3 19/7/3
f 8/88/47 65/57/62 70/59/48
f 71/53/50 76/19/63 51/61/51
f 46/63/4 73/34/4 75/34/4
f 106/33/13 69/32/13 49/90/13
f 72/30/3 74/30/3 47/70/3
f 51/61/52 76/19/64 73/18/53
f 42/79/2 65/4/2 71/6/2
f 130/92/13 94/114/13 89/93/13
f 129/95/12 93/104/12 77/96/12
f 128/98/12 92/115/12 90/99/12
f 127/101/13 91/105/13 79/102/13
f 126/100/12 90/99/12 93/104/12
f 125/94/13 89/93/13 91/105/13
f 78/106/12 87/106/12 112/24/12
f 79/102/13 88/102/13 124/103/13
f 85/107/15 88/107/15 100/108/15
f 86/109/15 87/119/15 118/43/15
f 99/108/15 111/47/15 86/109/15
f 77/96/12 83/96/12 122/97/12
f 80/110/13 84/110/13 110/31/13
f 97/35/14 81/111/14 83/111/14
f 115/112/14 82/113/14 84/113/14
f 121/38/14 81/111/14 82/113/14
f 114/40/13 80/110/13 94/114/13
f 113/52/12 78/106/12 92/115/12
f 22/29/14 97/35/14 98/35/14
f 108/31/13 110/31/13 27/116/13
f 30/117/15 31/46/15 111/47/15
f 99/108/15 100/108/15 36/117/15
f 107/24/12 112/24/12 33/118/12
f 94/114/13 106/33/13 101/67/13
f 93/104/12 105/73/12 95/42/12
f 92/115/12 104/26/12 102/71/12
f 91/105/13 103/69/13 96/49/13
f 90/99/12 102/71/12 105/73/12
f 89/93/13 101/67/13 103/69/13
f 96/49/13 100/49/13 88/102/13
f 111/47/15 112/47/15 87/119/15
f 95/42/12 98/42/12 83/96/12
f 82/113/14 109/36/14 110/36/14
f 81/111/14 97/35/14 109/36/14
f 80/110/13 108/31/13 106/33/13
f 78/106/12 107/24/12 104/26/12
f 16/51/12 113/52/12 128/98/12
f 20/39/13 114/40/13 130/92/13
f 24/122/14 21/37/14 121/38/14
f 115/112/14 116/112/14 28/122/14
f 119/97/12 122/97/12 25/123/12
f 32/124/15 117/43/15 118/43/15
f 120/103/13 124/103/13 35/125/13
f 50/126/13 125/94/13 127/101/13
f 48/128/12 126/100/12 129/95/12
f 57/127/13 127/101/13 120/103/13
f 62/120/12 128/98/12 126/100/12
f 68/129/12 129/95/12 119/97/12
f 75/121/13 130/92/13 125/94/13
f 113/52/12 118/52/12 87/106/12
f 123/45/15 124/45/15 88/107/15
f 85/107/15 86/109/15 117/43/15
f 114/40/13 116/40/13 84/110/13
f 81/111/14 121/38/14 122/38/14
