# Blender 4.0.2
# www.blender.org
mtllib coffee.mtl
g Cylinder.001_Mesh
v 0.000000 0.010138 -0.077972
v 0.042155 0.010138 -0.065594
v 0.070926 0.010138 -0.032391
v 0.077178 0.010138 0.011097
v 0.058927 0.010138 0.051061
v 0.021967 0.010138 0.074813
v -0.021967 0.010138 0.074813
v -0.058927 0.010138 0.051061
v -0.077178 0.010138 0.011097
v -0.070926 0.010138 -0.032391
v -0.042155 0.010138 -0.065594
v 0.038025 0.022815 -0.059169
v -0.000000 0.022815 -0.070334
v 0.063978 0.022815 -0.029218
v 0.069618 0.022815 0.010010
v 0.053155 0.022815 0.046059
v 0.019815 0.022815 0.067485
v -0.019815 0.022815 0.067485
v -0.053155 0.022815 0.046059
v -0.069618 0.022815 0.010010
v -0.063978 0.022815 -0.029218
v -0.038025 0.022815 -0.059169
v 0.042155 0.022815 -0.065594
v -0.000000 0.022815 -0.077972
v 0.070926 0.022815 -0.032391
v 0.077178 0.022815 0.011097
v 0.058927 0.022815 0.051061
v 0.021967 0.022815 0.074813
v -0.021967 0.022815 0.074813
v -0.058927 0.022815 0.051061
v -0.077178 0.022815 0.011097
v -0.070926 0.022815 -0.032391
v -0.042155 0.022815 -0.065594
v 0.027636 0.041498 -0.043003
v -0.000000 0.041498 -0.051118
v 0.046498 0.041498 -0.021235
v 0.050597 0.041498 0.007275
v 0.038632 0.041498 0.033475
v 0.014402 0.041498 0.049047
v -0.014402 0.041498 0.049047
v -0.038632 0.041498 0.033475
v -0.050597 0.041498 0.007275
v -0.046498 0.041498 -0.021235
v -0.027636 0.041498 -0.043003
v 0.033754 0.041498 -0.052522
v -0.000000 0.041498 -0.062433
v 0.056791 0.041498 -0.025936
v 0.061797 0.041498 0.008885
v 0.047184 0.041498 0.040885
v 0.017589 0.041498 0.059904
v -0.017589 0.041498 0.059904
v -0.047184 0.041498 0.040885
v -0.061797 0.041498 0.008885
v -0.056791 0.041498 -0.025936
v -0.033754 0.041498 -0.052522
v 0.027636 0.030571 -0.043003
v -0.000000 0.030571 -0.051118
v 0.046498 0.030571 -0.021235
v 0.050597 0.030571 0.007275
v 0.038632 0.030571 0.033475
v 0.014402 0.030571 0.049047
v -0.014402 0.030571 0.049047
v -0.038632 0.030571 0.033475
v -0.050597 0.030571 0.007275
v -0.046498 0.030571 -0.021235
v -0.027636 0.030571 -0.043003
v 0.000000 -0.181513 -0.050834
v 0.000000 0.012179 -0.066553
v 0.027483 -0.181513 -0.042765
v 0.035981 0.012179 -0.055988
v 0.046241 -0.181513 -0.021117
v 0.060538 0.012179 -0.027647
v 0.050317 -0.181513 0.007235
v 0.065875 0.012179 0.009471
v 0.038418 -0.181513 0.033290
v 0.050297 0.012179 0.043583
v 0.014322 -0.181513 0.048775
v 0.018750 0.012179 0.063857
v -0.014322 -0.181513 0.048775
v -0.018750 0.012179 0.063857
v -0.038418 -0.181513 0.033290
v -0.050297 0.012179 0.043583
v -0.050317 -0.181513 0.007235
v -0.065875 0.012179 0.009471
v -0.046241 -0.181513 -0.021117
v -0.060538 0.012179 -0.027647
v -0.027483 -0.181513 -0.042765
v -0.035981 0.012179 -0.055988
vn -0.9898 -0.0000 -0.1423
vn 0.5010 0.3760 0.7795
vn -0.9096 -0.0000 0.4154
vn -0.5406 -0.0000 0.8413
vn -0.0000 -0.0000 1.0000
vn 0.5406 -0.0000 0.8413
vn 0.9096 -0.0000 0.4154
vn 0.2817 -0.0000 -0.9595
vn 0.9898 -0.0000 -0.1423
vn -0.2817 -0.0000 -0.9595
vn 0.7557 -0.0000 -0.6549
vn -0.7557 -0.0000 -0.6549
vn -0.0000 -1.0000 -0.0000
vn -0.0000 1.0000 -0.0000
vn -0.0000 -0.0000 -1.0000
vn 0.7003 0.3760 -0.6068
vn -0.9172 0.3760 -0.1319
vn -0.0000 0.3760 0.9266
vn 0.9172 0.3760 -0.1319
vn -0.7003 0.3760 -0.6068
vn -0.5010 0.3760 0.7795
vn 0.8429 0.3760 0.3849
vn -0.2611 0.3760 -0.8891
vn 0.2611 0.3760 -0.8891
vn -0.8429 0.3760 0.3849
vn -0.9898 -0.0000 0.1423
vn 0.7557 -0.0000 0.6549
vn 0.5406 -0.0000 -0.8413
vn -0.9096 -0.0000 -0.4154
vn 0.2817 -0.0000 0.9595
vn -0.2817 -0.0000 0.9595
vn 0.9096 -0.0000 -0.4154
vn -0.5406 -0.0000 -0.8413
vn -0.7557 -0.0000 0.6549
vn 0.9898 -0.0000 0.1423
vn 0.2809 -0.0776 -0.9566
vn 0.7535 -0.0776 -0.6529
vn 0.9868 -0.0776 -0.1419
vn 0.9069 -0.0776 0.4142
vn 0.5390 -0.0776 0.8387
vn -0.0000 -0.0776 0.9970
vn -0.5390 -0.0776 0.8387
vn -0.9069 -0.0776 0.4142
vn -0.9868 -0.0776 -0.1419
vn -0.7535 -0.0776 -0.6529
vn -0.2809 -0.0776 -0.9566
vt 0.685410 0.297435
vt 0.686243 0.297435
vt 0.685059 0.306207
vt 0.684119 0.305603
vt 0.684577 0.297435
vt 0.683745 0.297435
vt 0.682912 0.297435
vt 0.682079 0.297435
vt 0.681247 0.297435
vt 0.678749 0.297435
vt 0.679581 0.297435
vt 0.680414 0.297435
vt 0.687908 0.297435
vt 0.687075 0.297435
vt 0.684546 0.302637
vt 0.685618 0.302107
vt 0.685618 0.302322
vt 0.683814 0.303481
vt 0.684430 0.302456
vt 0.683655 0.304587
vt 0.683618 0.303392
vt 0.683442 0.304618
vt 0.683957 0.305744
vt 0.686177 0.306207
vt 0.684999 0.306414
vt 0.687117 0.305603
vt 0.686237 0.306414
vt 0.687581 0.304587
vt 0.687279 0.305744
vt 0.687422 0.303481
vt 0.687794 0.304618
vt 0.686690 0.302637
vt 0.687618 0.303392
vt 0.686806 0.302456
vt 0.685161 0.305863
vt 0.686075 0.305863
vt 0.684740 0.302939
vt 0.685618 0.302681
vt 0.684141 0.303630
vt 0.684011 0.304536
vt 0.684391 0.305368
vt 0.686845 0.305368
vt 0.687225 0.304536
vt 0.687095 0.303630
vt 0.686496 0.302939
vt 0.775272 0.328143
vt 0.787413 0.261367
vt 0.787413 0.328143
vt 0.943238 0.036618
vt 0.889341 0.333049
vt 0.889341 0.036618
vt 0.835445 0.036618
vt 0.835445 0.333049
vt 0.781548 0.036618
vt 0.781548 0.333049
vt 0.727652 0.036618
vt 0.835978 0.261367
vt 0.848119 0.328143
vt 0.835978 0.328143
vt 0.860261 0.261367
vt 0.860261 0.328143
vt 0.872402 0.261367
vt 0.872402 0.328143
vt 0.884543 0.328143
vt 0.884543 0.261367
vt 0.896684 0.328143
vt 0.908825 0.261367
vt 0.908825 0.328143
vt 0.765142 0.277855
vt 0.757891 0.227421
vt 0.724523 0.265928
vt -0.000000 1.000000
vt 0.363636 1.000000
vt 0.727273 1.000000
vt 0.775272 0.261367
vt 0.943238 0.333049
vt 0.727652 0.333049
vt 0.848119 0.261367
vt 0.896684 0.261367
vt 0.734858 0.277855
vt 0.750000 0.282301
vt 0.775477 0.265928
vt 0.777722 0.250308
vt 0.771167 0.235953
vt 0.742109 0.227421
vt 0.728833 0.235953
vt 0.722278 0.250308
vt 0.818182 1.000000
vt 0.909091 1.000000
vt 0.090909 1.000000
vt 0.181818 1.000000
vt 0.272727 1.000000
vt 0.454545 1.000000
vt 0.545454 1.000000
vt 0.636364 1.000000
s 1
usemtl Material.009
f 9/1/1 32/2/1 10/2/1
f 17/3/2 49/4/2 50/3/2
f 8/5/3 31/1/3 9/1/3
f 7/6/4 30/5/4 8/5/4
f 6/7/5 29/6/5 7/6/5
f 5/8/6 28/7/6 6/7/6
f 4/9/7 27/8/7 5/8/7
f 1/10/8 23/11/8 2/11/8
f 3/12/9 26/9/9 4/9/9
f 1/13/10 33/14/10 24/13/10
f 2/11/11 25/12/11 3/12/11
f 10/2/12 33/14/12 11/14/12
f 3/12/13 7/6/13 11/14/13
f 12/15/14 24/16/14 13/17/14
f 14/18/14 23/19/14 12/15/14
f 15/20/14 25/21/14 14/18/14
f 16/4/14 26/22/14 15/20/14
f 17/3/14 27/23/14 16/4/14
f 18/24/14 28/25/14 17/3/14
f 19/26/14 29/27/14 18/24/14
f 20/28/14 30/29/14 19/26/14
f 21/30/14 31/31/14 20/28/14
f 22/32/14 32/33/14 21/30/14
f 13/17/14 33/34/14 22/32/14
f 39/35/15 62/36/15 40/36/15
f 12/15/16 47/18/16 14/18/16
f 20/28/17 54/30/17 21/30/17
f 17/3/18 51/24/18 18/24/18
f 14/18/19 48/20/19 15/20/19
f 21/30/20 55/32/20 22/32/20
f 19/26/21 51/24/21 52/26/21
f 15/20/22 49/4/22 16/4/22
f 22/32/23 46/17/23 13/17/23
f 12/15/24 46/17/24 45/15/24
f 19/26/25 53/28/25 20/28/25
f 34/37/14 46/17/14 35/38/14
f 36/39/14 45/15/14 34/37/14
f 37/40/14 47/18/14 36/39/14
f 37/40/14 49/4/14 48/20/14
f 39/35/14 49/4/14 38/41/14
f 40/36/14 50/3/14 39/35/14
f 41/42/14 51/24/14 40/36/14
f 42/43/14 52/26/14 41/42/14
f 43/44/14 53/28/14 42/43/14
f 44/45/14 54/30/14 43/44/14
f 44/45/14 46/17/14 55/32/14
f 57/38/14 63/42/14 59/40/14
f 36/39/26 59/40/26 37/40/26
f 43/44/27 66/45/27 44/45/27
f 40/36/28 63/42/28 41/42/28
f 37/40/29 60/41/29 38/41/29
f 44/45/30 57/38/30 35/38/30
f 35/38/31 56/37/31 34/37/31
f 41/42/32 64/43/32 42/43/32
f 38/41/33 61/35/33 39/35/33
f 34/37/34 58/39/34 36/39/34
f 42/43/35 65/44/35 43/44/35
f 67/46/36 70/47/36 69/48/36
f 69/49/37 72/50/37 71/51/37
f 72/50/38 73/52/38 71/51/38
f 74/53/39 75/54/39 73/52/39
f 76/55/40 77/56/40 75/54/40
f 78/57/41 79/58/41 77/59/41
f 79/58/42 82/60/42 81/61/42
f 81/61/43 84/62/43 83/63/43
f 84/62/44 85/64/44 83/63/44
f 86/65/45 87/66/45 85/64/45
f 87/66/46 68/67/46 67/68/46
f 69/69/13 77/70/13 85/71/13
f 68/72/14 82/73/14 74/74/14
f 9/1/1 31/1/1 32/2/1
f 17/3/2 16/4/2 49/4/2
f 8/5/3 30/5/3 31/1/3
f 7/6/4 29/6/4 30/5/4
f 6/7/5 28/7/5 29/6/5
f 5/8/6 27/8/6 28/7/6
f 4/9/7 26/9/7 27/8/7
f 1/10/8 24/10/8 23/11/8
f 3/12/9 25/12/9 26/9/9
f 1/13/10 11/14/10 33/14/10
f 2/11/11 23/11/11 25/12/11
f 10/2/12 32/2/12 33/14/12
f 1/13/13 2/11/13 3/12/13
f 3/12/13 4/9/13 5/8/13
f 5/8/13 6/7/13 7/6/13
f 7/6/13 8/5/13 9/1/13
f 9/1/13 10/2/13 11/14/13
f 11/14/13 1/13/13 3/12/13
f 3/12/13 5/8/13 7/6/13
f 7/6/13 9/1/13 11/14/13
f 12/15/14 23/19/14 24/16/14
f 14/18/14 25/21/14 23/19/14
f 15/20/14 26/22/14 25/21/14
f 16/4/14 27/23/14 26/22/14
f 17/3/14 28/25/14 27/23/14
f 18/24/14 29/27/14 28/25/14
f 19/26/14 30/29/14 29/27/14
f 20/28/14 31/31/14 30/29/14
f 21/30/14 32/33/14 31/31/14
f 22/32/14 33/34/14 32/33/14
f 13/17/14 24/16/14 33/34/14
f 39/35/15 61/35/15 62/36/15
f 12/15/16 45/15/16 47/18/16
f 20/28/17 53/28/17 54/30/17
f 17/3/18 50/3/18 51/24/18
f 14/18/19 47/18/19 48/20/19
f 21/30/20 54/30/20 55/32/20
f 19/26/21 18/24/21 51/24/21
f 15/20/22 48/20/22 49/4/22
f 22/32/23 55/32/23 46/17/23
f 12/15/24 13/17/24 46/17/24
f 19/26/25 52/26/25 53/28/25
f 34/37/14 45/15/14 46/17/14
f 36/39/14 47/18/14 45/15/14
f 37/40/14 48/20/14 47/18/14
f 37/40/14 38/41/14 49/4/14
f 39/35/14 50/3/14 49/4/14
f 40/36/14 51/24/14 50/3/14
f 41/42/14 52/26/14 51/24/14
f 42/43/14 53/28/14 52/26/14
f 43/44/14 54/30/14 53/28/14
f 44/45/14 55/32/14 54/30/14
f 44/45/14 35/38/14 46/17/14
f 58/39/14 56/37/14 57/38/14
f 57/38/14 66/45/14 65/44/14
f 65/44/14 64/43/14 63/42/14
f 63/42/14 62/36/14 61/35/14
f 61/35/14 60/41/14 59/40/14
f 59/40/14 58/39/14 57/38/14
f 57/38/14 65/44/14 63/42/14
f 63/42/14 61/35/14 59/40/14
f 36/39/26 58/39/26 59/40/26
f 43/44/27 65/44/27 66/45/27
f 40/36/28 62/36/28 63/42/28
f 37/40/29 59/40/29 60/41/29
f 44/45/30 66/45/30 57/38/30
f 35/38/31 57/38/31 56/37/31
f 41/42/32 63/42/32 64/43/32
f 38/41/33 60/41/33 61/35/33
f 34/37/34 56/37/34 58/39/34
f 42/43/35 64/43/35 65/44/35
f 67/46/36 68/75/36 70/47/36
f 69/49/37 70/76/37 72/50/37
f 72/50/38 74/53/38 73/52/38
f 74/53/39 76/55/39 75/54/39
f 76/55/40 78/77/40 77/56/40
f 78/57/41 80/78/41 79/58/41
f 79/58/42 80/78/42 82/60/42
f 81/61/43 82/60/43 84/62/43
f 84/62/44 86/65/44 85/64/44
f 86/65/45 88/79/45 87/66/45
f 87/66/46 88/79/46 68/67/46
f 87/80/13 67/81/13 69/69/13
f 69/69/13 71/82/13 73/83/13
f 73/83/13 75/84/13 77/70/13
f 77/70/13 79/85/13 81/86/13
f 81/86/13 83/87/13 85/71/13
f 85/71/13 87/80/13 69/69/13
f 69/69/13 73/83/13 77/70/13
f 77/70/13 81/86/13 85/71/13
f 72/88/14 70/89/14 68/72/14
f 68/72/14 88/90/14 86/91/14
f 86/91/14 84/92/14 82/73/14
f 82/73/14 80/93/14 78/94/14
f 78/94/14 76/95/14 74/74/14
f 74/74/14 72/88/14 68/72/14
f 68/72/14 86/91/14 82/73/14
f 82/73/14 78/94/14 74/74/14
