# Blender 4.0.2
# www.blender.org
mtllib cookie.mtl
g Sphere.012_Mesh
v -0.012763 0.004958 -0.033157
v -0.016908 0.005634 -0.033152
v -0.020616 0.003661 -0.033168
v -0.021714 0.000194 -0.033195
v -0.012398 0.002778 -0.037056
v -0.016392 0.002552 -0.038666
v -0.020251 0.001481 -0.037066
v -0.011808 -0.000809 -0.035601
v -0.015557 -0.002521 -0.036609
v -0.019660 -0.002106 -0.035612
v -0.010609 0.002028 -0.033180
v -0.011808 -0.000846 -0.030803
v -0.015557 -0.002574 -0.029823
v -0.019660 -0.002143 -0.030814
v -0.012398 0.002718 -0.029293
v -0.016392 0.002466 -0.027687
v -0.020251 0.001421 -0.029303
v 0.047596 0.001203 0.020821
v 0.043241 0.003468 0.020964
v 0.038401 0.002637 0.020911
v 0.035912 -0.000803 0.020695
v 0.047192 -0.001095 0.016135
v 0.042669 0.000218 0.014336
v 0.037997 0.000339 0.016225
v 0.046538 -0.005381 0.017600
v 0.041744 -0.005844 0.016409
v 0.037343 -0.003947 0.017691
v 0.048915 -0.002831 0.020568
v 0.046538 -0.005732 0.023193
v 0.041744 -0.006340 0.024318
v 0.037343 -0.004299 0.023283
v 0.047192 -0.001663 0.025184
v 0.042669 -0.000586 0.027133
v 0.037997 -0.000229 0.025274
v 0.035614 0.004031 -0.030762
v 0.030230 0.006399 -0.031124
v 0.024495 0.005066 -0.030920
v 0.021766 0.000813 -0.030269
v 0.035319 0.000127 -0.035632
v 0.029814 0.000878 -0.038012
v 0.024201 0.001162 -0.035791
v 0.034844 -0.004556 -0.032827
v 0.029142 -0.005744 -0.034045
v 0.023725 -0.003521 -0.032986
v 0.037491 -0.000651 -0.030046
v 0.034844 -0.003545 -0.026223
v 0.029142 -0.004316 -0.024706
v 0.023725 -0.002510 -0.026382
v 0.035319 0.001762 -0.024947
v 0.029815 0.003190 -0.022900
v 0.024201 0.002797 -0.025105
v -0.004513 0.006371 0.011127
v -0.010527 0.008391 0.010057
v -0.016637 0.006611 0.011000
v -0.019265 0.002074 0.013403
v -0.004594 0.000564 0.007825
v -0.010641 0.000178 0.005388
v -0.016718 0.000804 0.007698
v -0.004724 -0.003557 0.012443
v -0.010825 -0.005649 0.011919
v -0.016848 -0.003317 0.012316
v -0.002119 0.001734 0.013583
v -0.004724 -0.000297 0.018599
v -0.010825 -0.001039 0.020625
v -0.016848 -0.000057 0.018472
v -0.004594 0.005839 0.017786
v -0.010641 0.007639 0.019474
v -0.016718 0.006079 0.017659
v -0.034947 0.007883 0.016071
v -0.040272 0.008870 0.015950
v -0.045109 0.006450 0.016247
v -0.046625 0.002041 0.016788
v -0.034540 0.004434 0.011471
v -0.039697 0.003992 0.009445
v -0.044702 0.003001 0.011648
v -0.033882 0.000069 0.013926
v -0.038766 -0.002181 0.012917
v -0.044044 -0.001364 0.014102
v -0.032254 0.004068 0.016539
v -0.033882 0.000821 0.020042
v -0.038766 -0.001118 0.021566
v -0.044044 -0.000613 0.020219
v -0.034540 0.005650 0.021368
v -0.039697 0.005711 0.023441
v -0.044702 0.004217 0.021544
v -0.007062 0.005659 0.036971
v -0.012574 0.007131 0.037357
v -0.017870 0.005048 0.036810
v -0.019849 0.000631 0.035651
v -0.006883 0.004013 0.031170
v -0.012320 0.004802 0.029154
v -0.017691 0.003402 0.031010
v -0.006593 -0.001288 0.031829
v -0.011910 -0.002694 0.030086
v -0.017401 -0.001899 0.031669
v -0.004565 0.001495 0.035878
v -0.006593 -0.002918 0.038037
v -0.011910 -0.004999 0.038865
v -0.017401 -0.003529 0.037877
v -0.006883 0.001376 0.041215
v -0.012320 0.001074 0.043359
v -0.017691 0.000765 0.041054
v 0.019476 0.006487 -0.002899
v 0.013978 0.008225 -0.001601
v 0.008473 0.006502 -0.002888
v 0.006185 0.002327 -0.006007
v 0.019470 0.006924 -0.009503
v 0.013970 0.008842 -0.010940
v 0.008467 0.006938 -0.009492
v 0.019461 0.000984 -0.011294
v 0.013956 0.000443 -0.013473
v 0.008457 0.000999 -0.011283
v 0.021747 0.002307 -0.006022
v 0.019461 -0.003123 -0.005797
v 0.013956 -0.005367 -0.005699
v 0.008457 -0.003109 -0.005786
v 0.019470 0.000278 -0.000608
v 0.013970 -0.000557 0.001639
v 0.008467 0.000292 -0.000598
v 0.030045 0.004317 0.008599
v 0.026623 0.003633 0.010463
v 0.023337 0.001611 0.009587
v 0.022112 -0.000564 0.006484
v 0.028926 0.005774 0.004996
v 0.025041 0.005694 0.005367
v 0.022218 0.003068 0.005984
v 0.029581 0.002986 0.001802
v 0.025967 0.001750 0.000850
v 0.022873 0.000280 0.002790
v 0.031598 0.003263 0.005087
v 0.031104 -0.000194 0.003431
v 0.028120 -0.002747 0.003154
v 0.024396 -0.002901 0.004419
v 0.031390 0.000629 0.007631
v 0.028526 -0.001583 0.009095
v 0.024682 -0.002078 0.008619
v -0.039165 -0.001227 -0.028270
v -0.044139 -0.001227 -0.025272
v -0.045454 -0.001227 -0.019615
v -0.042340 -0.001227 -0.014614
v -0.036114 -0.005317 -0.026053
v -0.039823 -0.007011 -0.022136
v -0.042402 -0.005317 -0.017398
v -0.031176 -0.003755 -0.022465
v -0.032840 -0.004802 -0.017063
v -0.037464 -0.003755 -0.013810
v -0.033447 -0.001227 -0.026854
v -0.031176 0.001300 -0.022465
v -0.032840 0.002347 -0.017063
v -0.037464 0.001300 -0.013810
v -0.036114 0.002863 -0.026053
v -0.039823 0.004557 -0.022136
v -0.042402 0.002863 -0.017398
v 0.004445 -0.008297 -0.053216
v -0.031436 -0.008297 -0.046999
v -0.051883 -0.008297 -0.018856
v -0.051883 -0.008297 0.015931
v -0.031436 -0.008297 0.041200
v 0.001649 -0.008297 0.054824
v 0.034733 -0.008297 0.044074
v 0.055180 -0.008297 0.015931
v 0.056002 -0.008297 -0.016186
v 0.034733 -0.008297 -0.046999
v 0.022096 -0.008297 0.005181
v -0.018799 -0.008297 -0.008106
v 0.009460 -0.008297 0.035860
v -0.026609 -0.008297 0.024142
v 0.029906 -0.008297 -0.027068
v -0.006161 -0.008297 -0.038788
v -0.031436 -0.001020 -0.046999
v 0.004445 -0.001020 -0.053216
v -0.051883 -0.003575 -0.018856
v -0.051883 -0.001020 0.015931
v -0.031436 -0.002570 0.041200
v 0.001649 -0.001020 0.054824
v 0.034733 -0.001020 0.044074
v 0.055180 -0.003846 0.015931
v 0.056002 -0.001020 -0.016186
v 0.034733 -0.001020 -0.046999
v 0.029906 0.000981 -0.027068
v 0.022096 0.003401 0.005181
v 0.009460 0.002059 0.035860
v -0.006161 0.004132 -0.038788
v -0.018799 0.000765 -0.008106
v -0.026609 0.005325 0.024142
vn -0.4122 0.7783 -0.4737
vn 0.7794 0.5751 -0.2486
vn -0.9223 0.2941 -0.2507
vn 0.1413 0.8697 -0.4730
vn -0.2545 -0.3992 -0.8809
vn 0.9060 -0.0222 -0.4226
vn -0.8497 -0.3122 -0.4248
vn 0.3715 -0.2958 -0.8801
vn -0.1026 -0.9947 -0.0077
vn 0.9220 -0.3871 -0.0030
vn -0.7486 -0.6630 -0.0052
vn 0.4170 -0.9089 -0.0071
vn -0.2545 -0.4128 0.8745
vn 0.9060 -0.0288 0.4222
vn -0.8497 -0.3188 0.4199
vn 0.3715 -0.3094 0.8754
vn 0.1413 0.8622 0.4864
vn -0.4122 0.7708 0.4857
vn 0.7794 0.5712 0.2575
vn -0.9223 0.2902 0.2553
vn -0.1487 0.8929 -0.4250
vn 0.9196 0.3155 -0.2340
vn -0.7842 0.5812 -0.2173
vn 0.4053 0.8065 -0.4304
vn -0.3685 -0.2500 -0.8954
vn 0.8522 -0.2809 -0.4413
vn -0.9056 -0.0069 -0.4241
vn 0.2577 -0.3476 -0.9015
vn -0.4090 -0.9107 -0.0572
vn 0.7543 -0.6552 -0.0412
vn -0.9186 -0.3944 -0.0248
vn 0.1112 -0.9918 -0.0623
vn -0.3685 -0.3601 0.8571
vn 0.8522 -0.3340 0.4027
vn -0.9056 -0.0599 0.4199
vn 0.2577 -0.4577 0.8509
vn 0.4053 0.7463 0.5279
vn -0.1487 0.8327 0.5333
vn 0.9196 0.2837 0.2716
vn -0.7842 0.5494 0.2883
vn -0.2005 0.7703 -0.6054
vn 0.8990 0.3137 -0.3057
vn -0.8167 0.4734 -0.3301
vn 0.3562 0.7184 -0.5974
vn -0.3474 -0.4556 -0.8196
vn 0.8684 -0.3168 -0.3816
vn -0.9008 -0.1521 -0.4068
vn 0.2803 -0.5141 -0.8107
vn -0.3521 -0.9252 0.1415
vn 0.7925 -0.6029 0.0922
vn -0.8924 -0.4460 0.0682
vn 0.1712 -0.9739 0.1490
vn -0.3474 -0.1898 0.9183
vn 0.8684 -0.1882 0.4588
vn -0.9008 -0.0236 0.4336
vn 0.2803 -0.2482 0.9273
vn 0.3562 0.8642 0.3553
vn -0.2005 0.9160 0.3474
vn 0.8990 0.3907 0.1980
vn -0.8167 0.5504 0.1735
vn -0.2684 0.4789 -0.8358
vn 0.8767 0.2286 -0.4233
vn -0.8579 0.2629 -0.4415
vn 0.3047 0.4676 -0.8298
vn -0.3146 -0.7038 -0.6369
vn 0.8792 -0.3676 -0.3032
vn -0.8865 -0.3326 -0.3217
vn 0.2997 -0.7160 -0.6305
vn -0.2973 -0.8438 0.4469
vn 0.8465 -0.4704 0.2491
vn -0.8696 -0.4364 0.2311
vn 0.2542 -0.8547 0.4526
vn -0.3146 0.1313 0.9401
vn 0.8792 0.0443 0.4744
vn -0.8865 0.0793 0.4559
vn 0.2997 0.1192 0.9465
vn 0.3047 0.9491 0.0795
vn -0.2684 0.9605 0.0735
vn 0.8767 0.4786 0.0488
vn -0.8579 0.5130 0.0306
vn -0.3945 0.7181 -0.5734
vn 0.7921 0.5199 -0.3198
vn -0.9154 0.2791 -0.2902
vn 0.1608 0.7964 -0.5830
vn -0.2628 -0.5027 -0.8235
vn 0.9046 -0.0970 -0.4151
vn -0.8560 -0.3454 -0.3846
vn 0.3634 -0.4144 -0.8344
vn -0.1252 -0.9847 0.1210
vn -0.1252 -0.9847 0.1209
vn 0.9133 -0.4043 0.0497
vn -0.7636 -0.6408 0.0787
vn 0.3967 -0.9111 0.1119
vn -0.2628 -0.2885 0.9207
vn 0.9046 0.0063 0.4263
vn -0.8560 -0.2420 0.4568
vn 0.3634 -0.2002 0.9099
vn 0.1608 0.9138 0.3729
vn -0.3945 0.8355 0.3826
vn 0.7921 0.5819 0.1845
vn -0.9154 0.3410 0.2141
vn -0.3286 0.9058 -0.2673
vn 0.8358 0.5344 -0.1259
vn -0.8866 0.4370 -0.1514
vn 0.2322 0.9376 -0.2589
vn 0.2322 0.9376 -0.2590
vn -0.2923 -0.1337 -0.9469
vn 0.8957 -0.0063 -0.4445
vn -0.8758 -0.1065 -0.4708
vn 0.3334 -0.0983 -0.9376
vn -0.2085 -0.9460 -0.2483
vn 0.8779 -0.4631 -0.1216
vn -0.8162 -0.5589 -0.1467
vn 0.3211 -0.9160 -0.2405
vn -0.2923 -0.5816 0.7592
vn 0.8957 -0.2238 0.3841
vn -0.8758 -0.3240 0.3578
vn 0.3334 -0.5462 0.7684
vn 0.2322 0.6895 0.6861
vn -0.3286 0.6578 0.6777
vn 0.8358 0.4037 0.3721
vn -0.8866 0.3063 0.3465
vn -0.3115 0.9482 0.0630
vn 0.8875 0.4599 0.0296
vn -0.8862 0.4622 0.0314
vn 0.3141 0.9473 0.0624
vn -0.3320 0.2728 -0.9030
vn 0.8983 0.1255 -0.4210
vn -0.8988 0.1279 -0.4193
vn 0.3309 0.2719 -0.9036
vn -0.3043 -0.7631 -0.5702
vn 0.8791 -0.3819 -0.2853
vn -0.8806 -0.3796 -0.2836
vn 0.3012 -0.7639 -0.5708
vn -0.3320 -0.7886 0.5175
vn 0.8983 -0.3682 0.2397
vn -0.8988 -0.3658 0.2414
vn 0.3309 -0.7895 0.5169
vn 0.3141 0.3283 0.8908
vn -0.3115 0.3291 0.8914
vn 0.8875 0.1588 0.4326
vn -0.8862 0.1611 0.4344
vn -0.5516 0.6996 0.4541
vn 0.6810 0.7276 0.0828
vn -0.9440 0.0720 0.3221
vn 0.0161 0.9287 0.3705
vn -0.6170 0.5258 -0.5855
vn 0.6237 0.6477 -0.4376
vn -0.9795 0.0009 -0.2015
vn -0.0790 0.7429 -0.6647
vn -0.2521 -0.5341 -0.8070
vn 0.8396 0.1323 -0.5268
vn -0.7992 -0.5289 -0.2854
vn 0.3367 -0.2965 -0.8937
vn 0.1029 -0.9774 0.1845
vn 0.9917 -0.1208 -0.0440
vn -0.6115 -0.7676 0.1921
vn 0.6409 -0.7604 0.1052
vn 0.4856 -0.0517 0.8726
vn -0.0821 -0.2807 0.9563
vn 0.9115 0.2462 0.3294
vn -0.7134 -0.4094 0.5687
vn -0.7423 -0.6474 -0.1725
vn 0.2271 -0.3277 -0.9171
vn -0.8020 -0.3277 0.4994
vn -0.3935 -0.6474 -0.6527
vn 0.0379 -0.9342 0.3547
vn 0.6047 -0.5136 -0.6087
vn -0.3920 -0.5136 0.7632
vn 0.3490 -0.9342 -0.0735
vn 0.5753 -0.0000 0.8179
vn 0.8882 -0.0000 -0.4595
vn -0.1626 -0.0000 0.9867
vn 0.9557 -0.0000 0.2944
vn 0.0379 0.9342 0.3547
vn 0.0379 0.9342 0.3546
vn 0.6047 0.5136 -0.6087
vn -0.3920 0.5136 0.7632
vn 0.3490 0.9342 -0.0735
vn -0.3935 0.6474 -0.6527
vn -0.7423 0.6474 -0.1725
vn 0.2271 0.3277 -0.9171
vn -0.8020 0.3277 0.4994
vn -0.0000 -1.0000 -0.0000
vn 0.1068 0.9915 -0.0737
vn 0.1528 0.9863 0.0625
vn 0.1487 0.9868 0.0639
vn 0.1993 0.9788 0.0465
vn 0.1170 0.9751 -0.1886
vn 0.0647 0.9882 -0.1386
vn 0.0195 0.9953 -0.0952
vn 0.0375 0.9979 -0.0535
vn 0.0102 0.9993 -0.0359
vn -0.0692 0.9975 0.0151
vn -0.1674 0.9858 0.0092
vn -0.1631 0.9866 0.0077
vn -0.2066 0.9782 0.0222
vn -0.1448 0.9813 -0.1265
vn -0.1408 0.9826 -0.1208
vn -0.1064 0.9917 -0.0728
vn -0.0825 0.9737 0.2123
vn -0.0650 0.9447 0.3214
vn -0.0960 0.9880 0.1209
vn 0.0598 0.9811 0.1839
vn -0.3270 0.8895 0.3192
vn -0.0103 0.9997 0.0232
vn 0.0170 0.9998 0.0057
vn 0.1029 0.9935 -0.0496
vn 0.1439 0.9893 0.0237
vn 0.1431 0.9895 0.0223
vn 0.1848 0.9786 0.0908
vn -0.0655 0.9235 -0.3779
vn -0.3808 -0.0000 0.9247
vn -0.8090 -0.0000 -0.5878
vn 0.8230 -0.0000 -0.5681
vn 0.3090 -0.0000 0.9511
vn -1.0000 -0.0000 -0.0000
vn 0.2011 -0.0000 -0.9796
vn 0.8090 -0.0000 0.5878
vn -0.7774 -0.0000 0.6290
vn -0.1707 -0.0000 -0.9853
vn 0.9997 -0.0000 0.0256
vn 0.3563 0.8642 0.3553
vn 0.0942 0.9922 0.0822
vn 0.1578 0.9610 -0.2272
vn 0.1248 0.9861 -0.1092
vn -0.1289 0.9917 -0.0036
vn -0.1837 0.9661 -0.1811
vn -0.0499 0.9117 0.4078
vn -0.0877 0.9935 0.0729
vn 0.0975 0.9939 -0.0510
vt 0.691772 0.468795
vt 0.688070 0.464167
vt 0.691772 0.464167
vt 0.691772 0.473422
vt 0.689921 0.478049
vt 0.688070 0.473422
vt 0.689921 0.459540
vt 0.688070 0.468795
vt 0.684368 0.464167
vt 0.686219 0.478049
vt 0.684368 0.473422
vt 0.686219 0.459540
vt 0.684368 0.468795
vt 0.680666 0.468795
vt 0.680666 0.464167
vt 0.682517 0.478049
vt 0.680666 0.473422
vt 0.682517 0.459540
vt 0.699175 0.468795
vt 0.695473 0.464167
vt 0.699175 0.464167
vt 0.699175 0.473422
vt 0.697324 0.478049
vt 0.695473 0.473422
vt 0.697324 0.459540
vt 0.695473 0.468795
vt 0.693623 0.478049
vt 0.693623 0.459540
vt 0.912614 0.174631
vt 0.894974 0.174631
vt 0.894974 0.156990
vt 0.912614 0.156990
s 1
usemtl Material.010
f 2/1/1 7/2/1 3/3/1
f 1/4/2 11/5/2 5/6/2
f 4/7/3 3/3/3 7/2/3
f 2/1/4 5/6/4 6/8/4
f 6/8/5 10/9/5 7/2/5
f 5/6/6 11/10/6 8/11/6
f 4/12/7 7/2/7 10/9/7
f 5/6/8 9/13/8 6/8/8
f 10/9/9 13/14/9 14/15/9
f 8/11/10 11/16/10 12/17/10
f 4/18/11 10/9/11 14/15/11
f 8/11/12 13/14/12 9/13/12
f 13/19/13 17/20/13 14/21/13
f 12/22/14 11/23/14 15/24/14
f 4/25/15 14/21/15 17/20/15
f 12/22/16 16/26/16 13/19/16
f 16/26/17 1/4/17 2/1/17
f 17/20/18 2/1/18 3/3/18
f 15/24/19 11/27/19 1/4/19
f 4/28/20 17/20/20 3/3/20
f 19/1/21 24/2/21 20/3/21
f 18/4/22 28/5/22 22/6/22
f 21/7/23 20/3/23 24/2/23
f 18/4/24 23/8/24 19/1/24
f 23/8/25 27/9/25 24/2/25
f 22/6/26 28/10/26 25/11/26
f 21/12/27 24/2/27 27/9/27
f 22/6/28 26/13/28 23/8/28
f 26/13/29 31/15/29 27/9/29
f 25/11/30 28/16/30 29/17/30
f 21/18/31 27/9/31 31/15/31
f 25/11/32 30/14/32 26/13/32
f 31/21/33 33/26/33 34/20/33
f 29/22/34 28/23/34 32/24/34
f 21/25/35 31/21/35 34/20/35
f 30/19/36 32/24/36 33/26/36
f 33/26/37 18/4/37 19/1/37
f 34/20/38 19/1/38 20/3/38
f 32/24/39 28/27/39 18/4/39
f 21/28/40 34/20/40 20/3/40
f 36/1/41 41/2/41 37/3/41
f 35/4/42 45/5/42 39/6/42
f 38/7/43 37/3/43 41/2/43
f 35/4/44 40/8/44 36/1/44
f 40/8/45 44/9/45 41/2/45
f 39/6/46 45/10/46 42/11/46
f 38/12/47 41/2/47 44/9/47
f 39/6/48 43/13/48 40/8/48
f 44/9/49 47/14/49 48/15/49
f 42/11/50 45/16/50 46/17/50
f 38/18/51 44/9/51 48/15/51
f 42/11/52 47/14/52 43/13/52
f 48/21/53 50/26/53 51/20/53
f 46/22/54 45/23/54 49/24/54
f 38/25/55 48/21/55 51/20/55
f 47/19/56 49/24/56 50/26/56
f 50/26/57 35/4/57 36/1/57
f 51/20/58 36/1/58 37/3/58
f 49/24/59 45/27/59 35/4/59
f 38/28/60 51/20/60 37/3/60
f 53/1/61 58/2/61 54/3/61
f 52/4/62 62/5/62 56/6/62
f 55/7/63 54/3/63 58/2/63
f 52/4/64 57/8/64 53/1/64
f 57/8/65 61/9/65 58/2/65
f 56/6/66 62/10/66 59/11/66
f 55/12/67 58/2/67 61/9/67
f 56/6/68 60/13/68 57/8/68
f 61/9/69 64/14/69 65/15/69
f 59/11/70 62/16/70 63/17/70
f 55/18/71 61/9/71 65/15/71
f 59/11/72 64/14/72 60/13/72
f 65/21/73 67/26/73 68/20/73
f 63/22/74 62/23/74 66/24/74
f 55/25/75 65/21/75 68/20/75
f 64/19/76 66/24/76 67/26/76
f 66/24/77 53/1/77 67/26/77
f 68/20/78 53/1/78 54/3/78
f 66/24/79 62/27/79 52/4/79
f 55/28/80 68/20/80 54/3/80
f 70/1/81 75/2/81 71/3/81
f 69/4/82 79/5/82 73/6/82
f 72/7/83 71/3/83 75/2/83
f 69/4/84 74/8/84 70/1/84
f 74/8/85 78/9/85 75/2/85
f 73/6/86 79/10/86 76/11/86
f 72/12/87 75/2/87 78/9/87
f 74/8/88 76/11/88 77/13/88
f 78/9/89 81/14/89 82/15/90
f 76/11/91 79/16/91 80/17/91
f 72/18/92 78/9/92 82/15/92
f 76/11/93 81/14/93 77/13/93
f 81/19/94 85/20/94 82/21/94
f 80/22/95 79/23/95 83/24/95
f 72/25/96 82/21/96 85/20/96
f 81/19/97 83/24/97 84/26/97
f 83/24/98 70/1/98 84/26/98
f 85/20/99 70/1/99 71/3/99
f 83/24/100 79/27/100 69/4/100
f 72/28/101 85/20/101 71/3/101
f 87/1/102 92/2/102 88/3/102
f 86/4/103 96/5/103 90/6/103
f 89/7/104 88/3/104 92/2/104
f 86/4/105 91/8/105 87/1/106
f 91/8/107 95/9/107 92/2/107
f 90/6/108 96/10/108 93/11/108
f 89/12/109 92/2/109 95/9/109
f 90/6/110 94/13/110 91/8/110
f 94/13/111 99/15/111 95/9/111
f 93/11/112 96/16/112 97/17/112
f 89/18/113 95/9/113 99/15/113
f 94/13/114 97/17/114 98/14/114
f 99/21/115 101/26/115 102/20/115
f 97/22/116 96/23/116 100/24/116
f 89/25/117 99/21/117 102/20/117
f 98/19/118 100/24/118 101/26/118
f 101/26/119 86/4/119 87/1/119
f 102/20/120 87/1/120 88/3/120
f 100/24/121 96/27/121 86/4/121
f 89/28/122 102/20/122 88/3/122
f 104/1/123 109/2/123 105/3/123
f 103/4/124 113/5/124 107/6/124
f 106/7/125 105/3/125 109/2/125
f 104/1/126 107/6/126 108/8/126
f 109/2/127 111/13/127 112/9/127
f 107/6/128 113/10/128 110/11/128
f 106/12/129 109/2/129 112/9/129
f 107/6/130 111/13/130 108/8/130
f 111/13/131 116/15/131 112/9/131
f 110/11/132 113/16/132 114/17/132
f 106/18/133 112/9/133 116/15/133
f 111/13/134 114/17/134 115/14/134
f 116/21/135 118/26/135 119/20/135
f 114/22/136 113/23/136 117/24/136
f 106/25/137 116/21/137 119/20/137
f 114/22/138 118/26/138 115/19/138
f 118/26/139 103/4/139 104/1/139
f 119/20/140 104/1/140 105/3/140
f 117/24/141 113/27/141 103/4/141
f 106/28/142 119/20/142 105/3/142
f 121/1/143 126/2/143 122/3/143
f 120/4/144 130/5/144 124/6/144
f 123/7/145 122/3/145 126/2/145
f 120/4/146 125/8/146 121/1/146
f 126/2/147 128/13/147 129/9/147
f 124/6/148 130/10/148 127/11/148
f 123/12/149 126/2/149 129/9/149
f 125/8/150 127/11/150 128/13/150
f 129/9/151 132/14/151 133/15/151
f 127/11/152 130/16/152 131/17/152
f 123/18/153 129/9/153 133/15/153
f 128/13/154 131/17/154 132/14/154
f 133/21/155 135/26/155 136/20/155
f 131/22/156 130/23/156 134/24/156
f 123/25/157 133/21/157 136/20/157
f 131/22/158 135/26/158 132/19/158
f 134/24/159 121/1/159 135/26/159
f 135/26/160 122/3/160 136/20/160
f 134/24/161 130/27/161 120/4/161
f 123/28/162 136/20/162 122/3/162
f 138/1/163 143/2/163 139/3/163
f 137/4/164 147/5/164 141/6/164
f 140/7/165 139/3/165 143/2/165
f 137/4/166 142/8/166 138/1/166
f 142/8/167 146/9/167 143/2/167
f 141/6/168 147/10/168 144/11/168
f 140/12/169 143/2/169 146/9/169
f 142/8/170 144/11/170 145/13/170
f 146/9/171 149/14/171 150/15/171
f 144/11/172 147/16/172 148/17/172
f 140/18/173 146/9/173 150/15/173
f 145/13/174 148/17/174 149/14/174
f 150/21/175 152/26/175 153/20/176
f 148/22/177 147/23/177 151/24/177
f 140/25/178 150/21/178 153/20/178
f 149/19/179 151/24/179 152/26/179
f 151/24/180 138/1/180 152/26/180
f 152/26/181 139/3/181 153/20/181
f 151/24/182 147/27/182 137/4/182
f 140/28/183 153/20/183 139/3/183
f 163/29/184 162/30/184 168/31/184
f 164/29/184 160/31/184 166/32/184
f 154/29/184 168/31/184 169/32/184
f 165/29/184 166/31/184 167/32/184
f 155/29/184 165/31/184 156/32/184
f 165/30/184 157/32/184 156/29/184
f 179/29/185 180/30/185 178/31/185
f 159/30/184 167/32/184 166/29/184
f 160/29/184 159/30/184 166/31/184
f 167/29/184 158/30/184 157/31/184
f 164/30/184 169/32/184 168/29/184
f 162/29/184 164/31/184 168/32/184
f 169/29/184 155/30/184 154/31/184
f 181/29/186 176/31/187 177/32/188
f 171/29/189 180/31/190 179/32/191
f 184/29/192 182/31/193 181/32/194
f 170/29/195 184/31/196 183/32/197
f 173/30/198 184/32/199 172/29/200
f 182/29/201 174/31/202 175/32/203
f 176/29/204 182/30/204 175/31/204
f 185/29/205 173/30/205 174/31/205
f 183/30/206 181/32/207 180/29/208
f 178/29/209 181/31/210 177/32/211
f 183/29/212 171/30/212 170/31/212
f 158/29/213 175/31/213 174/32/213
f 155/29/214 172/31/214 170/32/214
f 163/30/215 178/32/215 162/29/215
f 159/29/216 176/31/216 175/32/216
f 157/30/217 172/32/217 156/29/217
f 154/30/218 179/32/218 163/29/218
f 160/29/219 177/31/219 176/32/219
f 157/29/220 174/31/220 173/32/220
f 155/30/221 171/32/221 154/29/221
f 162/30/222 177/32/222 161/29/222
f 2/1/1 6/8/1 7/2/1
f 2/1/4 1/4/4 5/6/4
f 6/8/5 9/13/5 10/9/5
f 5/6/8 8/11/8 9/13/8
f 10/9/9 9/13/9 13/14/9
f 8/11/12 12/17/12 13/14/12
f 13/19/13 16/26/13 17/20/13
f 12/22/16 15/24/16 16/26/16
f 16/26/17 15/24/17 1/4/17
f 17/20/18 16/26/18 2/1/18
f 19/1/21 23/8/21 24/2/21
f 18/4/24 22/6/24 23/8/24
f 23/8/25 26/13/25 27/9/25
f 22/6/28 25/11/28 26/13/28
f 26/13/29 30/14/29 31/15/29
f 25/11/32 29/17/32 30/14/32
f 31/21/33 30/19/33 33/26/33
f 30/19/36 29/22/36 32/24/36
f 33/26/37 32/24/37 18/4/37
f 34/20/38 33/26/38 19/1/38
f 36/1/41 40/8/41 41/2/41
f 35/4/44 39/6/44 40/8/44
f 40/8/45 43/13/45 44/9/45
f 39/6/48 42/11/48 43/13/48
f 44/9/49 43/13/49 47/14/49
f 42/11/52 46/17/52 47/14/52
f 48/21/53 47/19/53 50/26/53
f 47/19/56 46/22/56 49/24/56
f 50/26/57 49/24/223 35/4/57
f 51/20/58 50/26/58 36/1/58
f 53/1/61 57/8/61 58/2/61
f 52/4/64 56/6/64 57/8/64
f 57/8/65 60/13/65 61/9/65
f 56/6/68 59/11/68 60/13/68
f 61/9/69 60/13/69 64/14/69
f 59/11/72 63/17/72 64/14/72
f 65/21/73 64/19/73 67/26/73
f 64/19/76 63/22/76 66/24/76
f 66/24/77 52/4/77 53/1/77
f 68/20/78 67/26/78 53/1/78
f 70/1/81 74/8/81 75/2/81
f 69/4/84 73/6/84 74/8/84
f 74/8/85 77/13/85 78/9/85
f 74/8/88 73/6/88 76/11/88
f 78/9/89 77/13/89 81/14/89
f 76/11/93 80/17/93 81/14/93
f 81/19/94 84/26/94 85/20/94
f 81/19/97 80/22/97 83/24/97
f 83/24/98 69/4/98 70/1/98
f 85/20/99 84/26/99 70/1/99
f 87/1/102 91/8/102 92/2/102
f 86/4/105 90/6/105 91/8/105
f 91/8/107 94/13/107 95/9/107
f 90/6/110 93/11/110 94/13/110
f 94/13/111 98/14/111 99/15/111
f 94/13/114 93/11/114 97/17/114
f 99/21/115 98/19/115 101/26/115
f 98/19/118 97/22/118 100/24/118
f 101/26/119 100/24/119 86/4/119
f 102/20/120 101/26/120 87/1/120
f 104/1/123 108/8/123 109/2/123
f 104/1/126 103/4/126 107/6/126
f 109/2/127 108/8/127 111/13/127
f 107/6/130 110/11/130 111/13/130
f 111/13/131 115/14/131 116/15/131
f 111/13/134 110/11/134 114/17/134
f 116/21/135 115/19/135 118/26/135
f 114/22/138 117/24/138 118/26/138
f 118/26/139 117/24/139 103/4/139
f 119/20/140 118/26/140 104/1/140
f 121/1/143 125/8/143 126/2/143
f 120/4/146 124/6/146 125/8/146
f 126/2/147 125/8/147 128/13/147
f 125/8/150 124/6/150 127/11/150
f 129/9/151 128/13/151 132/14/151
f 128/13/154 127/11/154 131/17/154
f 133/21/155 132/19/155 135/26/155
f 131/22/158 134/24/158 135/26/158
f 134/24/159 120/4/159 121/1/159
f 135/26/160 121/1/160 122/3/160
f 138/1/163 142/8/163 143/2/163
f 137/4/166 141/6/166 142/8/166
f 142/8/167 145/13/167 146/9/167
f 142/8/170 141/6/170 144/11/170
f 146/9/171 145/13/171 149/14/171
f 145/13/174 144/11/174 148/17/174
f 150/21/175 149/19/175 152/26/175
f 149/19/179 148/22/179 151/24/179
f 151/24/180 137/4/180 138/1/180
f 152/26/181 138/1/181 139/3/181
f 164/29/184 161/30/184 160/31/184
f 154/29/184 163/30/184 168/31/184
f 165/29/184 164/30/184 166/31/184
f 155/29/184 169/30/184 165/31/184
f 165/30/184 167/31/184 157/32/184
f 159/30/184 158/31/184 167/32/184
f 164/30/184 165/31/184 169/32/184
f 162/29/184 161/30/184 164/31/184
f 181/29/186 182/30/224 176/31/187
f 171/29/189 183/30/225 180/31/190
f 184/29/192 185/30/226 182/31/193
f 170/29/195 172/30/227 184/31/196
f 173/30/198 185/31/228 184/32/199
f 182/29/201 185/30/229 174/31/202
f 183/30/206 184/31/230 181/32/207
f 178/29/209 180/30/231 181/31/210
f 158/29/213 159/30/213 175/31/213
f 155/29/214 156/30/214 172/31/214
f 163/30/215 179/31/215 178/32/215
f 159/29/216 160/30/216 176/31/216
f 157/30/217 173/31/217 172/32/217
f 154/30/218 171/31/218 179/32/218
f 160/29/219 161/30/219 177/31/219
f 157/29/220 158/30/220 174/31/220
f 155/30/221 170/31/221 171/32/221
f 162/30/222 178/31/222 177/32/222
