# Blender 4.0.2
# www.blender.org
mtllib cupcake.mtl
g Cylinder_Mesh
v -0.002438 -0.078611 -0.041733
v -0.002438 -0.028223 -0.060207
v 0.024643 -0.078611 -0.031877
v 0.036517 -0.028223 -0.046028
v 0.039052 -0.078611 -0.006919
v 0.057245 -0.028223 -0.010127
v 0.034048 -0.078611 0.021462
v 0.050046 -0.028223 0.030699
v 0.011971 -0.078611 0.039987
v 0.018290 -0.028223 0.057346
v -0.016848 -0.078611 0.039987
v -0.023166 -0.028223 0.057346
v -0.038924 -0.078611 0.021462
v -0.054923 -0.028223 0.030699
v -0.043929 -0.078611 -0.006919
v -0.062121 -0.028223 -0.010127
v -0.029519 -0.078611 -0.031877
v -0.041394 -0.028223 -0.046028
v 0.032216 -0.036567 -0.040902
v -0.002438 -0.036567 -0.053515
v 0.050655 -0.036567 -0.008965
v 0.044251 -0.036567 0.027353
v 0.016001 -0.036567 0.051058
v -0.020877 -0.036567 0.051058
v -0.049128 -0.036567 0.027353
v -0.055532 -0.036567 -0.008965
v -0.037092 -0.036567 -0.040902
v -0.009903 0.029825 -0.002168
v 0.000381 0.043624 -0.016497
v 0.005418 0.057423 0.000406
v -0.004866 0.043624 0.014735
v -0.005047 0.027771 -0.002739
v 0.015336 0.033172 -0.010279
v 0.015776 0.050793 0.003534
v -0.004607 0.045392 0.011073
v -0.005703 0.030589 -0.002742
v 0.010529 0.021943 0.010035
v 0.011270 0.041730 0.022526
v -0.004962 0.050375 0.009749
v -0.003830 0.032755 -0.003002
v -0.004577 0.017135 0.013028
v -0.014470 0.032554 0.027556
v -0.013723 0.048174 0.011526
v -0.003980 0.034030 -0.003086
v -0.012601 0.014345 0.003212
v -0.033025 0.023504 0.003880
v -0.024404 0.043189 -0.002418
v -0.002507 0.034229 -0.006784
v -0.008471 0.012645 -0.006947
v -0.021187 0.016295 -0.025015
v -0.015224 0.037879 -0.024852
v 0.006152 0.033442 -0.007827
v 0.001796 0.011479 -0.008177
v 0.010544 0.010072 -0.028743
v 0.014899 0.032035 -0.028393
v 0.014308 0.031825 0.003410
v 0.008068 0.010522 0.000453
v 0.029467 0.004680 -0.002615
v 0.035707 0.025982 0.000341
v 0.006295 0.029533 0.020845
v 0.003155 0.009586 0.011162
v 0.015908 -0.000038 0.026853
v 0.019048 0.019908 0.036536
v -0.018090 0.026703 0.022891
v -0.010324 0.008564 0.012301
v -0.016620 -0.004218 0.029577
v -0.024386 0.013921 0.040167
v -0.034824 0.023448 -0.001576
v -0.019234 0.007395 -0.000714
v -0.035227 -0.007973 0.002370
v -0.050818 0.008080 0.001508
v -0.019641 0.019859 -0.032727
v -0.011174 0.006051 -0.017263
v -0.020576 -0.011394 -0.027692
v -0.029044 0.002414 -0.043155
v 0.019761 0.016010 -0.035286
v 0.010131 0.004519 -0.018652
v 0.013458 -0.014555 -0.029903
v 0.023088 -0.003064 -0.046537
v 0.042994 0.012313 -0.001028
v 0.025996 0.001814 0.009089
v 0.033828 -0.017867 0.001822
v 0.050825 -0.007368 -0.008294
v -0.010409 0.039760 -0.009693
v -0.002749 0.053558 -0.008406
v -0.013033 0.039760 0.005923
v -0.005373 0.053558 0.007210
v -0.014490 0.050615 -0.002939
v 0.050921 0.001834 0.001454
v 0.038507 0.006426 0.010146
v 0.033924 -0.008664 0.011571
v 0.046339 -0.013256 0.002879
v 0.047026 -0.004162 0.013434
v 0.010597 0.054108 0.001970
v -0.005120 0.048591 0.010972
v -0.004737 0.044508 0.012904
v 0.005584 0.048092 0.007304
v 0.000023 0.055490 0.003808
v -0.064649 -0.014880 -0.009822
v -0.019963 -0.036567 0.051733
v -0.043454 -0.014653 -0.046565
v 0.017135 -0.036567 0.050988
v -0.003164 -0.014547 -0.060581
v 0.045075 -0.036567 0.026571
v 0.035053 -0.014700 -0.045983
v 0.050783 -0.036567 -0.010094
v 0.058015 -0.014659 -0.012462
v 0.031588 -0.036567 -0.041849
v 0.054411 -0.014460 0.031045
v -0.003528 -0.036567 -0.053837
v -0.055009 -0.014611 0.031084
v -0.038134 -0.036567 -0.040448
v 0.018620 -0.014822 0.057357
v -0.056038 -0.036567 -0.007947
v -0.022753 -0.014647 0.059590
v -0.048862 -0.036567 0.028458
v -0.009421 0.017743 0.027723
v -0.019289 0.005202 0.047332
v 0.010084 0.022627 0.024332
v 0.015186 0.002886 0.046534
v 0.027521 0.016057 0.014466
v 0.037346 0.001820 0.022449
v 0.026626 0.015031 -0.007319
v 0.046948 -0.004842 -0.009217
v 0.016140 0.014111 -0.023034
v 0.025839 0.001886 -0.034712
v -0.002459 0.012747 -0.025482
v -0.002341 -0.004430 -0.049157
v -0.021242 0.014842 -0.019987
v -0.031862 0.001840 -0.034061
v -0.028601 0.015177 -0.004095
v -0.050592 0.003574 -0.007651
v -0.025182 0.016096 0.015326
v -0.042096 0.002433 0.024584
vn 0.3234 -0.3257 -0.8884
vn 0.8188 -0.3257 -0.4727
vn 0.9311 -0.3257 0.1642
vn 0.6077 -0.3257 0.7243
vn -0.0000 -0.3257 0.9455
vn -0.6077 -0.3257 0.7243
vn -0.9311 -0.3257 0.1642
vn 0.2731 0.6019 0.7504
vn -0.8188 -0.3257 -0.4727
vn -0.3234 -0.3257 -0.8884
vn -0.0000 -1.0000 -0.0000
vn -0.0000 1.0000 -0.0000
vn 0.6916 0.6019 0.3993
vn 0.7865 0.6019 -0.1387
vn 0.5133 0.6019 -0.6118
vn -0.0000 0.6019 -0.7986
vn -0.5133 0.6019 -0.6118
vn -0.2731 0.6019 0.7504
vn -0.7865 0.6019 -0.1387
vn -0.6916 0.6019 0.3993
vn 0.9189 -0.3768 -0.1168
vn 0.2574 -0.7529 0.6057
vn -0.7023 -0.4782 0.5274
vn 0.0254 -0.9992 0.0297
vn -0.4968 -0.8674 0.0293
vn -0.7171 -0.3207 -0.6188
vn 0.0458 0.2599 -0.9646
vn -0.0946 0.8932 -0.4396
vn 0.4951 0.8604 0.1206
vn -0.2181 0.4691 0.8558
vn 0.9841 -0.1762 0.0227
vn 0.1380 0.8669 0.4789
vn 0.8039 -0.1101 0.5844
vn 0.5684 -0.6100 -0.5521
vn 0.5777 0.8102 0.0992
vn 0.3978 -0.9174 0.0026
vn -0.0345 0.9969 -0.0702
vn -0.2695 0.9610 0.0622
vn 0.3281 -0.9280 -0.1764
vn 0.5152 0.4751 0.7134
vn 0.1781 -0.9639 0.1979
vn -0.3300 -0.0629 0.9419
vn 0.8319 0.4773 0.2829
vn 0.0190 -0.9789 0.2032
vn -0.8344 -0.5076 0.2149
vn 0.3868 0.8671 0.3140
vn -0.2990 0.9403 -0.1627
vn -0.0735 -0.9740 0.2145
vn -0.4726 -0.7681 -0.4321
vn 0.0988 0.9508 0.2937
vn -0.1259 0.9089 -0.3975
vn -0.3242 -0.9171 0.2320
vn 0.0660 -0.8896 -0.4520
vn 0.7337 0.6794 0.0059
vn 0.3259 0.8236 -0.4641
vn -0.6071 -0.7933 -0.0460
vn 0.3025 -0.9425 -0.1418
vn -0.0503 0.9863 0.1571
vn 0.4638 0.4759 0.7473
vn -0.4138 -0.5808 -0.7011
vn 0.2220 -0.9664 0.1299
vn -0.0972 0.9910 0.0921
vn -0.4368 0.2511 0.8638
vn 0.4350 -0.3185 -0.8422
vn 0.0167 -0.9788 0.2043
vn -0.1372 0.9903 0.0202
vn -0.9971 0.0277 0.0709
vn 0.9966 -0.0434 -0.0696
vn -0.1248 -0.9863 0.1083
vn -0.1288 0.9874 -0.0919
vn -0.5602 -0.1800 -0.8086
vn 0.5612 0.2163 0.7989
vn -0.1308 -0.9911 -0.0230
vn -0.0157 0.9829 -0.1834
vn 0.3730 -0.3611 -0.8546
vn -0.3596 0.4683 0.8071
vn -0.0723 -0.9929 -0.0942
vn 0.2010 0.9717 0.1245
vn 0.8790 0.4722 0.0655
vn 0.8299 -0.4846 -0.2765
vn -0.5882 0.3729 0.7176
vn 0.0131 0.7993 0.6008
vn -0.0280 -0.9908 0.1322
vn 0.4586 -0.8772 0.1423
vn 0.5529 -0.1351 0.8222
vn -0.2306 0.8845 0.4056
vn -0.7027 0.6996 -0.1293
vn -0.1419 0.9404 0.3090
vn -0.3241 -0.5610 0.7618
vn 0.1292 0.9916 0.0057
vn 0.1535 0.9778 -0.1428
vn -0.6386 -0.2652 0.7224
vn 0.9491 -0.3047 0.0800
vn 0.8028 -0.2311 -0.5496
vn 0.3467 -0.2270 -0.9101
vn -0.3154 -0.2731 -0.9088
vn -0.8167 -0.3303 -0.4732
vn -0.9135 -0.3439 0.2175
vn 0.0541 0.5184 0.8534
vn 0.0484 0.5271 0.8484
vn 0.0546 0.5177 0.8538
vn 0.5727 -0.2662 0.7753
vn 0.0494 -0.3314 0.9422
vn 0.0684 0.8245 0.5617
vn 0.5359 0.6883 0.4889
vn 0.7877 0.6060 0.1114
vn 0.6054 0.6614 -0.4427
vn 0.1635 0.7462 -0.6453
vn -0.1276 0.8025 -0.5829
vn -0.4671 0.7967 -0.3836
vn -0.4806 0.8627 0.1572
vn -0.4585 0.8121 0.3608
vn -0.1783 0.9839 -0.0151
vn 0.6552 0.4824 0.5814
vn -0.7365 0.6407 0.2168
vn -0.5475 0.7147 -0.4352
vn -0.1724 0.7435 -0.6461
vn 0.2363 0.6325 -0.7376
vn 0.5874 0.7569 -0.2866
vn 0.5886 0.7554 -0.2880
vn 0.5917 0.7516 -0.2915
vn 0.6716 0.7391 0.0520
vn 0.6735 0.7374 0.0513
vn 0.6760 0.7352 0.0503
vn -0.6485 0.4787 0.5919
vn -0.5904 -0.3378 0.7330
vn 0.9016 -0.4092 0.1404
vn 0.8106 -0.3206 -0.4900
vn 0.3099 -0.2831 -0.9077
vn -0.3408 -0.3286 -0.8808
vn -0.8162 -0.3630 -0.4496
vn -0.9403 -0.2854 0.1853
vn 0.0480 0.5277 0.8481
vn 0.6045 -0.3953 0.6917
vn 0.0193 -0.2823 0.9591
vn -0.0680 0.7378 0.6716
vn 0.5645 0.6643 0.4900
vn 0.6948 0.7165 -0.0623
vn 0.5929 0.7502 -0.2929
vn 0.0179 0.8093 -0.5871
vn -0.0998 0.7672 -0.6335
vn -0.4280 0.8774 -0.2167
vn -0.6038 0.7941 0.0688
vn -0.3723 0.8555 0.3597
vn -0.2162 0.9653 0.1467
vn 0.3232 0.9446 -0.0578
vn 0.1489 0.9764 -0.1565
vn -0.0480 0.9820 -0.1827
vn 0.0487 0.9773 -0.2061
vn -0.1306 0.9881 -0.0813
vn 0.4054 0.7214 0.5614
vn -0.7923 0.5820 0.1829
vn -0.7046 0.5841 -0.4029
vn -0.2400 0.6880 -0.6849
vn 0.2518 0.7154 -0.6517
vn 0.6306 0.6443 -0.4327
vn 0.6712 0.7394 0.0522
vn -0.5199 0.6186 0.5891
vt 0.777196 0.461370
vt 0.775820 0.467812
vt 0.775820 0.461370
vt 0.774444 0.461370
vt 0.774444 0.467812
vt 0.773068 0.461370
vt 0.773068 0.467812
vt 0.771692 0.461370
vt 0.771692 0.467812
vt 0.770316 0.461370
vt 0.770316 0.467812
vt 0.768941 0.461370
vt 0.767565 0.467812
vt 0.767565 0.461370
vt 0.764813 0.467812
vt 0.766189 0.467812
vt 0.766189 0.461370
vt 0.764813 0.461370
vt 0.776010 0.460518
vt 0.773084 0.455244
vt 0.771173 0.458686
vt 0.767909 0.461242
vt 0.766892 0.455244
vt 0.770482 0.456604
vt 0.768941 0.467812
vt 0.777196 0.467812
vt 0.871773 0.472247
vt 0.871242 0.472247
vt 0.871242 0.473973
vt 0.872304 0.461890
vt 0.871242 0.461890
vt 0.871242 0.463616
vt 0.871242 0.465342
vt 0.871242 0.467068
vt 0.871773 0.468795
vt 0.871242 0.471384
vt 0.872304 0.472247
vt 0.872304 0.470521
vt 0.873366 0.475699
vt 0.872304 0.475699
vt 0.872304 0.465342
vt 0.873366 0.461890
vt 0.872304 0.468795
vt 0.873366 0.465342
vt 0.873366 0.472247
vt 0.874428 0.472247
vt 0.874428 0.461890
vt 0.873366 0.468795
vt 0.874428 0.465342
vt 0.874428 0.468795
vt 0.875490 0.475699
vt 0.874428 0.475699
vt 0.875490 0.465342
vt 0.875490 0.468795
vt 0.876553 0.475699
vt 0.875490 0.472247
vt 0.876553 0.465342
vt 0.875490 0.461890
vt 0.876553 0.468795
vt 0.877615 0.475699
vt 0.876553 0.472247
vt 0.877615 0.465342
vt 0.876553 0.461890
vt 0.877615 0.468795
vt 0.878677 0.472247
vt 0.877615 0.472247
vt 0.878677 0.465342
vt 0.877615 0.461890
vt 0.878677 0.468795
vt 0.878677 0.475699
vt 0.879739 0.472247
vt 0.879739 0.465342
vt 0.878677 0.461890
vt 0.879739 0.468795
vt 0.879739 0.475699
vt 0.880801 0.472247
vt 0.880801 0.465342
vt 0.879739 0.461890
vt 0.880801 0.468795
vt 0.880801 0.475699
vt 0.881864 0.472247
vt 0.881864 0.465342
vt 0.880801 0.461890
vt 0.881864 0.468795
vt 0.881864 0.475699
vt 0.882926 0.472247
vt 0.882926 0.465342
vt 0.881864 0.461890
vt 0.882926 0.468795
vt 0.882926 0.475699
vt 0.883988 0.472247
vt 0.883988 0.465342
vt 0.882926 0.461890
vt 0.883988 0.468795
vt 0.885050 0.475699
vt 0.885050 0.473973
vt 0.885050 0.472247
vt 0.885050 0.465342
vt 0.885050 0.463616
vt 0.885050 0.461890
vt 0.885050 0.468795
vt 0.885050 0.470521
vt 0.885050 0.467068
vt 0.871242 0.470521
vt 0.871242 0.469658
vt 0.871242 0.475699
vt 0.871242 0.468795
vt 0.883988 0.475699
vt 0.883988 0.461890
vt 0.801359 0.398296
vt 0.802879 0.401178
vt 0.801359 0.401178
vt 0.792240 0.401178
vt 0.793760 0.398296
vt 0.793760 0.401178
vt 0.795280 0.398296
vt 0.795280 0.401178
vt 0.796800 0.401178
vt 0.796800 0.398296
vt 0.798319 0.401178
vt 0.798319 0.398296
vt 0.799839 0.401178
vt 0.799839 0.398296
vt 0.802692 0.407985
vt 0.800582 0.411640
vt 0.796616 0.410196
vt 0.789201 0.401178
vt 0.790720 0.404061
vt 0.789201 0.404061
vt 0.790720 0.398296
vt 0.790720 0.401178
vt 0.789201 0.398296
vt 0.790510 0.406040
vt 0.792620 0.406868
vt 0.792620 0.405272
vt 0.790959 0.408262
vt 0.791536 0.407263
vt 0.789777 0.410196
vt 0.789387 0.407985
vt 0.792043 0.410140
vt 0.791159 0.409398
vt 0.793743 0.411640
vt 0.791497 0.411640
vt 0.795463 0.410196
vt 0.793197 0.410140
vt 0.795853 0.407985
vt 0.794081 0.409398
vt 0.794730 0.406040
vt 0.794282 0.408262
vt 0.793705 0.407263
vt 0.792240 0.404061
vt 0.799839 0.404061
vt 0.801359 0.404061
vt 0.798319 0.404061
vt 0.796800 0.404061
vt 0.795280 0.404061
vt 0.793760 0.404061
vt 0.802879 0.404061
vt 0.802879 0.398296
vt 0.792240 0.398296
vt 0.796226 0.407985
vt 0.797349 0.406040
vt 0.799459 0.405272
vt 0.801569 0.406040
vt 0.802302 0.410196
vt 0.798336 0.411640
vt 0.772190 0.460518
vt 0.774100 0.461242
vt 0.777027 0.458686
vt 0.776674 0.456604
vt 0.775117 0.455244
vt 0.771526 0.456604
vt 0.770835 0.458686
vt 0.769819 0.460518
vt 0.765999 0.460518
vt 0.764982 0.458686
vt 0.765335 0.456604
vt 0.768925 0.455244
s 1
usemtl Material.011
f 1/1/1 4/2/1 3/3/1
f 4/2/2 5/4/2 3/3/2
f 6/5/3 7/6/3 5/4/3
f 8/7/4 9/8/4 7/6/4
f 10/9/5 11/10/5 9/8/5
f 12/11/6 13/12/6 11/10/6
f 13/12/7 16/13/7 15/14/7
f 2/15/8 27/16/8 20/15/8
f 15/14/9 18/16/9 17/17/9
f 17/17/10 2/15/10 1/18/10
f 3/19/11 11/20/11 15/21/11
f 20/22/12 24/23/12 22/24/12
f 18/16/13 26/13/13 27/16/13
f 14/25/14 26/13/14 16/13/14
f 12/11/15 25/25/15 14/25/15
f 10/9/16 24/11/16 12/11/16
f 8/7/17 23/9/17 10/9/17
f 2/26/18 19/2/18 4/2/18
f 6/5/19 22/7/19 8/7/19
f 6/5/20 19/2/20 21/5/20
f 96/27/21 31/28/22 86/29/23
f 32/30/24 28/31/25 84/32/26
f 29/33/27 85/34/28 94/35/29
f 95/36/30 35/37/31 97/38/32
f 36/39/33 35/37/31 32/40/24
f 33/41/34 36/42/33 32/30/24
f 34/43/35 37/44/36 33/41/34
f 97/38/32 35/37/31 39/45/37
f 36/39/33 43/46/38 39/45/37
f 37/44/36 40/47/39 36/42/33
f 38/48/40 41/49/41 37/44/36
f 39/45/37 42/50/42 38/48/40
f 44/51/43 43/46/38 40/52/39
f 45/53/44 40/47/39 41/49/41
f 42/50/42 45/53/44 41/49/41
f 43/46/38 46/54/45 42/50/42
f 48/55/46 47/56/47 44/51/43
f 49/57/48 44/58/43 45/53/44
f 46/54/45 49/57/48 45/53/44
f 47/56/47 50/59/49 46/54/45
f 52/60/50 51/61/51 48/55/46
f 53/62/52 48/63/46 49/57/48
f 50/59/49 53/62/52 49/57/48
f 51/61/51 54/64/53 50/59/49
f 52/60/50 59/65/54 55/66/55
f 57/67/56 52/68/50 53/62/52
f 58/69/57 53/62/52 54/64/53
f 55/66/55 58/69/57 54/64/53
f 56/70/58 63/71/59 59/65/54
f 61/72/60 56/73/58 57/67/56
f 62/74/61 57/67/56 58/69/57
f 59/65/54 62/74/61 58/69/57
f 60/75/62 67/76/63 63/71/59
f 65/77/64 60/78/62 61/72/60
f 66/79/65 61/72/60 62/74/61
f 63/71/59 66/79/65 62/74/61
f 64/80/66 71/81/67 67/76/63
f 69/82/68 64/83/66 65/77/64
f 70/84/69 65/77/64 66/79/65
f 67/76/63 70/84/69 66/79/65
f 68/85/70 75/86/71 71/81/67
f 73/87/72 68/88/70 69/82/68
f 74/89/73 69/82/68 70/84/69
f 71/81/67 74/89/73 70/84/69
f 72/90/74 79/91/75 75/86/71
f 77/92/76 72/93/74 73/87/72
f 78/94/77 73/87/72 74/89/73
f 75/86/71 78/94/77 74/89/73
f 80/95/78 89/96/79 83/97/80
f 81/98/81 90/99/82 80/100/78
f 82/101/83 81/98/81 77/92/76
f 83/97/80 82/101/83 78/94/77
f 92/102/84 89/103/79 93/103/85
f 87/104/86 85/34/28 88/34/87
f 88/34/87 29/33/27 84/32/26
f 86/34/23 84/32/26 28/31/25
f 31/28/22 88/34/87 86/34/23
f 98/105/88 85/34/28 87/104/86
f 88/34/87 85/34/28 29/33/27
f 86/34/23 88/34/87 84/32/26
f 95/36/30 88/34/87 31/28/22
f 93/103/85 80/100/78 90/99/82
f 91/103/89 90/99/82 81/98/81
f 82/101/83 93/103/85 91/103/89
f 92/102/84 83/97/80 89/103/79
f 93/103/85 89/103/79 80/100/78
f 91/103/89 93/103/85 90/99/82
f 82/101/83 92/102/84 93/103/85
f 86/29/23 28/106/25 32/40/24
f 32/40/24 35/37/31 86/29/23
f 35/37/31 96/27/21 86/29/23
f 84/32/26 29/33/27 32/30/24
f 29/33/27 33/41/34 32/30/24
f 85/34/28 30/107/90 94/35/29
f 94/35/29 34/43/35 33/41/34
f 33/41/34 29/33/27 94/35/29
f 95/36/30 31/28/22 96/27/21
f 95/36/30 96/27/21 35/37/31
f 98/105/88 87/104/86 97/38/32
f 87/104/86 95/36/30 97/38/32
f 94/35/29 30/107/90 97/38/32
f 30/107/90 98/105/88 97/38/32
f 97/38/32 34/43/35 94/35/29
f 36/39/33 39/45/37 35/37/31
f 33/41/34 37/44/36 36/42/33
f 34/43/35 38/48/40 37/44/36
f 39/45/37 38/48/40 97/38/32
f 38/48/40 34/43/35 97/38/32
f 36/39/33 40/52/39 43/46/38
f 37/44/36 41/49/41 40/47/39
f 38/48/40 42/50/42 41/49/41
f 39/45/37 43/46/38 42/50/42
f 44/51/43 47/56/47 43/46/38
f 45/53/44 44/58/43 40/47/39
f 42/50/42 46/54/45 45/53/44
f 43/46/38 47/56/47 46/54/45
f 48/55/46 51/61/51 47/56/47
f 49/57/48 48/63/46 44/58/43
f 46/54/45 50/59/49 49/57/48
f 47/56/47 51/61/51 50/59/49
f 52/60/50 55/66/55 51/61/51
f 53/62/52 52/68/50 48/63/46
f 50/59/49 54/64/53 53/62/52
f 51/61/51 55/66/55 54/64/53
f 52/60/50 56/70/58 59/65/54
f 57/67/56 56/73/58 52/68/50
f 58/69/57 57/67/56 53/62/52
f 55/66/55 59/65/54 58/69/57
f 56/70/58 60/75/62 63/71/59
f 61/72/60 60/78/62 56/73/58
f 62/74/61 61/72/60 57/67/56
f 59/65/54 63/71/59 62/74/61
f 60/75/62 64/80/66 67/76/63
f 65/77/64 64/83/66 60/78/62
f 66/79/65 65/77/64 61/72/60
f 63/71/59 67/76/63 66/79/65
f 64/80/66 68/85/70 71/81/67
f 69/82/68 68/88/70 64/83/66
f 70/84/69 69/82/68 65/77/64
f 67/76/63 71/81/67 70/84/69
f 68/85/70 72/90/74 75/86/71
f 73/87/72 72/93/74 68/88/70
f 74/89/73 73/87/72 69/82/68
f 71/81/67 75/86/71 74/89/73
f 72/90/74 76/108/91 79/91/75
f 77/92/76 76/109/91 72/93/74
f 78/94/77 77/92/76 73/87/72
f 75/86/71 79/91/75 78/94/77
f 79/91/75 76/108/91 83/97/80
f 76/108/91 80/95/78 83/97/80
f 76/109/91 77/92/76 80/100/78
f 77/92/76 81/98/81 80/100/78
f 77/92/76 78/94/77 82/101/83
f 82/101/83 91/103/89 81/98/81
f 78/94/77 79/91/75 83/97/80
f 83/97/80 92/102/84 82/101/83
f 98/105/88 30/107/90 85/34/28
f 95/36/30 87/104/86 88/34/87
f 116/110/92 115/111/92 111/112/92
f 109/113/93 106/114/93 107/115/93
f 107/115/94 108/116/94 105/117/94
f 108/116/95 103/118/95 105/117/95
f 110/119/96 101/120/96 103/118/96
f 112/121/97 99/122/97 101/120/97
f 114/123/98 111/112/98 99/122/98
f 114/124/11 110/125/11 106/126/11
f 115/127/99 120/128/100 118/129/101
f 102/130/102 109/113/102 113/131/102
f 100/132/103 113/131/103 115/127/103
f 120/133/104 117/134/104 118/135/104
f 120/133/105 121/136/105 119/137/105
f 124/138/106 121/136/106 122/139/106
f 124/138/107 125/140/107 123/141/107
f 128/142/108 125/140/108 126/143/108
f 130/144/109 127/145/109 128/142/109
f 132/146/110 129/147/110 130/144/110
f 134/148/111 131/149/111 132/146/111
f 118/135/112 133/150/112 134/148/112
f 131/149/113 133/150/113 119/137/113
f 113/131/114 122/151/114 120/128/114
f 132/152/115 111/112/115 134/153/115
f 101/120/116 132/152/116 130/154/116
f 103/118/117 130/154/117 128/155/117
f 105/117/118 128/155/118 126/156/118
f 107/115/119 126/156/120 124/157/121
f 109/113/122 124/157/123 122/151/124
f 134/153/125 115/111/125 118/158/125
f 116/110/126 100/159/126 115/111/126
f 109/113/127 104/160/127 106/114/127
f 107/115/128 106/114/128 108/116/128
f 108/116/129 110/119/129 103/118/129
f 110/119/130 112/121/130 101/120/130
f 112/121/131 114/123/131 99/122/131
f 114/123/132 116/110/132 111/112/132
f 104/161/11 102/162/11 100/163/11
f 100/163/11 116/164/11 114/124/11
f 114/124/11 112/165/11 110/125/11
f 110/125/11 108/166/11 106/126/11
f 106/126/11 104/161/11 100/163/11
f 100/163/11 114/124/11 106/126/11
f 115/127/99 113/131/133 120/128/100
f 102/130/134 104/160/134 109/113/134
f 100/132/135 102/130/135 113/131/135
f 120/133/136 119/137/136 117/134/136
f 120/133/137 122/139/137 121/136/137
f 124/138/138 123/141/138 121/136/138
f 124/138/121 126/143/120 125/140/139
f 128/142/140 127/145/140 125/140/140
f 130/144/141 129/147/141 127/145/141
f 132/146/142 131/149/142 129/147/142
f 134/148/143 133/150/143 131/149/143
f 118/135/144 117/134/144 133/150/144
f 133/150/145 117/134/145 119/137/145
f 119/137/146 121/136/146 123/141/146
f 123/141/147 125/140/147 119/137/147
f 125/140/148 127/145/148 119/137/148
f 127/145/149 129/147/149 119/137/149
f 129/147/150 131/149/150 119/137/150
f 113/131/151 109/113/151 122/151/151
f 132/152/152 99/122/152 111/112/152
f 101/120/153 99/122/153 132/152/153
f 103/118/154 101/120/154 130/154/154
f 105/117/155 103/118/155 128/155/155
f 107/115/156 105/117/156 126/156/156
f 109/113/122 107/115/157 124/157/123
f 134/153/158 111/112/158 115/111/158
f 1/1/1 2/26/1 4/2/1
f 4/2/2 6/5/2 5/4/2
f 6/5/3 8/7/3 7/6/3
f 8/7/4 10/9/4 9/8/4
f 10/9/5 12/11/5 11/10/5
f 12/11/6 14/25/6 13/12/6
f 13/12/7 14/25/7 16/13/7
f 2/15/8 18/16/8 27/16/8
f 15/14/9 16/13/9 18/16/9
f 17/17/10 18/16/10 2/15/10
f 17/167/11 1/168/11 3/19/11
f 3/19/11 5/169/11 7/170/11
f 7/170/11 9/171/11 11/20/11
f 11/20/11 13/172/11 15/21/11
f 15/21/11 17/167/11 3/19/11
f 3/19/11 7/170/11 11/20/11
f 21/173/12 19/174/12 20/22/12
f 20/22/12 27/175/12 26/176/12
f 26/176/12 25/177/12 24/23/12
f 24/23/12 23/178/12 22/24/12
f 22/24/12 21/173/12 20/22/12
f 20/22/12 26/176/12 24/23/12
f 18/16/13 16/13/13 26/13/13
f 14/25/14 25/25/14 26/13/14
f 12/11/15 24/11/15 25/25/15
f 10/9/16 23/9/16 24/11/16
f 8/7/17 22/7/17 23/9/17
f 2/26/18 20/26/18 19/2/18
f 6/5/19 21/5/19 22/7/19
f 6/5/20 4/2/20 19/2/20
