# Blender 4.0.2
# www.blender.org
mtllib egg.mtl
g Sphere.001_Mesh
v -0.000197 0.024988 -0.027394
v 0.000000 -0.016271 -0.030635
v 0.000000 -0.026741 -0.023447
v -0.001777 -0.035523 -0.003690
v 0.004823 0.040520 -0.010015
v 0.018332 0.030066 -0.014619
v 0.023951 0.016271 -0.019101
v 0.025925 -0.000000 -0.020674
v 0.023951 -0.016271 -0.019101
v 0.018332 -0.026741 -0.014619
v 0.012371 0.039283 0.002824
v 0.022859 0.030066 0.005217
v 0.032208 0.007648 0.007605
v 0.029867 -0.016271 0.006817
v 0.022859 -0.026741 0.005217
v 0.008354 -0.034039 -0.002876
v 0.010173 0.030066 0.021125
v 0.014427 0.009436 0.029470
v 0.013292 -0.016271 0.027601
v 0.010173 -0.026741 0.021125
v 0.000945 -0.034039 0.008785
v 0.002342 0.042494 0.006557
v -0.009563 0.040612 0.006125
v -0.011709 0.024988 0.024767
v -0.014387 0.000000 0.029875
v -0.013292 -0.016271 0.027601
v -0.010173 -0.026741 0.021125
v -0.022859 0.030066 0.005217
v -0.032438 0.007019 0.007404
v -0.029867 -0.016271 0.006817
v -0.021396 -0.028271 0.004658
v -0.009921 0.039283 -0.007912
v -0.018332 0.030066 -0.014619
v -0.023951 0.016271 -0.019101
v -0.025925 -0.000000 -0.020674
v -0.023951 -0.016271 -0.019101
v -0.018332 -0.026741 -0.014619
v 0.000000 -0.000000 -0.033159
vn 0.3690 -0.5261 -0.7662
vn 0.4297 0.1384 -0.8923
vn 0.2869 0.6716 -0.6831
vn 0.1640 -0.9068 -0.3883
vn 0.4297 -0.1384 -0.8923
vn 0.8291 -0.5261 -0.1892
vn 0.6718 0.7246 -0.1533
vn 0.9655 -0.1384 -0.2204
vn 0.9164 0.3645 -0.1656
vn 0.2797 0.9574 -0.0722
vn 0.3400 -0.9153 0.2160
vn 0.7782 -0.0966 0.6206
vn 0.7360 0.3675 0.5685
vn 0.1375 -0.9866 0.0874
vn 0.6649 -0.5261 0.5302
vn 0.5388 0.7246 0.4297
vn -0.0000 -0.1384 0.9904
vn 0.0638 0.3855 0.9205
vn -0.0000 -0.5261 0.8504
vn -0.0614 0.7428 0.6667
vn -0.2760 -0.9455 0.1727
vn -0.6612 -0.5571 0.5024
vn -0.5611 0.6650 0.4928
vn -0.2883 -0.9152 0.2815
vn -0.7778 -0.1015 0.6203
vn -0.7635 0.3677 0.5310
vn -0.6095 0.7805 -0.1391
vn -0.3935 -0.9094 -0.1348
vn -0.9699 -0.1015 -0.2214
vn -0.9161 0.3650 -0.1659
vn -0.1524 0.9843 -0.0893
vn -0.8346 -0.5226 -0.1742
vn -0.4297 -0.1384 -0.8923
vn -0.4347 0.4335 -0.7894
vn -0.1017 0.9859 -0.1326
vn -0.3690 -0.5261 -0.7662
vn -0.4297 0.1384 -0.8923
vn -0.2601 0.7120 -0.6522
vn 0.4285 0.4323 -0.7934
vn 0.3846 0.2104 -0.8988
vn 0.1908 -0.8982 -0.3961
vn 0.9578 0.1404 -0.2508
vn 0.5414 0.8056 -0.2407
vn 0.4963 -0.8607 -0.1133
vn 0.9771 -0.0893 -0.1930
vn 0.8825 0.4250 -0.2014
vn 0.3437 -0.8982 0.2741
vn 0.7701 -0.0800 0.6328
vn 0.7225 0.3821 0.5762
vn 0.4196 0.7895 0.4480
vn 0.0383 -0.0741 0.9965
vn -0.0535 0.2055 0.9772
vn -0.1439 0.7665 0.6259
vn -0.0000 -0.8607 0.5090
vn -0.6649 -0.5261 0.5302
vn -0.7287 0.2113 0.6514
vn -0.7927 -0.1364 0.5942
vn -0.9561 0.1408 -0.2570
vn -0.7206 0.6918 -0.0471
vn -0.9720 -0.1364 -0.1914
vn -0.8825 0.4250 -0.2014
vn -0.8181 -0.5439 -0.1867
vn -0.1989 -0.8888 -0.4129
vn -0.3886 0.2042 -0.8985
vn -0.1540 0.7584 -0.6333
vt 0.504102 0.712145
vt 0.501367 0.709752
vt 0.504102 0.709752
vt 0.504102 0.714538
vt 0.501367 0.716930
vt 0.501367 0.714538
vt 0.502735 0.721716
vt 0.501367 0.719323
vt 0.504102 0.718309
vt 0.500235 0.707360
vt 0.506961 0.706054
vt 0.501367 0.712145
vt 0.498633 0.709752
vt 0.498633 0.721716
vt 0.498633 0.719323
vt 0.498633 0.712145
vt 0.498633 0.715622
vt 0.500000 0.724108
vt 0.494766 0.707360
vt 0.495898 0.712145
vt 0.495898 0.715885
vt 0.497266 0.704967
vt 0.495898 0.709752
vt 0.495898 0.719323
vt 0.493164 0.714538
vt 0.493164 0.712145
vt 0.493164 0.718309
vt 0.493164 0.709752
vt 0.495249 0.722852
vt 0.491796 0.704967
vt 0.490429 0.709363
vt 0.490429 0.712145
vt 0.491505 0.721716
vt 0.490429 0.719323
vt 0.490429 0.715526
vt 0.509571 0.721716
vt 0.506836 0.719323
vt 0.509571 0.719323
vt 0.509571 0.709363
vt 0.506836 0.709752
vt 0.509571 0.715526
vt 0.506836 0.712145
vt 0.509571 0.712145
vt 0.506836 0.716930
vt 0.508204 0.724108
vt 0.506836 0.721716
vt 0.506836 0.714538
vt 0.505469 0.724108
s 1
usemtl Material.015
f 2/1/1 10/2/1 3/3/1
f 38/4/2 7/5/2 8/6/2
f 5/7/3 6/8/3 1/9/3
f 3/3/4 16/10/4 4/11/4
f 38/4/5 9/12/5 2/1/5
f 9/12/6 15/13/6 10/2/6
f 6/8/7 11/14/7 12/15/7
f 8/6/8 14/16/8 9/12/8
f 7/5/9 12/15/9 13/17/9
f 5/7/10 22/18/10 11/14/10
f 15/13/11 21/19/11 16/10/11
f 13/17/12 19/20/12 14/16/12
f 12/15/13 18/21/13 13/17/13
f 4/22/14 16/10/14 21/19/14
f 14/16/15 20/23/15 15/13/15
f 11/14/16 17/24/16 12/15/16
f 19/20/17 25/25/17 26/26/17
f 17/24/18 24/27/18 18/21/18
f 19/20/19 27/28/19 20/23/19
f 22/29/20 24/27/20 17/24/20
f 4/30/21 21/19/21 31/31/21
f 27/28/22 30/32/22 31/31/22
f 23/33/23 28/34/23 24/27/23
f 27/28/24 31/31/24 21/19/24
f 26/26/25 29/35/25 30/32/25
f 24/27/26 28/34/26 29/35/26
f 23/36/27 33/37/27 28/38/27
f 31/39/28 37/40/28 4/11/28
f 29/41/29 36/42/29 30/43/29
f 28/38/30 34/44/30 29/41/30
f 23/36/31 22/45/31 32/46/31
f 31/39/32 36/42/32 37/40/32
f 35/47/33 2/1/33 36/42/33
f 33/37/34 1/9/34 34/44/34
f 32/46/35 22/48/35 5/7/35
f 36/42/36 3/3/36 37/40/36
f 34/44/37 38/4/37 35/47/37
f 32/46/38 1/9/38 33/37/38
f 1/9/39 6/8/39 7/5/39
f 2/1/1 9/12/1 10/2/1
f 38/4/40 1/9/40 7/5/40
f 3/3/41 10/2/41 16/10/41
f 38/4/5 8/6/5 9/12/5
f 9/12/6 14/16/6 15/13/6
f 8/6/42 7/5/42 13/17/42
f 6/8/43 5/7/43 11/14/43
f 10/2/44 15/13/44 16/10/44
f 8/6/45 13/17/45 14/16/45
f 7/5/46 6/8/46 12/15/46
f 15/13/47 20/23/47 21/19/47
f 13/17/48 18/21/48 19/20/48
f 12/15/49 17/24/49 18/21/49
f 14/16/15 19/20/15 20/23/15
f 11/14/50 22/29/50 17/24/50
f 19/20/51 18/21/51 25/25/51
f 19/20/19 26/26/19 27/28/19
f 18/21/52 24/27/52 25/25/52
f 22/29/53 23/33/53 24/27/53
f 21/19/54 20/23/54 27/28/54
f 27/28/55 26/26/55 30/32/55
f 25/25/56 24/27/56 29/35/56
f 26/26/57 25/25/57 29/35/57
f 29/41/58 34/44/58 35/47/58
f 23/36/59 32/46/59 33/37/59
f 29/41/60 35/47/60 36/42/60
f 28/38/61 33/37/61 34/44/61
f 31/39/62 30/43/62 36/42/62
f 4/11/63 37/40/63 3/3/63
f 35/47/33 38/4/33 2/1/33
f 36/42/36 2/1/36 3/3/36
f 34/44/64 1/9/64 38/4/64
f 32/46/65 5/7/65 1/9/65
