# Blender 4.0.2
# www.blender.org
mtllib ketchup.mtl
g Cylinder_Mesh
v 0.000000 -0.087043 -0.037519
v 0.000000 0.087043 -0.030257
v 0.022053 -0.087043 -0.030353
v 0.017785 0.087043 -0.024479
v 0.035682 -0.087043 -0.011594
v 0.028776 0.087043 -0.009350
v 0.035682 -0.087043 0.011594
v 0.028776 0.087043 0.009350
v 0.022053 -0.087043 0.030353
v 0.017785 0.087043 0.024479
v 0.000000 -0.087043 0.037519
v 0.000000 0.087043 0.030257
v -0.022053 -0.087043 0.030353
v -0.017785 0.087043 0.024479
v -0.035682 -0.087043 0.011594
v -0.028776 0.087043 0.009350
v -0.035682 -0.087043 -0.011594
v -0.028776 0.087043 -0.009350
v -0.022053 -0.087043 -0.030353
v -0.017785 0.087043 -0.024479
v 0.022053 0.087043 -0.030353
v 0.000000 0.087043 -0.037519
v 0.035682 0.087043 -0.011594
v 0.035682 0.087043 0.011594
v 0.022053 0.087043 0.030353
v 0.000000 0.087043 0.037519
v -0.022053 0.087043 0.030353
v -0.035682 0.087043 0.011594
v -0.035682 0.087043 -0.011594
v -0.022053 0.087043 -0.030353
v 0.006176 0.099978 -0.008501
v 0.000000 0.099978 -0.010507
v 0.009993 0.099978 -0.003247
v 0.009993 0.099978 0.003247
v 0.006176 0.099978 0.008501
v 0.000000 0.099978 0.010507
v -0.006176 0.099978 0.008501
v -0.009993 0.099978 0.003247
v -0.009993 0.099978 -0.003247
v -0.006176 0.099978 -0.008501
v 0.017785 0.099978 -0.024479
v 0.000000 0.099978 -0.030257
v 0.028776 0.099978 -0.009350
v 0.028776 0.099978 0.009350
v 0.017785 0.099978 0.024479
v 0.000000 0.099978 0.030257
v -0.017785 0.099978 0.024479
v -0.028776 0.099978 0.009350
v -0.028776 0.099978 -0.009350
v -0.017785 0.099978 -0.024479
v 0.002397 0.144489 -0.003299
v -0.000000 0.144489 -0.004078
v 0.003878 0.144489 -0.001260
v 0.003878 0.144489 0.001260
v 0.002397 0.144489 0.003299
v -0.000000 0.144489 0.004078
v -0.002397 0.144489 0.003299
v -0.003878 0.144489 0.001260
v -0.003878 0.144489 -0.001260
v -0.002397 0.144489 -0.003299
vn 0.3090 -0.0000 -0.9511
vn 0.8090 -0.0000 -0.5878
vn 1.0000 -0.0000 -0.0000
vn 0.8090 -0.0000 0.5878
vn 0.3090 -0.0000 0.9511
vn -0.3090 -0.0000 0.9511
vn -0.8090 -0.0000 0.5878
vn -1.0000 -0.0000 -0.0000
vn -0.8090 -0.0000 -0.5878
vn -0.3090 -0.0000 -0.9511
vn -0.0000 -1.0000 -0.0000
vn -0.0000 1.0000 -0.0000
vn 0.8015 0.1361 -0.5823
vn -0.8015 0.1361 -0.5823
vn -0.3061 0.1361 0.9422
vn 0.9907 0.1361 -0.0000
vn -0.3061 0.1361 -0.9422
vn -0.8015 0.1361 0.5823
vn 0.8015 0.1361 0.5823
vn 0.3061 0.1361 -0.9422
vn -0.9907 0.1361 -0.0000
vn 0.3061 0.1361 0.9422
vt 0.172222 0.215555
vt 0.173171 0.220297
vt 0.172222 0.220297
vt 0.173171 0.215555
vt 0.174119 0.220297
vt 0.174119 0.215555
vt 0.175068 0.220297
vt 0.175068 0.215555
vt 0.176016 0.220297
vt 0.176016 0.215555
vt 0.176965 0.220297
vt 0.176965 0.215555
vt 0.177914 0.220297
vt 0.177914 0.215555
vt 0.178862 0.220297
vt 0.178862 0.215555
vt 0.179811 0.220297
vt 0.180416 0.221184
vt 0.181083 0.222102
vt 0.179811 0.215555
vt 0.180759 0.220297
vt 0.180759 0.215555
vt 0.181708 0.220297
vt 0.172429 0.223372
vt 0.176759 0.223372
vt 0.175932 0.220827
vt 0.179336 0.220833
vt 0.177998 0.220827
vt 0.179336 0.220392
vt 0.177590 0.222102
vt 0.178257 0.221184
vt 0.177590 0.223236
vt 0.177171 0.221965
vt 0.178257 0.224154
vt 0.177171 0.223372
vt 0.179336 0.224505
vt 0.177998 0.224511
vt 0.180675 0.224511
vt 0.179336 0.224945
vt 0.181083 0.223236
vt 0.180416 0.224154
vt 0.181502 0.223372
vt 0.181502 0.221965
vt 0.180675 0.220827
vt 0.178812 0.221947
vt 0.178488 0.222393
vt 0.179336 0.221777
vt 0.178488 0.222945
vt 0.178812 0.223391
vt 0.179336 0.223561
vt 0.179861 0.223391
vt 0.180185 0.222945
vt 0.179861 0.221947
vt 0.180185 0.222393
vt 0.181708 0.215555
vt 0.174594 0.220392
vt 0.173256 0.220827
vt 0.172429 0.221965
vt 0.173256 0.224511
vt 0.174594 0.224945
vt 0.175932 0.224511
vt 0.176759 0.221965
s 1
usemtl Material.023
f 22/1/1 3/2/1 1/3/1
f 21/4/2 5/5/2 3/2/2
f 23/6/3 7/7/3 5/5/3
f 24/8/4 9/9/4 7/7/4
f 25/10/5 11/11/5 9/9/5
f 26/12/6 13/13/6 11/11/6
f 27/14/7 15/15/7 13/13/7
f 28/16/8 17/17/8 15/15/8
f 20/18/9 49/19/9 50/18/9
f 29/20/9 19/21/9 17/17/9
f 30/22/10 1/23/10 19/21/10
f 7/24/11 15/25/11 19/26/11
f 2/27/12 21/28/12 22/29/12
f 6/30/12 21/28/12 4/31/12
f 8/32/12 23/33/12 6/30/12
f 10/34/12 24/35/12 8/32/12
f 12/36/12 25/37/12 10/34/12
f 12/36/12 27/38/12 26/39/12
f 16/40/12 27/38/12 14/41/12
f 18/19/12 28/42/12 16/40/12
f 20/18/12 29/43/12 18/19/12
f 2/27/12 30/44/12 20/18/12
f 31/45/13 53/46/13 33/46/13
f 12/36/6 47/41/6 14/41/6
f 6/30/3 44/32/3 8/32/3
f 20/18/10 42/27/10 2/27/10
f 14/41/7 48/40/7 16/40/7
f 8/32/4 45/34/4 10/34/4
f 2/27/1 41/31/1 4/31/1
f 16/40/8 49/19/8 18/19/8
f 10/34/5 46/36/5 12/36/5
f 4/31/2 43/30/2 6/30/2
f 31/45/12 42/27/12 32/47/12
f 31/45/12 43/30/12 41/31/12
f 34/48/12 43/30/12 33/46/12
f 35/49/12 44/32/12 34/48/12
f 36/50/12 45/34/12 35/49/12
f 37/51/12 46/36/12 36/50/12
f 38/52/12 47/41/12 37/51/12
f 38/52/12 49/19/12 48/40/12
f 40/53/12 49/19/12 39/54/12
f 32/47/12 50/18/12 40/53/12
f 59/54/12 55/49/12 53/46/12
f 39/54/14 60/53/14 40/53/14
f 37/51/15 56/50/15 57/51/15
f 33/46/16 54/48/16 34/48/16
f 40/53/17 52/47/17 32/47/17
f 37/51/18 58/52/18 38/52/18
f 34/48/19 55/49/19 35/49/19
f 31/45/20 52/47/20 51/45/20
f 38/52/21 59/54/21 39/54/21
f 35/49/22 56/50/22 36/50/22
f 22/1/1 21/4/1 3/2/1
f 21/4/2 23/6/2 5/5/2
f 23/6/3 24/8/3 7/7/3
f 24/8/4 25/10/4 9/9/4
f 25/10/5 26/12/5 11/11/5
f 26/12/6 27/14/6 13/13/6
f 27/14/7 28/16/7 15/15/7
f 28/16/8 29/20/8 17/17/8
f 20/18/9 18/19/9 49/19/9
f 29/20/9 30/22/9 19/21/9
f 30/22/10 22/55/10 1/23/10
f 19/26/11 1/56/11 3/57/11
f 3/57/11 5/58/11 7/24/11
f 7/24/11 9/59/11 11/60/11
f 11/60/11 13/61/11 15/25/11
f 15/25/11 17/62/11 19/26/11
f 19/26/11 3/57/11 7/24/11
f 7/24/11 11/60/11 15/25/11
f 2/27/12 4/31/12 21/28/12
f 6/30/12 23/33/12 21/28/12
f 8/32/12 24/35/12 23/33/12
f 10/34/12 25/37/12 24/35/12
f 12/36/12 26/39/12 25/37/12
f 12/36/12 14/41/12 27/38/12
f 16/40/12 28/42/12 27/38/12
f 18/19/12 29/43/12 28/42/12
f 20/18/12 30/44/12 29/43/12
f 2/27/12 22/29/12 30/44/12
f 31/45/13 51/45/13 53/46/13
f 12/36/6 46/36/6 47/41/6
f 6/30/3 43/30/3 44/32/3
f 20/18/10 50/18/10 42/27/10
f 14/41/7 47/41/7 48/40/7
f 8/32/4 44/32/4 45/34/4
f 2/27/1 42/27/1 41/31/1
f 16/40/8 48/40/8 49/19/8
f 10/34/5 45/34/5 46/36/5
f 4/31/2 41/31/2 43/30/2
f 31/45/12 41/31/12 42/27/12
f 31/45/12 33/46/12 43/30/12
f 34/48/12 44/32/12 43/30/12
f 35/49/12 45/34/12 44/32/12
f 36/50/12 46/36/12 45/34/12
f 37/51/12 47/41/12 46/36/12
f 38/52/12 48/40/12 47/41/12
f 38/52/12 39/54/12 49/19/12
f 40/53/12 50/18/12 49/19/12
f 32/47/12 42/27/12 50/18/12
f 53/46/12 51/45/12 52/47/12
f 52/47/12 60/53/12 59/54/12
f 59/54/12 58/52/12 57/51/12
f 57/51/12 56/50/12 55/49/12
f 55/49/12 54/48/12 53/46/12
f 53/46/12 52/47/12 59/54/12
f 59/54/12 57/51/12 55/49/12
f 39/54/14 59/54/14 60/53/14
f 37/51/15 36/50/15 56/50/15
f 33/46/16 53/46/16 54/48/16
f 40/53/17 60/53/17 52/47/17
f 37/51/18 57/51/18 58/52/18
f 34/48/19 54/48/19 55/49/19
f 31/45/20 32/47/20 52/47/20
f 38/52/21 58/52/21 59/54/21
f 35/49/22 55/49/22 56/50/22
