# Blender 4.0.2
# www.blender.org
mtllib mustard.mtl
g Cylinder_Mesh
v 0.000000 -0.087043 -0.037519
v 0.000000 0.087043 -0.030257
v 0.022053 -0.087043 -0.030353
v 0.017785 0.087043 -0.024479
v 0.035682 -0.087043 -0.011594
v 0.028776 0.087043 -0.009350
v 0.035682 -0.087043 0.011594
v 0.028776 0.087043 0.009350
v 0.022053 -0.087043 0.030353
v 0.017785 0.087043 0.024479
v 0.000000 -0.087043 0.037519
v 0.000000 0.087043 0.030257
v -0.022053 -0.087043 0.030353
v -0.017785 0.087043 0.024479
v -0.035682 -0.087043 0.011594
v -0.028776 0.087043 0.009350
v -0.035682 -0.087043 -0.011594
v -0.028776 0.087043 -0.009350
v -0.022053 -0.087043 -0.030353
v -0.017785 0.087043 -0.024479
v 0.022053 0.087043 -0.030353
v 0.000000 0.087043 -0.037519
v 0.035682 0.087043 -0.011594
v 0.035682 0.087043 0.011594
v 0.022053 0.087043 0.030353
v 0.000000 0.087043 0.037519
v -0.022053 0.087043 0.030353
v -0.035682 0.087043 0.011594
v -0.035682 0.087043 -0.011594
v -0.022053 0.087043 -0.030353
v 0.006176 0.099978 -0.008501
v 0.000000 0.099978 -0.010507
v 0.009993 0.099978 -0.003247
v 0.009993 0.099978 0.003247
v 0.006176 0.099978 0.008501
v 0.000000 0.099978 0.010507
v -0.006176 0.099978 0.008501
v -0.009993 0.099978 0.003247
v -0.009993 0.099978 -0.003247
v -0.006176 0.099978 -0.008501
v 0.017785 0.099978 -0.024479
v 0.000000 0.099978 -0.030257
v 0.028776 0.099978 -0.009350
v 0.028776 0.099978 0.009350
v 0.017785 0.099978 0.024479
v 0.000000 0.099978 0.030257
v -0.017785 0.099978 0.024479
v -0.028776 0.099978 0.009350
v -0.028776 0.099978 -0.009350
v -0.017785 0.099978 -0.024479
v 0.002397 0.144489 -0.003299
v -0.000000 0.144489 -0.004078
v 0.003878 0.144489 -0.001260
v 0.003878 0.144489 0.001260
v 0.002397 0.144489 0.003299
v -0.000000 0.144489 0.004078
v -0.002397 0.144489 0.003299
v -0.003878 0.144489 0.001260
v -0.003878 0.144489 -0.001260
v -0.002397 0.144489 -0.003299
vn 0.3090 -0.0000 -0.9511
vn 0.8090 -0.0000 -0.5878
vn 1.0000 -0.0000 -0.0000
vn 0.8090 -0.0000 0.5878
vn 0.3090 -0.0000 0.9511
vn -0.3090 -0.0000 0.9511
vn -0.8090 -0.0000 0.5878
vn -1.0000 -0.0000 -0.0000
vn -0.8090 -0.0000 -0.5878
vn -0.3090 -0.0000 -0.9511
vn -0.0000 -1.0000 -0.0000
vn -0.0000 1.0000 -0.0000
vn 0.8015 0.1361 -0.5823
vn -0.8015 0.1361 -0.5823
vn -0.3061 0.1361 0.9422
vn 0.9907 0.1361 -0.0000
vn -0.3061 0.1361 -0.9422
vn -0.8015 0.1361 0.5823
vn 0.8015 0.1361 0.5823
vn 0.3061 0.1361 -0.9422
vn -0.9907 0.1361 -0.0000
vn 0.3061 0.1361 0.9422
vt 0.409141 0.416373
vt 0.430128 0.395386
vt 0.430128 0.416373
vt 0.409141 0.395386
vt 0.409655 0.409123
vt 0.429615 0.409123
vt 0.425803 0.397391
vt 0.419635 0.395386
vt 0.413467 0.397391
vt 0.409655 0.402637
vt 0.413467 0.414369
vt 0.419635 0.416373
vt 0.425803 0.414369
vt 0.429615 0.402637
s 1
usemtl Material.025
f 22/1/1 3/2/1 1/3/1
f 21/1/2 5/2/2 3/3/2
f 23/1/3 7/2/3 5/3/3
f 24/1/4 9/2/4 7/3/4
f 25/1/5 11/2/5 9/3/5
f 26/1/6 13/2/6 11/3/6
f 27/1/7 15/2/7 13/3/7
f 28/1/8 17/2/8 15/3/8
f 20/3/9 49/4/9 50/2/9
f 29/1/9 19/2/9 17/3/9
f 30/1/10 1/2/10 19/3/10
f 7/5/11 15/6/11 19/7/11
f 2/3/12 21/4/12 22/2/12
f 6/1/12 21/2/12 4/3/12
f 8/1/12 23/2/12 6/3/12
f 10/1/12 24/2/12 8/3/12
f 12/1/12 25/2/12 10/3/12
f 12/3/12 27/4/12 26/2/12
f 16/1/12 27/2/12 14/3/12
f 18/1/12 28/2/12 16/3/12
f 20/1/12 29/2/12 18/3/12
f 2/1/12 30/2/12 20/3/12
f 31/1/13 53/2/13 33/3/13
f 12/1/6 47/2/6 14/3/6
f 6/1/3 44/2/3 8/3/3
f 20/1/10 42/2/10 2/3/10
f 14/1/7 48/2/7 16/3/7
f 8/1/4 45/2/4 10/3/4
f 2/1/1 41/2/1 4/3/1
f 16/1/8 49/2/8 18/3/8
f 10/1/5 46/2/5 12/3/5
f 4/1/2 43/2/2 6/3/2
f 31/1/12 42/2/12 32/3/12
f 31/3/12 43/4/12 41/2/12
f 34/1/12 43/2/12 33/3/12
f 35/1/12 44/2/12 34/3/12
f 36/1/12 45/2/12 35/3/12
f 37/1/12 46/2/12 36/3/12
f 38/1/12 47/2/12 37/3/12
f 38/3/12 49/4/12 48/2/12
f 40/1/12 49/2/12 39/3/12
f 32/1/12 50/2/12 40/3/12
f 59/5/12 55/6/12 53/7/12
f 39/1/14 60/2/14 40/3/14
f 37/3/15 56/4/15 57/2/15
f 33/1/16 54/2/16 34/3/16
f 40/1/17 52/2/17 32/3/17
f 37/1/18 58/2/18 38/3/18
f 34/1/19 55/2/19 35/3/19
f 31/3/20 52/4/20 51/2/20
f 38/1/21 59/2/21 39/3/21
f 35/1/22 56/2/22 36/3/22
f 22/1/1 21/4/1 3/2/1
f 21/1/2 23/4/2 5/2/2
f 23/1/3 24/4/3 7/2/3
f 24/1/4 25/4/4 9/2/4
f 25/1/5 26/4/5 11/2/5
f 26/1/6 27/4/6 13/2/6
f 27/1/7 28/4/7 15/2/7
f 28/1/8 29/4/8 17/2/8
f 20/3/9 18/1/9 49/4/9
f 29/1/9 30/4/9 19/2/9
f 30/1/10 22/4/10 1/2/10
f 19/7/11 1/8/11 3/9/11
f 3/9/11 5/10/11 7/5/11
f 7/5/11 9/11/11 11/12/11
f 11/12/11 13/13/11 15/6/11
f 15/6/11 17/14/11 19/7/11
f 19/7/11 3/9/11 7/5/11
f 7/5/11 11/12/11 15/6/11
f 2/3/12 4/1/12 21/4/12
f 6/1/12 23/4/12 21/2/12
f 8/1/12 24/4/12 23/2/12
f 10/1/12 25/4/12 24/2/12
f 12/1/12 26/4/12 25/2/12
f 12/3/12 14/1/12 27/4/12
f 16/1/12 28/4/12 27/2/12
f 18/1/12 29/4/12 28/2/12
f 20/1/12 30/4/12 29/2/12
f 2/1/12 22/4/12 30/2/12
f 31/1/13 51/4/13 53/2/13
f 12/1/6 46/4/6 47/2/6
f 6/1/3 43/4/3 44/2/3
f 20/1/10 50/4/10 42/2/10
f 14/1/7 47/4/7 48/2/7
f 8/1/4 44/4/4 45/2/4
f 2/1/1 42/4/1 41/2/1
f 16/1/8 48/4/8 49/2/8
f 10/1/5 45/4/5 46/2/5
f 4/1/2 41/4/2 43/2/2
f 31/1/12 41/4/12 42/2/12
f 31/3/12 33/1/12 43/4/12
f 34/1/12 44/4/12 43/2/12
f 35/1/12 45/4/12 44/2/12
f 36/1/12 46/4/12 45/2/12
f 37/1/12 47/4/12 46/2/12
f 38/1/12 48/4/12 47/2/12
f 38/3/12 39/1/12 49/4/12
f 40/1/12 50/4/12 49/2/12
f 32/1/12 42/4/12 50/2/12
f 53/7/12 51/8/12 52/9/12
f 52/9/12 60/10/12 59/5/12
f 59/5/12 58/11/12 57/12/12
f 57/12/12 56/13/12 55/6/12
f 55/6/12 54/14/12 53/7/12
f 53/7/12 52/9/12 59/5/12
f 59/5/12 57/12/12 55/6/12
f 39/1/14 59/4/14 60/2/14
f 37/3/15 36/1/15 56/4/15
f 33/1/16 53/4/16 54/2/16
f 40/1/17 60/4/17 52/2/17
f 37/1/18 57/4/18 58/2/18
f 34/1/19 54/4/19 55/2/19
f 31/3/20 32/1/20 52/4/20
f 38/1/21 58/4/21 59/2/21
f 35/1/22 55/4/22 56/2/22
