# Blender 4.0.2
# www.blender.org
mtllib pizza_slide.mtl
g Cylinder.001_Mesh
v 0.059716 -0.004194 0.092114
v 0.059716 -0.000349 0.075939
v -0.014637 -0.004194 0.072191
v -0.006550 -0.000349 0.058184
v -0.069067 -0.004194 0.017760
v -0.055060 -0.000349 0.009673
v -0.088990 -0.004194 -0.056593
v -0.072816 -0.000349 -0.056593
v 0.059716 -0.000349 -0.056594
v 0.059717 -0.004194 -0.056593
v 0.059716 0.007148 0.092114
v -0.014637 0.007148 0.072191
v -0.069067 0.007148 0.017760
v -0.088990 0.007148 -0.056593
v 0.025110 -0.000349 0.022224
v 0.021858 -0.000349 0.043545
v 0.036345 -0.000349 0.023937
v 0.033093 -0.000349 0.045258
v 0.025110 0.000663 0.022224
v 0.021858 0.000663 0.043545
v 0.036345 0.000663 0.023937
v 0.033093 0.000663 0.045258
v 0.027093 -0.000349 -0.022238
v 0.042940 -0.000349 -0.007609
v 0.034802 -0.000349 -0.030589
v 0.050649 -0.000349 -0.015960
v 0.027093 0.000663 -0.022238
v 0.042940 0.000663 -0.007609
v 0.034802 0.000663 -0.030589
v 0.050649 0.000663 -0.015960
v -0.015106 -0.001393 -0.041622
v -0.015106 0.000695 -0.041622
v -0.001422 -0.001393 -0.037956
v -0.001422 0.000695 -0.037956
v 0.008596 -0.001393 -0.027938
v 0.008596 0.000695 -0.027938
v 0.012262 -0.001393 -0.014254
v 0.012262 0.000695 -0.014254
v 0.008596 -0.001393 -0.000570
v 0.008596 0.000695 -0.000570
v -0.001422 -0.001393 0.009448
v -0.001422 0.000695 0.009448
v -0.015106 -0.001393 0.013115
v -0.015106 0.000695 0.013115
v -0.028790 -0.001393 0.009448
v -0.028790 0.000695 0.009448
v -0.038808 -0.001393 -0.000570
v -0.038808 0.000695 -0.000570
v -0.042475 -0.001393 -0.014254
v -0.042475 0.000695 -0.014254
v -0.038808 -0.001393 -0.027938
v -0.038808 0.000695 -0.027938
v -0.028790 -0.001393 -0.037956
v -0.028790 0.000695 -0.037956
vn -0.2588 -0.0000 0.9659
vn -0.7071 -0.0000 0.7071
vn 0.1120 0.9016 -0.4179
vn 0.3059 0.9016 -0.3059
vn -0.0000 -0.0000 1.0000
vn -0.4179 -0.9016 0.1120
vn -0.2308 0.9710 0.0619
vn -0.9659 -0.0000 0.2588
vn 1.0000 0.0002 -0.0000
vn 1.0000 -0.0000 -0.0000
vn -0.0000 -0.0003 -1.0000
vn -0.0000 -0.0000 -1.0000
vn 0.1690 -0.9710 -0.1690
vn -0.0000 -1.0000 -0.0000
vn -0.0000 1.0000 -0.0000
vn -0.9886 -0.0000 -0.1508
vn -0.1508 -0.0000 0.9886
vn 0.1508 -0.0000 -0.9886
vn 0.9886 -0.0000 0.1508
vn -0.6783 -0.0000 0.7348
vn 0.7348 -0.0000 0.6783
vn -0.7348 -0.0000 -0.6783
vn 0.6783 -0.0000 -0.7348
vn 0.2588 -0.0000 -0.9659
vn 0.7071 -0.0000 -0.7071
vn 0.9659 -0.0000 -0.2588
vn 0.9659 -0.0000 0.2588
vn 0.7071 -0.0000 0.7071
vn 0.2588 -0.0000 0.9659
vn -0.9659 -0.0000 -0.2588
vn -0.7071 -0.0000 -0.7071
vn -0.2588 -0.0000 -0.9659
vt 0.804029 0.458539
vt 0.789911 0.472657
vt 0.789911 0.458539
vt 0.786710 0.476004
vt 0.806830 0.455884
vt 0.806830 0.476004
vt 0.804708 0.474546
vt 0.785403 0.474546
vt 0.785403 0.455241
vt 1.000000 0.000000
vt 0.000000 1.000000
vt 0.000000 0.000000
vt 0.736077 0.532196
vt 0.750931 0.519449
vt 0.745257 0.540074
vt 0.753433 0.542121
vt 0.734128 0.522816
vt 0.753433 0.522816
vt 0.787202 0.462836
vt 0.802683 0.474083
vt 0.806338 0.462836
vt 0.736226 0.531334
vt 0.751707 0.542581
vt 0.755362 0.531334
vt 0.597702 0.276408
vt 0.617642 0.296348
vt 0.597702 0.296348
vt 0.617642 0.276408
vt 0.599552 0.297320
vt 0.619437 0.270200
vt 0.619437 0.297320
vt 0.624595 0.545598
vt 0.644584 0.525609
vt 0.644584 0.545598
vt 0.624595 0.535604
vt 0.639587 0.544259
vt 0.639587 0.526948
vt 0.800729 0.472703
vt 0.804236 0.461911
vt 0.795056 0.455241
vt 0.804029 0.472657
vt 0.786710 0.455884
vt 1.000000 1.000000
vt 0.739584 0.519449
vt 0.734128 0.542121
vt 0.796770 0.455884
vt 0.790857 0.474083
vt 0.745794 0.524383
vt 0.739881 0.542581
vt 0.599552 0.270200
vt 0.624595 0.525609
vt 0.634589 0.525609
vt 0.629592 0.526948
vt 0.625934 0.530606
vt 0.625934 0.540601
vt 0.629592 0.544259
vt 0.634589 0.545598
vt 0.643245 0.540601
vt 0.644584 0.535604
vt 0.643245 0.530606
s 1
usemtl Material.030
f 11/1/1 3/2/1 1/3/1
f 12/1/2 5/2/2 3/3/2
f 4/4/3 11/5/3 2/6/3
f 6/4/4 12/5/4 4/6/4
f 7/7/5 8/8/5 14/9/5
f 14/4/6 6/5/6 13/6/6
f 6/10/7 7/11/7 5/12/7
f 13/1/8 7/2/8 5/3/8
f 10/13/9 2/14/10 1/15/10
f 10/16/11 8/17/12 9/18/11
f 5/10/13 4/11/13 3/12/13
f 1/19/14 5/20/14 7/21/14
f 2/22/15 8/23/15 6/24/15
f 15/25/14 18/26/14 16/27/14
f 19/25/15 22/26/15 21/27/15
f 16/28/16 19/27/16 15/25/16
f 18/28/17 20/27/17 16/25/17
f 15/28/18 21/27/18 17/25/18
f 17/28/19 22/27/19 18/25/19
f 25/29/14 24/30/14 23/31/14
f 28/29/15 29/30/15 27/31/15
f 24/29/20 27/30/20 23/31/20
f 26/29/21 28/30/21 24/31/21
f 23/29/22 29/30/22 25/31/22
f 25/29/23 30/30/23 26/31/23
f 32/32/24 33/33/24 31/34/24
f 34/32/25 35/33/25 33/34/25
f 36/32/26 37/33/26 35/34/26
f 38/32/27 39/33/27 37/34/27
f 40/32/28 41/33/28 39/34/28
f 42/32/29 43/33/29 41/34/29
f 44/32/1 45/33/1 43/34/1
f 46/32/2 47/33/2 45/34/2
f 48/32/8 49/33/8 47/34/8
f 50/32/30 51/33/30 49/34/30
f 52/35/15 44/36/15 36/37/15
f 52/32/31 53/33/31 51/34/31
f 54/32/32 31/33/32 53/34/32
f 37/35/14 45/36/14 53/37/14
f 2/38/10 11/39/10 1/40/10
f 11/1/1 12/41/1 3/2/1
f 12/1/2 13/41/2 5/2/2
f 4/4/3 12/42/3 11/5/3
f 6/4/4 13/42/4 12/5/4
f 14/4/6 8/42/6 6/5/6
f 6/10/7 8/43/7 7/11/7
f 13/1/8 14/41/8 7/2/8
f 10/13/9 9/44/9 2/14/10
f 10/16/11 7/45/12 8/17/12
f 5/10/13 6/43/13 4/11/13
f 7/21/14 10/46/14 1/19/14
f 1/19/14 3/47/14 5/20/14
f 6/24/15 4/48/15 2/22/15
f 2/22/15 9/49/15 8/23/15
f 15/25/14 17/28/14 18/26/14
f 19/25/15 20/28/15 22/26/15
f 16/28/16 20/26/16 19/27/16
f 18/28/17 22/26/17 20/27/17
f 15/28/18 19/26/18 21/27/18
f 17/28/19 21/26/19 22/27/19
f 25/29/14 26/50/14 24/30/14
f 28/29/15 30/50/15 29/30/15
f 24/29/20 28/50/20 27/30/20
f 26/29/21 30/50/21 28/30/21
f 23/29/22 27/50/22 29/30/22
f 25/29/23 29/50/23 30/30/23
f 32/32/24 34/51/24 33/33/24
f 34/32/25 36/51/25 35/33/25
f 36/32/26 38/51/26 37/33/26
f 38/32/27 40/51/27 39/33/27
f 40/32/28 42/51/28 41/33/28
f 42/32/29 44/51/29 43/33/29
f 44/32/1 46/51/1 45/33/1
f 46/32/2 48/51/2 47/33/2
f 48/32/8 50/51/8 49/33/8
f 50/32/30 52/51/30 51/33/30
f 36/37/15 34/52/15 32/53/15
f 32/53/15 54/54/15 52/35/15
f 52/35/15 50/55/15 48/56/15
f 48/56/15 46/57/15 44/36/15
f 44/36/15 42/58/15 40/59/15
f 40/59/15 38/60/15 36/37/15
f 36/37/15 32/53/15 52/35/15
f 52/35/15 48/56/15 44/36/15
f 44/36/15 40/59/15 36/37/15
f 52/32/31 54/51/31 53/33/31
f 54/32/32 32/51/32 31/33/32
f 53/37/14 31/52/14 33/53/14
f 33/53/14 35/54/14 37/35/14
f 37/35/14 39/55/14 41/56/14
f 41/56/14 43/57/14 45/36/14
f 45/36/14 47/58/14 49/59/14
f 49/59/14 51/60/14 53/37/14
f 53/37/14 33/53/14 37/35/14
f 37/35/14 41/56/14 45/36/14
f 45/36/14 49/59/14 53/37/14
