# Blender 4.0.2
# www.blender.org
mtllib pizza.mtl
g Cylinder_Mesh
v 0.000000 -0.005671 -0.148706
v 0.000000 -0.001826 -0.132532
v 0.074353 -0.005671 -0.128783
v 0.066266 -0.001826 -0.114776
v 0.128783 -0.005671 -0.074353
v 0.114776 -0.001826 -0.066266
v 0.148706 -0.005671 0.000000
v 0.132532 -0.001826 0.000000
v 0.128783 -0.005671 0.074353
v 0.114776 -0.001826 0.066266
v 0.074353 -0.005671 0.128783
v 0.066266 -0.001826 0.114776
v 0.000000 -0.005671 0.148706
v 0.000000 -0.001826 0.132532
v -0.074353 -0.005671 0.128783
v -0.066266 -0.001826 0.114776
v -0.128783 -0.005671 0.074353
v -0.114776 -0.001826 0.066266
v -0.148706 -0.005671 0.000000
v -0.132532 -0.001826 0.000000
v -0.128783 -0.005671 -0.074353
v -0.114776 -0.001826 -0.066266
v -0.074353 -0.005671 -0.128783
v -0.066266 -0.001826 -0.114776
v 0.000000 -0.001826 -0.000001
v 0.000001 -0.005671 0.000000
v 0.000000 -0.001826 -0.074354
v 0.074353 0.005671 -0.128783
v 0.000000 0.005671 -0.148706
v 0.128783 0.005671 -0.074353
v 0.148706 0.005671 -0.000000
v 0.128783 0.005671 0.074353
v 0.074353 0.005671 0.128783
v 0.000000 0.005671 0.148706
v -0.074353 0.005671 0.128783
v -0.128783 0.005671 0.074353
v -0.148706 0.005671 -0.000000
v -0.128783 0.005671 -0.074353
v -0.074353 0.005671 -0.128783
v -0.000015 0.000318 -0.046205
v 0.013669 -0.000726 -0.042538
v 0.023687 -0.001248 -0.032521
v 0.023687 0.000839 -0.032521
v 0.027354 -0.000900 -0.018836
v 0.023687 0.000318 -0.005152
v 0.013669 -0.000726 0.004865
v -0.000015 0.000492 0.008532
v -0.013699 -0.001248 0.004865
v -0.013699 0.000839 0.004865
v -0.023717 0.000318 -0.005152
v -0.027383 -0.000726 -0.018836
v -0.023717 -0.001248 -0.032521
v -0.023717 0.000839 -0.032521
v -0.013699 -0.000900 -0.042538
v 0.092088 -0.000379 -0.029358
v 0.105772 -0.001423 -0.025691
v 0.115790 -0.000205 -0.015674
v 0.119456 -0.001597 -0.001989
v 0.115790 -0.000379 0.011695
v 0.105772 -0.001423 0.021713
v 0.092088 -0.000205 0.025379
v 0.078404 -0.001597 0.021713
v 0.068386 -0.000379 0.011695
v 0.064719 -0.001423 -0.001989
v 0.068386 -0.000205 -0.015674
v 0.078404 -0.001597 -0.025691
v 0.039921 -0.000379 0.044845
v 0.053605 -0.001527 0.048512
v 0.063623 -0.000275 0.058529
v 0.067289 -0.001423 0.072214
v 0.063623 -0.000553 0.085898
v 0.053605 -0.001249 0.095915
v 0.039921 -0.000379 0.099582
v 0.026237 -0.001481 0.095915
v 0.016219 -0.000553 0.085898
v 0.012552 -0.001423 0.072214
v 0.016219 -0.000118 0.058529
v 0.026237 -0.001527 0.048512
v 0.055346 -0.000379 -0.111481
v 0.069030 -0.001527 -0.107815
v 0.079048 -0.000275 -0.097797
v 0.082714 -0.001423 -0.084113
v 0.079048 -0.000553 -0.070429
v 0.069030 -0.001249 -0.060411
v 0.055346 -0.000379 -0.056744
v 0.041662 -0.001481 -0.060411
v 0.031644 -0.000553 -0.070429
v 0.027977 -0.001423 -0.084113
v 0.031644 -0.000118 -0.097797
v 0.041662 -0.001527 -0.107815
v -0.065230 -0.000553 -0.092843
v -0.051546 -0.001423 -0.089176
v -0.041528 -0.000205 -0.079158
v -0.037862 -0.001481 -0.065474
v -0.041528 -0.000553 -0.051790
v -0.051546 -0.001249 -0.041772
v -0.065230 -0.001945 -0.038106
v -0.065230 0.000143 -0.038106
v -0.078914 -0.001423 -0.041772
v -0.088932 -0.000553 -0.051790
v -0.092599 -0.001249 -0.065474
v -0.088932 -0.000379 -0.079158
v -0.078914 -0.001249 -0.089176
v -0.061892 -0.000692 0.025062
v -0.048207 -0.001249 0.028729
v -0.038190 -0.000275 0.038746
v -0.034523 -0.001481 0.052431
v -0.038190 -0.000553 0.066115
v -0.048207 -0.001423 0.076132
v -0.061892 -0.000118 0.079799
v -0.075576 -0.001527 0.076132
v -0.085593 -0.000553 0.066115
v -0.089260 -0.001249 0.052431
v -0.085593 -0.000275 0.038746
v -0.075576 -0.001423 0.028729
v -0.004759 -0.002315 0.036924
v 0.009682 -0.002315 0.052943
v 0.003683 -0.002315 0.029314
v 0.018124 -0.002315 0.045334
v -0.004759 -0.001303 0.036924
v 0.009682 -0.001303 0.052943
v 0.003683 -0.001303 0.029314
v 0.018124 -0.001303 0.045334
v -0.023033 -0.002315 -0.099385
v -0.007502 -0.002315 -0.084420
v -0.015147 -0.002315 -0.107569
v 0.000384 -0.002315 -0.092605
v -0.023033 -0.001303 -0.099385
v -0.007502 -0.001303 -0.084420
v -0.015147 -0.001303 -0.107569
v 0.000384 -0.001303 -0.092605
v -0.097984 -0.002315 0.002480
v -0.080435 -0.002315 -0.010058
v -0.104591 -0.002315 -0.006768
v -0.087043 -0.002315 -0.019306
v -0.097984 -0.001303 0.002480
v -0.080435 -0.001303 -0.010058
v -0.104591 -0.001303 -0.006768
v -0.087043 -0.001303 -0.019306
v 0.077658 -0.002315 0.052795
v 0.099221 -0.002315 0.053242
v 0.077894 -0.002315 0.041432
v 0.099457 -0.002315 0.041879
v 0.077658 -0.001303 0.052795
v 0.099221 -0.001303 0.053242
v 0.077894 -0.001303 0.041432
v 0.099457 -0.001303 0.041879
v 0.080491 -0.002315 -0.051310
v 0.096022 -0.002315 -0.036346
v 0.088377 -0.002315 -0.059495
v 0.103908 -0.002315 -0.044530
v 0.080491 -0.001303 -0.051310
v 0.096022 -0.001303 -0.036346
v 0.088377 -0.001303 -0.059495
v 0.103908 -0.001303 -0.044530
v -0.023592 -0.002315 0.092623
v -0.026844 -0.002315 0.113944
v -0.012357 -0.002315 0.094336
v -0.015608 -0.002315 0.115657
v -0.023592 -0.001303 0.092623
v -0.026844 -0.001303 0.113944
v -0.012357 -0.001303 0.094336
v -0.015608 -0.001303 0.115657
vn 0.2588 -0.0000 -0.9659
vn 0.7071 -0.0000 -0.7071
vn 0.9659 -0.0000 -0.2588
vn 0.9659 -0.0000 0.2588
vn 0.7071 -0.0000 0.7071
vn 0.2588 -0.0000 0.9659
vn -0.2588 -0.0000 0.9659
vn -0.7071 -0.0000 0.7071
vn -0.9659 -0.0000 0.2588
vn -0.9659 -0.0000 -0.2588
vn -0.0000 1.0000 -0.0000
vn -0.7071 -0.0000 -0.7071
vn -0.2588 -0.0000 -0.9659
vn -0.0000 -1.0000 -0.0000
vn -0.1120 0.9016 0.4179
vn -0.3059 0.9016 0.3059
vn -0.4179 0.9016 0.1120
vn -0.4179 0.9016 -0.1120
vn -0.3059 0.9016 -0.3059
vn -0.1120 0.9016 -0.4179
vn 0.1120 0.9016 -0.4179
vn 0.3059 0.9016 -0.3059
vn 0.4179 0.9016 -0.1120
vn 0.4179 0.9016 0.1120
vn 0.3059 0.9016 0.3059
vn 0.1120 0.9016 0.4179
vn 0.0355 0.9988 0.0328
vn 0.0188 0.9991 -0.0372
vn -0.0462 0.9989 -0.0003
vn -0.0152 -0.9998 0.0145
vn 0.0070 -0.9997 -0.0251
vn 0.0129 -0.9997 0.0186
vn 0.0316 0.9982 0.0501
vn 0.0276 0.9982 -0.0524
vn -0.0592 0.9982 0.0023
vn 0.0474 -0.9985 0.0267
vn -0.0480 -0.9985 0.0263
vn 0.0025 -0.9988 -0.0487
vn -0.0283 0.9987 0.0428
vn 0.0514 0.9987 0.0043
vn -0.0205 0.9990 -0.0401
vn -0.0244 0.9990 0.0370
vn 0.0401 0.9992 0.0032
vn -0.0177 0.9985 -0.0519
vn -0.0008 -0.9992 0.0402
vn -0.0212 -0.9994 -0.0267
vn 0.0171 -0.9994 -0.0289
vn 0.0014 -0.9985 -0.0545
vn 0.0390 -0.9989 0.0274
vn -0.0429 -0.9988 0.0234
vn -0.7427 -0.0000 0.6696
vn 0.6696 -0.0000 0.7427
vn -0.6696 -0.0000 -0.7427
vn 0.7427 -0.0000 -0.6696
vn -0.6938 -0.0000 0.7201
vn 0.7201 -0.0000 0.6938
vn -0.7201 -0.0000 -0.6938
vn 0.6938 -0.0000 -0.7201
vn 0.5814 -0.0000 0.8136
vn 0.8136 -0.0000 -0.5814
vn -0.8136 -0.0000 0.5814
vn -0.5814 -0.0000 -0.8136
vn -0.0208 -0.0000 0.9998
vn 0.9998 -0.0000 0.0208
vn -0.9998 -0.0000 -0.0208
vn 0.0208 -0.0000 -0.9998
vn -0.9886 -0.0000 -0.1508
vn -0.1508 -0.0000 0.9886
vn 0.1508 -0.0000 -0.9886
vn 0.9886 -0.0000 0.1508
vn -0.3529 0.9117 0.2105
vn -0.0442 0.9971 0.0624
vn -0.0061 0.9556 0.2947
vn 0.3587 0.9117 0.2004
vn 0.0019 0.9999 -0.0159
vn 0.0329 0.9959 -0.0848
vn 0.0567 0.9914 -0.1176
vn 0.0251 0.9997 -0.0073
vn -0.2522 0.9556 -0.1526
vn 0.1079 -0.9914 0.0735
vn 0.0024 -0.9968 -0.0804
vn -0.0848 -0.9959 0.0329
vn -0.1176 -0.9914 0.0567
vn -0.0073 -0.9997 0.0251
vn -0.1526 -0.9556 -0.2522
vn 0.2105 -0.9117 -0.3529
vn 0.0096 -0.9999 0.0128
vn 0.0709 -0.9959 0.0570
vn -0.2873 0.9421 0.1728
vn -0.0361 0.9977 0.0578
vn 0.2933 0.9421 0.1624
vn 0.0681 0.9977 0.0024
vn 0.2582 0.9556 -0.1421
vn -0.0060 0.9421 -0.3352
vn -0.0320 0.9977 -0.0601
vn 0.1387 -0.9638 -0.2279
vn 0.0571 -0.9977 -0.0378
vn 0.2842 -0.9586 -0.0152
vn 0.1568 -0.9442 0.2896
vn -0.0021 -0.9976 0.0696
vn -0.1524 -0.9504 0.2712
vn -0.2653 -0.9641 -0.0098
vn -0.0492 -0.9984 -0.0273
vn -0.1098 -0.9779 -0.1777
vn -0.1777 0.9779 -0.1098
vn -0.0446 0.9990 0.0001
vn -0.2712 0.9504 0.1524
vn -0.0000 0.9543 0.2988
vn 0.0321 0.9984 0.0458
vn 0.3023 0.9378 0.1704
vn 0.2072 0.9712 -0.1173
vn 0.0137 0.9994 -0.0330
vn -0.0082 0.9657 -0.2596
vn -0.1831 0.9763 -0.1152
vn -0.0395 0.9992 0.0024
vn -0.2778 0.9468 0.1627
vn 0.0062 0.9779 0.2088
vn 0.0262 0.9990 0.0361
vn 0.1999 0.9730 0.1154
vn 0.1839 0.9779 -0.0990
vn 0.0131 0.9991 -0.0414
vn -0.0059 0.9274 -0.3740
vn 0.2088 -0.9779 -0.0062
vn 0.0226 -0.9997 0.0131
vn 0.0990 -0.9779 0.1839
vn -0.1263 -0.9617 0.2432
vn -0.0255 -0.9996 0.0138
vn -0.2877 -0.9576 -0.0122
vn 0.0440 -0.9987 -0.0254
vn 0.0024 -0.9959 -0.0901
vn -0.0203 -0.9976 -0.0663
vn -0.2794 -0.9601 -0.0098
vn -0.0645 -0.9973 -0.0339
vn -0.1553 -0.9586 -0.2385
vn 0.1676 -0.9509 -0.2601
vn 0.0596 -0.9976 -0.0364
vn 0.2220 -0.9750 -0.0099
vn 0.1113 -0.9686 0.2223
vn 0.0024 -0.9978 0.0661
vn -0.0892 -0.9788 0.1844
vt 0.790067 0.466724
vt 0.791624 0.476063
vt 0.790067 0.476063
vt 0.791624 0.466724
vt 0.793181 0.476063
vt 0.793181 0.466724
vt 0.794737 0.476063
vt 0.794737 0.466724
vt 0.796294 0.476063
vt 0.796294 0.466724
vt 0.797850 0.476063
vt 0.797850 0.466724
vt 0.799407 0.476063
vt 0.799407 0.466724
vt 0.800963 0.476063
vt 0.800963 0.466724
vt 0.802520 0.476063
vt 0.802520 0.466724
vt 0.804076 0.476063
vt 0.804076 0.466724
vt 0.805633 0.476063
vt 0.743271 0.540495
vt 0.753369 0.534830
vt 0.752016 0.539879
vt 0.805633 0.466724
vt 0.807190 0.476063
vt 0.807190 0.466724
vt 0.808746 0.476063
vt 0.796744 0.474581
vt 0.787689 0.479809
vt 0.791516 0.483637
vt 0.743271 0.534830
vt 0.734525 0.529781
vt 0.738221 0.526084
vt 0.738221 0.543575
vt 0.734525 0.539879
vt 0.748320 0.526084
vt 0.752016 0.529781
vt 0.791516 0.465526
vt 0.787689 0.469353
vt 0.805799 0.469353
vt 0.801972 0.465526
vt 0.796744 0.485038
vt 0.805799 0.479809
vt 0.807200 0.474581
vt 0.800206 0.469834
vt 0.796022 0.471976
vt 0.796022 0.470955
vt 0.803269 0.466771
vt 0.800717 0.470718
vt 0.804390 0.462587
vt 0.804153 0.467282
vt 0.803269 0.458403
vt 0.805411 0.462587
vt 0.800206 0.455341
vt 0.804153 0.457893
vt 0.796022 0.454220
vt 0.800717 0.454456
vt 0.791838 0.455341
vt 0.796022 0.453199
vt 0.788776 0.458403
vt 0.791328 0.454456
vt 0.787655 0.462587
vt 0.787891 0.457893
vt 0.787891 0.467282
vt 0.786633 0.462587
vt 0.788776 0.466771
vt 0.791328 0.470718
vt 0.791838 0.469834
vt 0.635595 0.554132
vt 0.628926 0.520787
vt 0.635595 0.514118
vt 0.634468 0.546331
vt 0.627799 0.536327
vt 0.634468 0.506316
vt 0.637777 0.551207
vt 0.631108 0.517861
vt 0.637777 0.511192
vt 0.642264 0.524121
vt 0.641137 0.539662
vt 0.644446 0.521196
vt 0.627972 0.541018
vt 0.627972 0.532383
vt 0.635450 0.536700
vt 0.645168 0.539193
vt 0.640851 0.531715
vt 0.636533 0.539193
vt 0.634840 0.557956
vt 0.628170 0.527945
vt 0.634840 0.517941
vt 0.632957 0.541018
vt 0.625479 0.536700
vt 0.632957 0.532383
vt 0.641509 0.531280
vt 0.640851 0.541686
vt 0.645168 0.534208
vt 0.636533 0.534208
vt 0.599502 0.289701
vt 0.618533 0.270671
vt 0.599502 0.270671
vt 0.619766 0.269437
vt 0.598269 0.290934
vt 0.598269 0.269437
vt 0.618533 0.289701
vt 0.619766 0.290934
vt 0.748320 0.543575
vt 0.743271 0.544928
vt 0.808746 0.466724
vt 0.786288 0.474581
vt 0.743271 0.524731
vt 0.733172 0.534830
vt 0.796744 0.464125
vt 0.801972 0.483637
vt 0.634782 0.539193
vt 0.630465 0.541686
vt 0.626147 0.539193
vt 0.626147 0.534208
vt 0.630465 0.531715
vt 0.634782 0.534208
vt 0.638358 0.541018
vt 0.643343 0.541018
vt 0.645836 0.536700
vt 0.643343 0.532383
vt 0.638358 0.532383
vt 0.635865 0.536700
s 1
usemtl Material.029
f 29/1/1 3/2/1 1/3/1
f 28/4/2 5/5/2 3/2/2
f 30/6/3 7/7/3 5/5/3
f 31/8/4 9/9/4 7/7/4
f 32/10/5 11/11/5 9/9/5
f 33/12/6 13/13/6 11/11/6
f 34/14/7 15/15/7 13/13/7
f 35/16/8 17/17/8 15/15/8
f 36/18/9 19/19/9 17/17/9
f 37/20/10 21/21/10 19/19/10
f 27/22/11 8/23/11 6/24/11
f 38/25/12 23/26/12 21/21/12
f 39/27/13 1/28/13 23/26/13
f 26/29/14 21/30/14 23/31/14
f 25/32/11 18/33/11 16/34/11
f 27/22/11 24/35/11 22/36/11
f 25/32/11 12/37/11 10/38/11
f 26/29/14 15/39/14 17/40/14
f 26/29/14 9/41/14 11/42/14
f 1/43/14 5/44/14 7/45/14
f 4/46/15 29/47/15 2/48/15
f 6/49/16 28/50/16 4/46/16
f 8/51/17 30/52/17 6/49/17
f 10/53/18 31/54/18 8/51/18
f 12/55/19 32/56/19 10/53/19
f 14/57/20 33/58/20 12/55/20
f 16/59/21 34/60/21 14/57/21
f 18/61/22 35/62/22 16/59/22
f 20/63/23 36/64/23 18/61/23
f 20/63/24 38/65/24 37/66/24
f 22/67/25 39/68/25 38/65/25
f 2/48/26 39/68/26 24/69/26
f 43/70/3 44/71/3 42/72/3
f 49/73/8 50/74/8 48/75/8
f 53/76/12 54/77/12 52/78/12
f 41/79/2 43/70/2 42/72/2
f 47/80/7 49/73/7 48/75/7
f 51/81/10 53/76/10 52/78/10
f 54/82/27 49/83/28 44/84/29
f 42/85/30 47/86/31 52/87/32
f 98/88/7 99/89/7 97/90/7
f 66/82/33 62/83/34 58/84/35
f 77/87/36 69/85/37 73/86/38
f 80/91/39 88/92/40 84/93/41
f 96/94/6 98/88/6 97/90/6
f 92/91/42 101/92/43 96/93/44
f 91/95/45 95/96/46 100/97/47
f 110/86/48 114/87/49 106/85/50
f 118/98/14 117/99/14 116/100/14
f 121/101/11 122/102/11 120/103/11
f 117/99/51 120/100/51 116/100/51
f 119/104/52 121/99/52 117/99/52
f 116/100/53 122/98/53 118/98/53
f 118/98/54 123/104/54 119/104/54
f 126/98/14 125/99/14 124/100/14
f 129/101/11 130/102/11 128/103/11
f 125/99/55 128/100/55 124/100/55
f 127/104/56 129/99/56 125/99/56
f 124/100/57 130/98/57 126/98/57
f 126/98/58 131/104/58 127/104/58
f 134/98/14 133/99/14 132/100/14
f 137/101/11 138/102/11 136/103/11
f 133/99/59 136/100/59 132/100/59
f 135/104/60 137/99/60 133/99/60
f 132/100/61 138/98/61 134/98/61
f 134/98/62 139/104/62 135/104/62
f 142/98/14 141/99/14 140/100/14
f 145/101/11 146/102/11 144/103/11
f 141/99/63 144/100/63 140/100/63
f 143/104/64 145/99/64 141/99/64
f 140/100/65 146/98/65 142/98/65
f 142/98/66 147/104/66 143/104/66
f 150/98/14 149/99/14 148/100/14
f 153/101/11 154/102/11 152/103/11
f 149/99/55 152/100/55 148/100/55
f 151/104/56 153/99/56 149/99/56
f 148/100/57 154/98/57 150/98/57
f 150/98/58 155/104/58 151/104/58
f 156/100/14 159/104/14 157/99/14
f 160/103/11 163/105/11 162/102/11
f 157/99/67 160/100/67 156/100/67
f 159/104/68 161/99/68 157/99/68
f 156/100/69 162/98/69 158/98/69
f 158/98/70 163/104/70 159/104/70
f 29/1/1 28/4/1 3/2/1
f 28/4/2 30/6/2 5/5/2
f 30/6/3 31/8/3 7/7/3
f 31/8/4 32/10/4 9/9/4
f 32/10/5 33/12/5 11/11/5
f 33/12/6 34/14/6 13/13/6
f 34/14/7 35/16/7 15/15/7
f 35/16/8 36/18/8 17/17/8
f 36/18/9 37/20/9 19/19/9
f 37/20/10 38/25/10 21/21/10
f 6/24/11 4/106/11 2/107/11
f 27/22/11 25/32/11 8/23/11
f 6/24/11 2/107/11 27/22/11
f 38/25/12 39/27/12 23/26/12
f 39/27/13 29/108/13 1/28/13
f 23/31/14 1/43/14 26/29/14
f 26/29/14 19/109/14 21/30/14
f 16/34/11 14/110/11 25/32/11
f 25/32/11 20/111/11 18/33/11
f 22/36/11 20/111/11 25/32/11
f 27/22/11 2/107/11 24/35/11
f 22/36/11 25/32/11 27/22/11
f 10/38/11 8/23/11 25/32/11
f 25/32/11 14/110/11 12/37/11
f 17/40/14 19/109/14 26/29/14
f 26/29/14 13/112/14 15/39/14
f 11/42/14 13/112/14 26/29/14
f 26/29/14 7/45/14 9/41/14
f 7/45/14 26/29/14 1/43/14
f 1/43/14 3/113/14 5/44/14
f 4/46/15 28/50/15 29/47/15
f 6/49/16 30/52/16 28/50/16
f 8/51/17 31/54/17 30/52/17
f 10/53/18 32/56/18 31/54/18
f 12/55/19 33/58/19 32/56/19
f 14/57/20 34/60/20 33/58/20
f 16/59/21 35/62/21 34/60/21
f 18/61/22 36/64/22 35/62/22
f 20/63/23 37/66/23 36/64/23
f 20/63/24 22/67/24 38/65/24
f 22/67/25 24/69/25 39/68/25
f 2/48/26 29/47/26 39/68/26
f 44/84/29 43/114/71 41/91/72
f 41/91/72 40/115/73 54/82/27
f 54/82/27 53/116/74 51/92/75
f 51/92/75 50/117/76 49/83/28
f 49/83/28 47/118/77 46/93/78
f 46/93/78 45/119/79 44/84/29
f 44/84/29 41/91/72 54/82/27
f 54/82/27 51/92/75 49/83/28
f 49/83/28 46/93/78 44/84/29
f 52/87/32 54/120/80 40/95/81
f 40/95/81 41/121/82 42/85/30
f 42/85/30 44/122/83 45/96/84
f 45/96/84 46/123/85 47/86/31
f 47/86/31 48/124/86 50/97/87
f 50/97/87 51/125/88 52/87/32
f 52/87/32 40/95/81 42/85/30
f 42/85/30 45/96/84 47/86/31
f 47/86/31 50/97/87 52/87/32
f 58/84/35 57/114/89 56/91/90
f 56/91/90 55/115/73 66/82/33
f 66/82/33 65/116/91 64/92/92
f 64/92/92 63/117/93 62/83/34
f 62/83/34 61/118/94 60/93/95
f 60/93/95 59/119/79 58/84/35
f 58/84/35 56/91/90 66/82/33
f 66/82/33 64/92/92 62/83/34
f 62/83/34 60/93/95 58/84/35
f 73/86/38 74/124/96 75/97/97
f 75/97/97 76/125/98 77/87/36
f 77/87/36 78/120/99 67/95/100
f 67/95/100 68/121/101 69/85/37
f 69/85/37 70/122/102 71/96/103
f 71/96/103 72/123/104 73/86/38
f 73/86/38 75/97/97 77/87/36
f 77/87/36 67/95/100 69/85/37
f 69/85/37 71/96/103 73/86/38
f 84/93/41 83/119/105 82/84/106
f 82/84/106 81/114/107 80/91/39
f 80/91/39 79/115/108 90/82/109
f 90/82/109 89/116/110 88/92/40
f 88/92/40 87/117/111 86/83/112
f 86/83/112 85/118/113 84/93/41
f 84/93/41 82/84/106 80/91/39
f 80/91/39 90/82/109 88/92/40
f 88/92/40 86/83/112 84/93/41
f 96/93/44 95/119/114 94/84/115
f 94/84/115 93/114/116 92/91/42
f 92/91/42 91/115/117 103/82/118
f 103/82/118 102/116/119 101/92/43
f 101/92/43 100/117/120 99/83/121
f 99/83/121 98/118/122 96/93/44
f 96/93/44 94/84/115 92/91/42
f 92/91/42 103/82/118 101/92/43
f 101/92/43 99/83/121 96/93/44
f 100/97/47 101/125/123 102/87/124
f 102/87/124 103/120/125 91/95/45
f 91/95/45 92/121/126 93/85/127
f 93/85/127 94/122/128 95/96/46
f 95/96/46 96/123/129 97/86/130
f 97/86/130 99/124/131 100/97/47
f 100/97/47 102/87/124 91/95/45
f 91/95/45 93/85/127 95/96/46
f 95/96/46 97/86/130 100/97/47
f 106/85/50 107/122/132 108/96/133
f 108/96/133 109/123/134 110/86/48
f 110/86/48 111/124/135 112/97/136
f 112/97/136 113/125/137 114/87/49
f 114/87/49 115/120/138 104/95/139
f 104/95/139 105/121/140 106/85/50
f 106/85/50 108/96/133 110/86/48
f 110/86/48 112/97/136 114/87/49
f 114/87/49 104/95/139 106/85/50
f 118/98/14 119/104/14 117/99/14
f 121/101/11 123/105/11 122/102/11
f 117/99/51 121/99/51 120/100/51
f 119/104/52 123/104/52 121/99/52
f 116/100/53 120/100/53 122/98/53
f 118/98/54 122/98/54 123/104/54
f 126/98/14 127/104/14 125/99/14
f 129/101/11 131/105/11 130/102/11
f 125/99/55 129/99/55 128/100/55
f 127/104/56 131/104/56 129/99/56
f 124/100/57 128/100/57 130/98/57
f 126/98/58 130/98/58 131/104/58
f 134/98/14 135/104/14 133/99/14
f 137/101/11 139/105/11 138/102/11
f 133/99/59 137/99/59 136/100/59
f 135/104/60 139/104/60 137/99/60
f 132/100/61 136/100/61 138/98/61
f 134/98/62 138/98/62 139/104/62
f 142/98/14 143/104/14 141/99/14
f 145/101/11 147/105/11 146/102/11
f 141/99/63 145/99/63 144/100/63
f 143/104/64 147/104/64 145/99/64
f 140/100/65 144/100/65 146/98/65
f 142/98/66 146/98/66 147/104/66
f 150/98/14 151/104/14 149/99/14
f 153/101/11 155/105/11 154/102/11
f 149/99/55 153/99/55 152/100/55
f 151/104/56 155/104/56 153/99/56
f 148/100/57 152/100/57 154/98/57
f 150/98/58 154/98/58 155/104/58
f 156/100/14 158/98/14 159/104/14
f 160/103/11 161/101/11 163/105/11
f 157/99/67 161/99/67 160/100/67
f 159/104/68 163/104/68 161/99/68
f 156/100/69 160/100/69 162/98/69
f 158/98/70 162/98/70 163/104/70
