# Blender 4.0.2
# www.blender.org
mtllib ribs.mtl
g Cube_Mesh
v -0.123065 0.003686 0.102668
v -0.113834 0.067123 0.090629
v -0.143219 -0.007940 -0.029578
v -0.124195 0.050426 -0.054297
v 0.237993 -0.006897 0.021559
v 0.222446 0.054654 0.043514
v 0.211371 -0.003987 -0.103760
v 0.204817 0.064785 -0.094989
v -0.030115 -0.042403 -0.046145
v -0.018901 0.022688 -0.061099
v -0.006015 -0.037128 0.081547
v -0.004931 0.029135 0.080240
v 0.094519 0.026231 -0.077903
v 0.118480 -0.041592 0.050695
v 0.092104 -0.042544 -0.074457
v 0.111023 0.024123 0.061093
v -0.132600 0.005798 0.034780
v -0.118437 0.067305 0.016274
v 0.222898 0.002032 -0.039638
v 0.211620 0.067749 -0.024038
v -0.012226 0.034490 0.008882
v -0.018323 -0.031812 0.017022
v 0.101584 0.033584 -0.007877
v 0.104247 -0.034270 -0.011468
v -0.118330 0.039488 0.096494
v -0.133597 0.025271 -0.042074
v 0.208214 0.034574 -0.099542
v 0.230322 0.028109 0.032385
v -0.005352 0.000135 0.080730
v -0.024388 -0.005785 -0.053778
v 0.114867 -0.004552 0.055731
v 0.093435 -0.004034 -0.076347
v 0.217371 0.039094 -0.031999
v -0.125402 0.040607 0.025380
v 0.167759 0.035075 0.051467
v 0.150521 0.041156 -0.087045
v 0.180494 -0.015274 0.067074
v 0.156057 -0.003861 0.077017
v 0.144471 -0.012647 -0.117260
v 0.124364 -0.000562 -0.113301
v 0.196791 0.006907 0.068501
v 0.172547 0.017148 0.078333
v 0.164743 0.013192 -0.121719
v 0.144742 0.024148 -0.117758
v -0.063100 -0.002880 0.122799
v -0.082736 0.022367 0.124412
v -0.092439 -0.015901 -0.068611
v -0.106731 0.005646 -0.073798
v -0.041216 0.007049 0.118204
v -0.061144 0.031206 0.120355
v -0.067206 -0.005287 -0.077857
v -0.081843 0.015365 -0.082458
v 0.059304 -0.028297 0.096598
v 0.036544 -0.009388 0.103287
v 0.025301 -0.032472 -0.089604
v 0.007538 -0.014877 -0.089553
v 0.079027 -0.011698 0.094082
v 0.056219 0.006015 0.100991
v 0.048800 -0.013936 -0.097514
v 0.030910 0.002588 -0.097150
v 0.069293 0.014927 0.071814
v 0.081290 0.004405 -0.080018
v 0.077898 0.011993 -0.093550
v 0.011837 0.023464 0.093309
v 0.052984 0.019895 0.080812
v 0.134001 0.021752 0.067799
v 0.134898 0.017521 0.055307
v 0.051656 0.025746 0.023929
v 0.009257 0.017940 -0.066239
v 0.006115 0.017902 -0.087973
v 0.059461 0.026246 -0.089528
v -0.008447 0.041541 0.086420
v 0.056716 0.032046 0.077337
v 0.113275 0.034964 0.072910
v 0.000136 0.019477 0.075564
v 0.150551 0.043947 0.057767
v 0.158007 0.032514 0.032701
v 0.101424 0.034038 -0.007602
v 0.022503 0.032852 0.000028
v -0.023005 0.018028 -0.051948
v 0.119732 0.030101 -0.092610
v -0.040250 0.031693 0.080889
v 0.176192 0.039600 0.049242
v -0.009342 0.033016 0.038908
v 0.127946 0.034930 -0.020365
v 0.075787 0.021288 -0.044727
v -0.059101 0.028465 -0.064113
v -0.076646 0.041289 -0.068975
v -0.024660 0.038192 -0.069667
v -0.059879 0.044053 0.084115
v 0.207785 0.045826 0.032316
v -0.044486 0.034646 0.001133
v 0.157297 0.043441 -0.025072
v 0.145624 0.031726 -0.097196
v 0.170448 0.042614 -0.090337
v 0.123922 0.045370 -0.092874
v -0.088225 0.046180 0.007193
v -0.093276 0.036649 -0.032161
v 0.226910 0.044030 -0.026370
v -0.092329 0.050522 0.069653
v 0.087927 0.048008 0.027107
v -0.108583 0.051022 -0.023983
v 0.215604 0.052177 -0.001644
v -0.099844 0.056339 -0.032443
v 0.218684 0.059249 -0.048662
v 0.204708 0.056367 -0.062066
v 0.092155 0.047065 -0.062194
v 0.167085 0.052733 -0.093524
v -0.076297 0.060946 0.072609
v -0.018173 0.041847 0.042205
v -0.115310 0.057694 0.026603
v 0.197085 0.058820 0.033919
v 0.231943 0.056593 -0.024064
v -0.016680 0.046587 -0.042660
v -0.110248 0.069749 0.021406
v -0.032237 0.049039 -0.000112
v 0.103256 0.052063 -0.019512
v 0.208955 0.069420 -0.006581
v 0.155829 0.061307 -0.027921
v 0.204302 0.070210 -0.056968
vn -0.9612 0.2700 0.0563
vn -0.9599 0.2750 0.0541
vn -0.9555 0.2903 0.0530
vn -0.1837 -0.0439 -0.9820
vn 0.9599 0.2351 -0.1530
vn 0.9590 0.2389 -0.1521
vn 0.9562 0.2518 -0.1494
vn 0.1432 0.0146 0.9896
vn 0.2512 -0.9529 -0.1698
vn 0.2976 0.9538 0.0412
vn 0.0274 0.9908 0.1322
vn -0.3106 -0.9504 0.0141
vn 0.1943 -0.1539 0.9688
vn 0.1953 -0.1549 0.9684
vn 0.1955 -0.1561 0.9682
vn -0.2015 -0.3662 -0.9085
vn 0.2705 -0.3029 0.9138
vn -0.2589 0.9397 0.2236
vn -0.0374 -0.9965 -0.0750
vn -0.1808 -0.2121 -0.9604
vn 0.0356 -0.9867 0.1588
vn -0.3609 0.9316 -0.0433
vn -0.3026 0.9472 -0.1063
vn -0.2756 0.9518 -0.1345
vn -0.2503 -0.9376 0.2414
vn -0.0458 0.9940 -0.0998
vn 0.2393 0.9534 -0.1836
vn 0.3208 -0.9451 0.0623
vn 0.9811 0.1317 -0.1418
vn 0.9807 0.1344 -0.1420
vn 0.9743 0.1734 -0.1437
vn -0.9785 0.1805 0.1001
vn -0.9713 0.2099 0.1120
vn -0.9695 0.2236 0.0999
vn -0.9778 0.1538 0.1421
vn 0.9776 0.1003 -0.1851
vn -0.2227 -0.1654 -0.9607
vn 0.2917 -0.2237 0.9300
vn -0.2236 -0.2858 -0.9318
vn 0.2355 -0.1083 0.9658
vn 0.1837 0.0183 0.9828
vn 0.9599 0.1863 -0.2096
vn -0.2262 -0.0399 -0.9733
vn -0.9670 0.2298 0.1105
vn -0.9684 0.2278 0.1020
vn -0.9377 0.3473 -0.0065
vn -0.1956 0.1306 -0.9719
vn -0.1958 0.1297 -0.9720
vn -0.1949 0.1363 -0.9713
vn 0.9440 0.3177 -0.0897
vn 0.1557 0.1807 0.9711
vn 0.2291 -0.9535 -0.1956
vn 0.3278 0.9446 -0.0180
vn 0.0545 0.9961 0.0692
vn -0.3315 -0.9433 -0.0145
vn 0.1635 0.0143 0.9864
vn -0.1217 -0.2251 -0.9667
vn 0.1974 -0.1594 0.9673
vn 0.1980 -0.1602 0.9670
vn -0.2148 0.9526 0.2156
vn -0.2214 0.9494 0.2230
vn -0.2840 0.9127 0.2938
vn -0.0611 -0.9928 -0.1030
vn -0.1450 -0.0456 -0.9884
vn 0.0100 -0.9917 0.1283
vn -0.3050 0.9498 -0.0690
vn -0.2763 -0.9381 0.2089
vn -0.0164 0.9862 -0.1648
vn 0.2706 0.9311 -0.2448
vn 0.3001 -0.9532 0.0355
vn 0.9694 0.2230 -0.1023
vn -0.9607 0.2712 0.0601
vn 0.9740 0.1749 -0.1438
vn -0.1874 -0.0417 -0.9814
vn 0.2267 -0.1095 0.9678
vn -0.1548 -0.1783 -0.9717
vn 0.2042 0.0178 0.9788
vn 0.1855 0.1431 0.9722
vn 0.9554 0.2553 -0.1486
vn -0.2256 0.0877 -0.9703
vn -0.9543 0.2949 0.0489
vn -0.4140 -0.9086 0.0547
vn -0.4884 -0.8688 0.0811
vn -0.5008 -0.8613 0.0856
vn -0.2002 -0.0120 -0.9797
vn -0.2003 -0.0116 -0.9797
vn -0.2001 -0.0121 -0.9797
vn 0.4614 0.8859 -0.0469
vn 0.3891 0.9209 -0.0235
vn 0.4721 0.8801 -0.0505
vn 0.2634 -0.2624 0.9283
vn 0.2620 -0.2549 0.9308
vn 0.2614 -0.2520 0.9317
vn 0.7719 -0.6172 -0.1524
vn 0.7920 -0.5889 -0.1611
vn 0.7999 -0.5771 -0.1645
vn -0.7586 0.6381 0.1318
vn -0.7767 0.6144 0.1385
vn -0.7534 0.6447 0.1298
vn -0.7873 -0.5984 0.1488
vn -0.8271 -0.5388 0.1602
vn -0.8398 -0.5176 0.1639
vn -0.1888 -0.3406 -0.9210
vn -0.1900 -0.3456 -0.9190
vn -0.1904 -0.3473 -0.9182
vn 0.8102 0.5691 -0.1405
vn 0.7696 0.6252 -0.1299
vn 0.8222 0.5507 -0.1436
vn 0.1724 0.0690 0.9826
vn 0.1664 0.0519 0.9847
vn 0.1735 0.0722 0.9822
vn 0.3917 -0.9201 0.0056
vn 0.4103 -0.9119 -0.0005
vn 0.4129 -0.9108 -0.0013
vn -0.3744 0.9267 -0.0330
vn -0.3830 0.9232 -0.0329
vn -0.3839 0.9228 -0.0329
vn -0.6261 -0.7707 0.1186
vn -0.6818 -0.7184 0.1378
vn -0.6963 -0.7034 0.1429
vn -0.1825 -0.1791 -0.9668
vn -0.1825 -0.1785 -0.9669
vn -0.1823 -0.1812 -0.9664
vn 0.6596 0.7434 -0.1104
vn 0.6040 0.7916 -0.0928
vn 0.6728 0.7309 -0.1147
vn 0.2052 -0.1045 0.9731
vn 0.2049 -0.1084 0.9728
vn 0.2057 -0.0969 0.9738
vn 0.6041 -0.7921 -0.0871
vn 0.6273 -0.7728 -0.0961
vn 0.6334 -0.7675 -0.0985
vn -0.5880 0.8065 0.0618
vn -0.6058 0.7927 0.0679
vn -0.5848 0.8089 0.0607
vn 0.1795 0.9834 -0.0277
vn 0.1085 0.8784 0.4654
vn 0.0150 0.9734 -0.2286
vn -0.1198 0.7611 -0.6374
vn -0.1192 0.9378 -0.3262
vn 0.0358 0.9009 -0.4325
vn 0.0749 0.9783 0.1934
vn 0.0155 0.9765 0.2149
vn 0.0898 0.9038 -0.4184
vn 0.2191 0.9601 0.1737
vn 0.0018 1.0000 -0.0020
vn 0.0623 -0.1955 0.9787
vn 0.0598 -0.1986 0.9783
vn 0.0596 -0.1989 0.9782
vn 0.0172 0.4468 -0.8945
vn 0.6526 0.5234 -0.5479
vn -0.3000 -0.1759 -0.9376
vn -0.0623 -0.2567 -0.9645
vn -0.1601 0.1274 -0.9788
vn 0.3107 0.9149 0.2576
vn -0.0002 0.9672 0.2540
vn -0.2328 0.9031 0.3610
vn -0.0869 0.9755 -0.2021
vn 0.0234 0.9743 -0.2239
vn -0.3097 0.9444 -0.1104
vn -0.5954 0.6847 -0.4204
vn -0.3484 0.7776 0.5234
vn 0.0625 -0.1953 0.9788
vn -0.3360 -0.1683 -0.9267
vn -0.3361 -0.1682 -0.9267
vn -0.3359 -0.1684 -0.9267
vn -0.4832 0.8181 -0.3118
vn -0.3365 -0.1679 -0.9266
vn -0.4541 0.8826 0.1212
vn 0.1848 0.9365 0.2981
vn 0.1453 0.9827 0.1149
vn -0.0092 0.9987 0.0507
vn 0.0118 0.9623 0.2717
vn 0.0208 0.9565 -0.2910
vn -0.0431 0.9537 -0.2977
vn 0.3238 0.9323 -0.1609
vn -0.0622 0.9963 -0.0595
vn 0.4973 0.8040 0.3260
vn -0.0728 0.9956 -0.0583
vn 0.2558 -0.4043 0.8781
vn 0.1124 -0.5662 0.8165
vn 0.0586 0.3382 -0.9392
vn -0.1924 -0.5305 -0.8256
vn 0.0070 0.9993 0.0366
vn -0.2571 0.9579 -0.1277
vn 0.0271 0.9995 0.0179
vn 0.1229 0.9850 -0.1209
vn -0.2927 0.9502 -0.1070
vn 0.0358 0.3968 0.9172
vn 0.0239 -0.8089 0.5875
vn -0.3796 0.9209 -0.0882
vn 0.0509 0.0033 0.9987
vn 0.1762 -0.0314 0.9838
vn 0.5064 0.8467 -0.1632
vn 0.2578 0.9660 0.0221
vn -0.2520 0.9498 0.1855
vn -0.2525 0.9495 0.1862
vn -0.2483 0.9519 0.1795
vn -0.2476 0.9523 0.1782
vn 0.2132 0.9429 -0.2557
vn 0.7318 0.5517 0.4001
vn -0.0524 -0.9491 0.3105
vn 0.2835 -0.8955 0.3430
vn 0.0529 -0.2242 0.9731
vn 0.2181 0.9745 -0.0534
vn 0.0269 -0.9574 -0.2875
vn 0.5829 0.7694 -0.2611
vn -0.1998 0.9704 0.1355
vn -0.1872 0.9771 0.1015
vn 0.5300 0.8472 -0.0368
vn 0.7507 -0.2872 0.5950
vn 0.0548 -0.9580 0.2816
vn -0.3169 0.9454 -0.0758
vn -0.6428 0.0275 0.7656
vn -0.3346 0.1801 0.9250
vn 0.3448 -0.2759 -0.8972
vn 0.0101 -0.5562 -0.8310
vn -0.2851 -0.9569 0.0561
vn -0.1408 -0.9897 0.0241
vn 0.0135 -0.9553 -0.2952
vn -0.3475 -0.3239 -0.8800
vn 0.3662 0.9297 -0.0406
vn 0.0964 -0.9420 -0.3216
vn -0.4215 -0.2392 -0.8747
vn -0.7570 -0.5883 -0.2843
vn 0.3422 0.9364 -0.0780
vn -0.7763 0.4003 -0.4869
vn -0.8411 0.2488 0.4802
vn -0.0677 -0.9369 0.3430
vn -0.6537 0.4906 0.5762
vn 0.7229 -0.5063 -0.4702
vn 0.5393 -0.6941 -0.4769
vn 0.1141 -0.9276 -0.3559
vn -0.8336 -0.4231 -0.3551
vn -0.6862 -0.4321 -0.5852
vn 0.6897 -0.6601 0.2976
vn -0.1146 -0.9933 0.0153
vn 0.0322 -0.9971 0.0692
vn 0.0241 -0.9936 0.1101
vn 0.1832 -0.9808 0.0672
vn 0.1216 -0.9762 0.1798
vn 0.2459 -0.9624 0.1154
vn -0.5966 -0.2927 0.7473
vn 0.1654 -0.9447 0.2832
vn -0.2557 -0.9667 0.0034
vn -0.3347 -0.9411 -0.0487
vn 0.9327 -0.3200 0.1662
vn 0.0478 -0.9963 -0.0710
vn -0.0019 -0.9860 -0.1669
vn 0.1047 -0.9884 -0.1096
vn 0.2209 -0.9574 -0.1859
vn 0.1684 -0.9853 -0.0303
vn -0.1994 -0.9592 0.2003
vn -0.4698 -0.8823 0.0296
vn -0.6810 -0.6703 0.2947
vn -0.6326 -0.2839 0.7206
vn 0.1629 -0.9862 -0.0305
vn -0.3990 0.9169 -0.0000
vn -0.1965 0.1245 -0.9726
vn -0.1617 0.9745 0.1558
vn -0.4053 -0.9127 0.0517
vn -0.2003 -0.0115 -0.9797
vn 0.3818 0.9240 -0.0211
vn 0.2640 -0.2653 0.9273
vn 0.7652 -0.6262 -0.1496
vn -0.7830 0.6058 0.1409
vn -0.7764 -0.6132 0.1457
vn -0.1884 -0.3389 -0.9218
vn 0.7595 0.6379 -0.1273
vn 0.1652 0.0486 0.9851
vn 0.3897 -0.9209 0.0063
vn -0.3735 0.9270 -0.0330
vn -0.6147 -0.7804 0.1147
vn -0.1826 -0.1764 -0.9672
vn 0.5938 0.7996 -0.0897
vn 0.2043 -0.1161 0.9720
vn 0.5992 -0.7960 -0.0852
vn -0.6100 0.7894 0.0693
vt 0.389958 0.485081
vt 0.393176 0.481863
vt 0.393176 0.485081
vt 0.389958 0.477599
vt 0.393176 0.475427
vt 0.393176 0.477599
vt 0.389958 0.472209
vt 0.393176 0.468991
vt 0.393176 0.472209
vt 0.389958 0.464647
vt 0.393176 0.462555
vt 0.393176 0.464647
vt 0.396394 0.472209
vt 0.398566 0.468991
vt 0.398566 0.472209
vt 0.383522 0.472209
vt 0.385614 0.468991
vt 0.385614 0.472209
vt 0.387786 0.468991
vt 0.387786 0.472209
vt 0.400739 0.472209
vt 0.402830 0.468991
vt 0.402830 0.472209
vt 0.389958 0.466819
vt 0.393176 0.466819
vt 0.389958 0.481863
vt 0.393176 0.479772
vt 0.389958 0.468991
vt 0.400739 0.468991
vt 0.389958 0.479772
vt 0.398566 0.475427
vt 0.400739 0.475427
vt 0.388872 0.475427
vt 0.387786 0.475427
vt 0.402830 0.475427
vt 0.385614 0.475427
vt 0.383522 0.475427
vt 0.396394 0.475427
vt 0.389958 0.475427
vt 0.389958 0.488299
vt 0.393176 0.488299
vt 0.396394 0.485081
vt 0.396394 0.488299
vt 0.396394 0.477599
vt 0.396394 0.479772
vt 0.396394 0.466819
vt 0.396394 0.468991
vt 0.396394 0.481863
vt 0.396394 0.464647
vt 0.396394 0.462555
vt 0.389958 0.476513
vt 0.389958 0.462555
vt 0.383522 0.468991
vt 0.389958 0.467905
vt 0.388872 0.468991
vt 0.792877 0.516155
vt 0.798929 0.522207
vt 0.792877 0.522207
vt 0.792877 0.528259
vt 0.798929 0.528259
vt 0.792877 0.534311
vt 0.798929 0.540363
vt 0.792877 0.540363
vt 0.786825 0.528259
vt 0.786825 0.534311
vt 0.804981 0.528259
vt 0.798929 0.534311
vt 0.804981 0.534311
vt 0.295279 0.362007
vt 0.276551 0.362007
vt 0.276551 0.333740
vt 0.798929 0.516155
s 1
usemtl Material.033
f 18/1/1 26/2/2 34/3/3
f 13/4/4 27/5/4 32/6/4
f 20/7/5 28/8/6 33/9/7
f 12/10/8 25/11/8 29/12/8
f 19/13/9 14/14/9 24/15/9
f 18/16/10 12/17/10 21/18/10
f 21/18/11 16/19/11 23/20/11
f 22/21/12 1/22/12 17/23/12
f 16/24/13 29/12/14 31/25/15
f 4/26/16 30/27/16 26/2/16
f 6/28/17 31/25/17 28/8/17
f 23/20/18 6/28/18 20/7/18
f 24/15/19 11/29/19 22/21/19
f 10/30/20 32/6/20 30/27/20
f 15/31/21 22/21/21 9/32/21
f 20/7/22 36/33/23 13/34/24
f 9/32/25 17/23/25 3/35/25
f 10/36/26 23/20/26 13/34/26
f 4/37/27 21/18/27 10/36/27
f 7/38/28 24/15/28 15/31/28
f 8/39/29 33/9/30 27/5/31
f 2/40/32 34/3/33 25/41/34
f 25/41/35 17/42/35 1/43/35
f 27/5/36 19/13/36 7/38/36
f 30/27/37 15/44/37 9/45/37
f 28/8/38 14/46/38 5/47/38
f 26/2/39 9/45/39 3/48/39
f 31/25/40 11/49/40 14/46/40
f 29/12/41 1/50/41 11/49/41
f 33/9/42 5/47/42 19/13/42
f 32/6/43 7/38/43 15/44/43
f 34/3/33 3/48/44 17/42/45
f 18/1/46 4/26/46 26/2/46
f 36/51/47 27/5/48 13/4/49
f 20/7/50 6/28/50 28/8/50
f 12/10/51 2/52/51 25/11/51
f 19/13/52 5/47/52 14/14/52
f 18/16/53 2/53/53 12/17/53
f 21/18/54 12/17/54 16/19/54
f 22/21/55 11/29/55 1/22/55
f 16/24/56 12/10/56 29/12/56
f 4/26/57 10/30/57 30/27/57
f 35/54/58 31/25/15 6/28/59
f 23/20/60 35/55/61 6/28/62
f 24/15/63 14/14/63 11/29/63
f 10/30/64 13/4/64 32/6/64
f 15/31/65 24/15/65 22/21/65
f 13/34/66 23/20/66 20/7/66
f 9/32/67 22/21/67 17/23/67
f 10/36/68 21/18/68 23/20/68
f 4/37/69 18/16/69 21/18/69
f 7/38/70 19/13/70 24/15/70
f 8/39/71 20/7/71 33/9/71
f 2/40/72 18/1/1 34/3/3
f 25/41/34 34/3/33 17/42/45
f 27/5/31 33/9/30 19/13/73
f 30/27/74 32/6/74 15/44/74
f 28/8/75 31/25/75 14/46/75
f 26/2/76 30/27/76 9/45/76
f 31/25/77 29/12/77 11/49/77
f 29/12/78 25/11/78 1/50/78
f 33/9/7 28/8/6 5/47/79
f 32/6/80 27/5/80 7/38/80
f 34/3/3 26/2/2 3/48/81
f 37/56/82 40/57/83 39/58/84
f 40/57/85 43/59/86 39/58/87
f 44/60/88 41/61/89 43/59/90
f 41/61/91 38/62/92 37/63/93
f 39/64/94 41/61/95 37/65/96
f 40/66/97 42/67/98 44/60/99
f 45/56/100 48/57/101 47/58/102
f 48/57/103 51/59/104 47/58/105
f 52/60/106 49/61/107 51/59/108
f 49/61/109 46/62/110 45/63/111
f 47/64/112 49/61/113 45/65/114
f 52/60/115 46/68/116 50/67/117
f 53/56/118 56/57/119 55/58/120
f 56/57/121 59/59/122 55/58/123
f 60/60/124 57/61/125 59/59/126
f 57/61/127 54/62/128 53/63/129
f 55/64/130 57/61/131 53/65/132
f 56/66/133 58/67/134 60/60/135
f 20/7/22 8/39/258 36/33/23
f 36/51/47 8/39/259 27/5/48
f 35/54/58 16/24/13 31/25/15
f 23/20/60 16/19/260 35/55/61
f 37/56/82 38/72/261 40/57/83
f 40/57/85 44/60/262 43/59/86
f 44/60/88 42/67/263 41/61/89
f 41/61/91 42/67/264 38/62/92
f 39/64/94 43/59/265 41/61/95
f 40/66/97 38/68/266 42/67/98
f 45/56/100 46/72/267 48/57/101
f 48/57/103 52/60/268 51/59/104
f 52/60/106 50/67/269 49/61/107
f 49/61/109 50/67/270 46/62/110
f 47/64/112 51/59/271 49/61/113
f 52/60/115 48/66/272 46/68/116
f 53/56/118 54/72/273 56/57/119
f 56/57/121 60/60/274 59/59/122
f 60/60/124 58/67/275 57/61/125
f 57/61/127 58/67/276 54/62/128
f 55/64/130 59/59/277 57/61/131
f 56/66/133 54/68/278 58/67/134
usemtl Material.034
f 62/69/136 70/70/136 69/71/136
f 63/69/137 70/70/137 62/71/137
f 65/69/138 75/70/138 64/71/138
f 61/69/139 65/70/139 66/71/139
f 67/69/140 61/70/140 66/71/140
f 61/69/141 75/70/141 65/71/141
f 75/69/142 61/70/142 68/71/142
f 67/69/143 68/70/143 61/71/143
f 86/69/144 62/70/144 69/71/144
f 80/69/145 70/70/145 87/71/145
f 70/69/146 80/70/146 69/71/146
f 63/69/147 71/70/148 70/71/149
f 82/69/150 72/70/150 75/71/150
f 64/69/151 75/70/151 72/71/151
f 73/69/152 65/70/152 64/71/152
f 65/69/153 73/70/153 74/71/153
f 66/69/154 65/70/154 74/71/154
f 82/69/155 75/70/155 84/71/155
f 78/69/156 68/70/156 67/71/156
f 78/69/157 67/70/157 77/71/157
f 79/69/158 69/70/158 80/71/158
f 86/69/159 69/70/159 79/71/159
f 78/69/160 81/70/160 86/71/160
f 81/69/161 62/70/161 86/71/161
f 62/69/162 81/70/162 63/71/162
f 71/69/148 63/70/147 81/71/163
f 76/69/164 66/70/165 74/71/166
f 66/69/167 83/70/167 67/71/167
f 66/69/165 76/70/164 83/71/168
f 83/69/169 77/70/169 67/71/169
f 75/69/170 68/70/170 84/71/170
f 84/69/171 68/70/171 79/71/171
f 77/69/172 85/70/172 78/71/172
f 78/69/173 79/70/173 68/71/173
f 79/69/174 80/70/174 92/71/174
f 78/69/175 86/70/175 79/71/175
f 92/69/176 80/70/176 87/71/176
f 85/69/177 81/70/177 78/71/177
f 87/69/178 88/70/178 98/71/178
f 85/69/179 94/70/179 81/71/179
f 87/69/180 70/70/180 89/71/180
f 70/69/181 71/70/181 89/71/181
f 82/69/182 90/70/182 72/71/182
f 64/69/183 72/70/183 73/71/183
f 84/69/184 92/70/184 82/71/184
f 77/69/185 83/70/185 91/71/185
f 79/69/186 92/70/186 84/71/186
f 92/69/187 87/70/187 98/71/187
f 93/69/188 94/70/188 85/71/188
f 87/69/189 89/70/189 88/71/189
f 89/69/190 71/70/190 107/71/190
f 93/69/191 95/70/191 94/71/191
f 71/69/192 81/70/192 96/71/192
f 81/69/193 94/70/193 96/71/193
f 90/69/194 82/70/194 97/71/194
f 82/69/195 92/70/195 97/71/195
f 85/69/196 77/70/197 91/71/198
f 91/69/198 93/70/199 85/71/196
f 97/69/200 92/70/200 98/71/200
f 102/69/201 98/70/201 88/71/201
f 114/69/202 88/70/202 89/71/202
f 107/69/203 71/70/203 96/71/203
f 96/69/204 94/70/204 108/71/204
f 97/69/205 100/70/205 90/71/205
f 74/69/206 73/70/206 101/71/206
f 102/69/207 97/70/207 98/71/207
f 103/69/208 93/70/208 91/71/208
f 103/69/209 106/70/209 93/71/209
f 99/69/210 106/70/210 103/71/210
f 88/69/211 104/70/211 102/71/211
f 107/69/212 114/70/212 89/71/212
f 106/69/213 95/70/213 93/71/213
f 106/69/214 108/70/214 95/71/214
f 95/69/215 108/70/215 94/71/215
f 90/69/216 100/70/216 109/71/216
f 72/69/217 90/70/217 109/71/217
f 72/69/218 109/70/218 110/71/218
f 73/69/219 72/70/219 110/71/219
f 101/69/220 73/70/220 110/71/220
f 76/69/221 112/70/221 83/71/221
f 97/69/222 111/70/222 100/71/222
f 76/69/223 74/70/223 101/71/223
f 91/69/224 83/70/224 112/71/224
f 112/69/225 103/70/225 91/71/225
f 97/69/226 102/70/226 111/71/226
f 99/69/227 103/70/227 113/71/227
f 105/69/228 99/70/228 113/71/228
f 114/69/229 104/70/229 88/71/229
f 105/69/230 106/70/230 99/71/230
f 100/69/231 111/70/231 115/71/231
f 109/69/232 100/70/232 115/71/232
f 112/69/233 76/70/233 101/71/233
f 103/69/234 112/70/234 118/71/234
f 113/69/235 103/70/235 118/71/235
f 102/69/236 104/70/236 115/71/236
f 116/69/237 104/70/237 114/71/237
f 117/69/238 116/70/238 114/71/238
f 117/69/239 114/70/239 107/71/239
f 119/69/240 117/70/240 107/71/240
f 96/69/241 119/70/241 107/71/241
f 120/69/242 119/70/242 96/71/242
f 120/69/243 108/70/243 106/71/243
f 108/69/244 120/70/244 96/71/244
f 109/69/245 115/70/245 116/71/245
f 109/69/246 116/70/246 110/71/246
f 111/69/247 102/70/247 115/71/247
f 101/69/248 110/70/248 117/71/248
f 117/69/249 110/70/249 116/71/249
f 112/69/250 101/70/250 119/71/250
f 118/69/251 112/70/251 119/71/251
f 119/69/252 101/70/252 117/71/252
f 116/69/253 115/70/253 104/71/253
f 120/69/254 113/70/254 118/71/254
f 105/69/255 113/70/255 120/71/255
f 120/69/256 106/70/256 105/71/256
f 118/69/257 119/70/257 120/71/257
