# Blender 4.0.2
# www.blender.org
mtllib soda.mtl
g Cylinder_Mesh
v -0.000000 -0.068072 -0.035128
v 0.000000 -0.067317 -0.048256
v 0.000000 0.068072 -0.035128
v 0.000000 0.067317 -0.048256
v 0.018992 -0.068072 -0.029552
v 0.026089 -0.067317 -0.040596
v 0.018992 0.068072 -0.029552
v 0.026089 0.067317 -0.040596
v 0.031954 -0.068072 -0.014593
v 0.043895 -0.067317 -0.020046
v 0.031954 0.068072 -0.014593
v 0.043895 0.067317 -0.020046
v 0.034771 -0.068072 0.004999
v 0.047765 -0.067317 0.006868
v 0.034771 0.068072 0.004999
v 0.047765 0.067317 0.006868
v 0.026548 -0.068072 0.023004
v 0.036470 -0.067317 0.031601
v 0.026548 0.068072 0.023004
v 0.036470 0.067317 0.031601
v 0.009897 -0.068072 0.033705
v 0.013595 -0.067317 0.046301
v 0.009897 0.068072 0.033705
v 0.013595 0.067317 0.046301
v -0.009897 -0.068072 0.033705
v -0.013595 -0.067317 0.046301
v -0.009897 0.068072 0.033705
v -0.013595 0.067317 0.046301
v -0.026548 -0.068072 0.023004
v -0.036470 -0.067317 0.031601
v -0.026548 0.068072 0.023004
v -0.036470 0.067317 0.031601
v -0.034771 -0.068072 0.004999
v -0.047765 -0.067317 0.006868
v -0.034771 0.068072 0.004999
v -0.047765 0.067317 0.006868
v -0.031954 -0.068072 -0.014593
v -0.043895 -0.067317 -0.020046
v -0.031954 0.068072 -0.014593
v -0.043895 0.067317 -0.020046
v -0.018992 -0.068072 -0.029552
v -0.026089 -0.067317 -0.040596
v -0.018992 0.068072 -0.029552
v -0.026089 0.067317 -0.040596
v 0.023203 -0.075311 -0.036105
v -0.000000 -0.075311 -0.042918
v 0.000000 0.075311 -0.042918
v 0.023203 0.075311 -0.036105
v 0.039039 -0.075311 -0.017829
v 0.039039 0.075311 -0.017829
v 0.042481 -0.075311 0.006108
v 0.042481 0.075311 0.006108
v 0.032435 -0.075311 0.028105
v 0.032435 0.075311 0.028105
v 0.012091 -0.075311 0.041179
v 0.012091 0.075311 0.041179
v -0.012091 -0.075311 0.041179
v -0.012091 0.075311 0.041179
v -0.032435 -0.075311 0.028105
v -0.032435 0.075311 0.028105
v -0.042481 -0.075311 0.006108
v -0.042481 0.075311 0.006108
v -0.039039 -0.075311 -0.017829
v -0.039039 0.075311 -0.017829
v -0.023203 -0.075311 -0.036105
v -0.023203 0.075311 -0.036105
vn -0.2817 -0.0000 -0.9595
vn 0.9898 -0.0000 -0.1423
vn 0.9096 -0.0000 0.4154
vn 0.5406 -0.0000 0.8413
vn -0.0000 -0.0000 1.0000
vn -0.5406 -0.0000 0.8413
vn -0.9096 -0.0000 0.4154
vn -0.9898 -0.0000 -0.1423
vn -0.7557 -0.0000 -0.6549
vn 0.7557 -0.0000 -0.6549
vn -0.0000 1.0000 -0.0000
vn 0.2817 -0.0000 -0.9595
vn 0.2372 -0.5395 -0.8079
vn 0.2372 0.5395 -0.8079
vn 0.6363 -0.5395 -0.5514
vn 0.6363 0.5395 -0.5514
vn 0.8334 -0.5395 -0.1198
vn 0.8334 0.5395 -0.1198
vn 0.7659 -0.5395 0.3498
vn 0.7659 0.5395 0.3498
vn 0.4552 -0.5395 0.7083
vn 0.4552 0.5395 0.7083
vn -0.0000 -0.5395 0.8420
vn -0.0000 0.5395 0.8420
vn -0.4552 -0.5395 0.7083
vn -0.4552 0.5395 0.7083
vn -0.7659 -0.5395 0.3498
vn -0.7659 0.5395 0.3498
vn -0.8334 -0.5395 -0.1198
vn -0.8334 0.5395 -0.1198
vn -0.6363 -0.5395 -0.5514
vn -0.6363 0.5395 -0.5514
vn -0.2372 -0.5395 -0.8079
vn -0.2372 0.5395 -0.8079
vn -0.0000 -1.0000 -0.0000
vn -0.1960 -0.7183 0.6675
vn -0.1960 0.7183 0.6675
vn -0.5258 -0.7183 0.4556
vn -0.5258 0.7183 0.4556
vn -0.6886 -0.7183 0.0990
vn -0.6886 0.7183 0.0990
vn -0.6328 -0.7183 -0.2890
vn -0.6328 0.7183 -0.2890
vn -0.3761 -0.7183 -0.5853
vn -0.3761 0.7183 -0.5853
vn -0.0000 -0.7183 -0.6957
vn -0.0000 0.7183 -0.6957
vn 0.3761 -0.7183 -0.5853
vn 0.3761 0.7183 -0.5853
vn 0.6328 -0.7183 -0.2890
vn 0.6328 0.7183 -0.2890
vn 0.6886 -0.7183 0.0990
vn 0.6886 0.7183 0.0990
vn 0.5258 -0.7183 0.4556
vn 0.5258 0.7183 0.4556
vn 0.1960 -0.7183 0.6675
vn 0.1960 0.7183 0.6675
vt 0.104304 0.977674
vt 0.057923 0.749656
vt 0.104304 0.749656
vt 0.449962 0.977674
vt 0.403581 0.749656
vt 0.449962 0.749656
vt 0.403581 0.977674
vt 0.382591 0.749656
vt 0.382591 0.977674
vt 0.336210 0.749656
vt 0.382591 0.749656
vt 0.336210 0.977674
vt 0.289829 0.749656
vt 0.289829 0.977674
vt 0.243448 0.749656
vt 0.289829 0.749656
vt 0.243448 0.977674
vt 0.197067 0.749656
vt 0.197067 0.977674
vt 0.150686 0.749656
vt 0.150686 0.977674
vt 0.496343 0.977674
vt 0.496343 0.749656
vt 0.223908 0.659425
vt 0.247045 0.710090
vt 0.193604 0.694398
vt 0.426687 0.981494
vt 0.383864 0.845445
vt 0.426687 0.845445
vt 0.113551 0.654660
vt 0.136289 0.652637
vt 0.136289 0.647984
vt 0.223908 0.647984
vt 0.203685 0.658574
vt 0.201170 0.654660
vt 0.098033 0.672570
vt 0.116067 0.658574
vt 0.185651 0.672570
vt 0.189883 0.674503
vt 0.094660 0.696026
vt 0.102265 0.674503
vt 0.182279 0.696026
vt 0.186884 0.695364
vt 0.104504 0.717582
vt 0.099265 0.695364
vt 0.195639 0.714535
vt 0.192123 0.717582
vt 0.125751 0.725930
vt 0.108021 0.714535
vt 0.213370 0.725930
vt 0.212059 0.730394
vt 0.148138 0.730394
vt 0.124440 0.730394
vt 0.234446 0.725930
vt 0.235756 0.730394
vt 0.168073 0.717582
vt 0.146827 0.725930
vt 0.255692 0.717582
vt 0.252176 0.714535
vt 0.177918 0.696026
vt 0.164557 0.714535
vt 0.260931 0.695364
vt 0.265536 0.696026
vt 0.170313 0.674503
vt 0.173312 0.695364
vt 0.257932 0.674503
vt 0.262164 0.672570
vt 0.174545 0.672570
vt 0.156511 0.658574
vt 0.244130 0.658574
vt 0.246645 0.654660
vt 0.159027 0.654660
vt 0.223908 0.652637
vt 0.119737 0.664285
vt 0.127663 0.719416
vt 0.164138 0.677323
vt 0.136289 0.659425
vt 0.207355 0.664285
vt 0.108440 0.677323
vt 0.196059 0.677323
vt 0.105985 0.694398
vt 0.113151 0.710090
vt 0.200770 0.710090
vt 0.144914 0.719416
vt 0.232533 0.719416
vt 0.215282 0.719416
vt 0.159427 0.710090
vt 0.166593 0.694398
vt 0.254212 0.694398
vt 0.152841 0.664285
vt 0.240460 0.664285
vt 0.251756 0.677323
vt 0.057923 0.977674
vt 0.383864 0.981494
s 1
usemtl Material.040
f 44/1/1 2/2/1 42/3/1
f 12/4/2 14/5/2 10/6/2
f 16/7/3 18/8/3 14/5/3
f 20/9/4 22/10/4 18/11/4
f 24/12/5 26/13/5 22/10/5
f 28/14/6 30/15/6 26/16/6
f 32/17/7 34/18/7 30/15/7
f 36/19/8 38/20/8 34/18/8
f 40/21/9 42/3/9 38/20/9
f 8/22/10 10/6/10 6/23/10
f 3/24/11 31/25/11 15/26/11
f 4/27/12 6/28/12 2/29/12
f 6/30/13 46/31/13 2/32/13
f 4/33/14 48/34/14 8/35/14
f 10/36/15 45/37/15 6/30/15
f 12/38/16 48/34/16 50/39/16
f 14/40/17 49/41/17 10/36/17
f 16/42/18 50/39/18 52/43/18
f 18/44/19 51/45/19 14/40/19
f 16/42/20 54/46/20 20/47/20
f 18/44/21 55/48/21 53/49/21
f 20/47/22 56/50/22 24/51/22
f 26/52/23 55/48/23 22/53/23
f 24/51/24 58/54/24 28/55/24
f 30/56/25 57/57/25 26/52/25
f 32/58/26 58/54/26 60/59/26
f 34/60/27 59/61/27 30/56/27
f 32/58/28 62/62/28 36/63/28
f 34/60/29 63/64/29 61/65/29
f 36/63/30 64/66/30 40/67/30
f 38/68/31 65/69/31 63/64/31
f 40/67/32 66/70/32 44/71/32
f 2/32/33 65/69/33 42/72/33
f 44/71/34 47/73/34 4/33/34
f 5/74/35 21/75/35 37/76/35
f 1/77/36 45/37/36 5/74/36
f 7/78/37 47/73/37 3/24/37
f 5/74/38 49/41/38 9/79/38
f 11/80/39 48/34/39 7/78/39
f 9/79/40 51/45/40 13/81/40
f 15/26/41 50/39/41 11/80/41
f 13/81/42 53/49/42 17/82/42
f 19/83/43 52/43/43 15/26/43
f 17/82/44 55/48/44 21/75/44
f 19/83/45 56/50/45 54/46/45
f 21/75/46 57/57/46 25/84/46
f 27/85/47 56/50/47 23/86/47
f 29/87/48 57/57/48 59/61/48
f 31/25/49 58/54/49 27/85/49
f 29/87/50 61/65/50 33/88/50
f 31/25/51 62/62/51 60/59/51
f 33/88/52 63/64/52 37/76/52
f 35/89/53 64/66/53 62/62/53
f 41/90/54 63/64/54 65/69/54
f 43/91/55 64/66/55 39/92/55
f 41/90/56 46/31/56 1/77/56
f 3/24/57 66/70/57 43/91/57
f 44/1/1 4/93/1 2/2/1
f 12/4/2 16/7/2 14/5/2
f 16/7/3 20/9/3 18/8/3
f 20/9/4 24/12/4 22/10/4
f 24/12/5 28/14/5 26/13/5
f 28/14/6 32/17/6 30/15/6
f 32/17/7 36/19/7 34/18/7
f 36/19/8 40/21/8 38/20/8
f 40/21/9 44/1/9 42/3/9
f 8/22/10 12/4/10 10/6/10
f 11/80/11 7/78/11 3/24/11
f 3/24/11 43/91/11 39/92/11
f 39/92/11 35/89/11 31/25/11
f 31/25/11 27/85/11 23/86/11
f 23/86/11 19/83/11 15/26/11
f 15/26/11 11/80/11 3/24/11
f 3/24/11 39/92/11 31/25/11
f 31/25/11 23/86/11 15/26/11
f 4/27/12 8/94/12 6/28/12
f 6/30/13 45/37/13 46/31/13
f 4/33/14 47/73/14 48/34/14
f 10/36/15 49/41/15 45/37/15
f 12/38/16 8/35/16 48/34/16
f 14/40/17 51/45/17 49/41/17
f 16/42/18 12/38/18 50/39/18
f 18/44/19 53/49/19 51/45/19
f 16/42/20 52/43/20 54/46/20
f 18/44/21 22/53/21 55/48/21
f 20/47/22 54/46/22 56/50/22
f 26/52/23 57/57/23 55/48/23
f 24/51/24 56/50/24 58/54/24
f 30/56/25 59/61/25 57/57/25
f 32/58/26 28/55/26 58/54/26
f 34/60/27 61/65/27 59/61/27
f 32/58/28 60/59/28 62/62/28
f 34/60/29 38/68/29 63/64/29
f 36/63/30 62/62/30 64/66/30
f 38/68/31 42/72/31 65/69/31
f 40/67/32 64/66/32 66/70/32
f 2/32/33 46/31/33 65/69/33
f 44/71/34 66/70/34 47/73/34
f 41/90/35 1/77/35 5/74/35
f 5/74/35 9/79/35 13/81/35
f 13/81/35 17/82/35 21/75/35
f 21/75/35 25/84/35 29/87/35
f 29/87/35 33/88/35 37/76/35
f 37/76/35 41/90/35 5/74/35
f 5/74/35 13/81/35 21/75/35
f 21/75/35 29/87/35 37/76/35
f 1/77/36 46/31/36 45/37/36
f 7/78/37 48/34/37 47/73/37
f 5/74/38 45/37/38 49/41/38
f 11/80/39 50/39/39 48/34/39
f 9/79/40 49/41/40 51/45/40
f 15/26/41 52/43/41 50/39/41
f 13/81/42 51/45/42 53/49/42
f 19/83/43 54/46/43 52/43/43
f 17/82/44 53/49/44 55/48/44
f 19/83/45 23/86/45 56/50/45
f 21/75/46 55/48/46 57/57/46
f 27/85/47 58/54/47 56/50/47
f 29/87/48 25/84/48 57/57/48
f 31/25/49 60/59/49 58/54/49
f 29/87/50 59/61/50 61/65/50
f 31/25/51 35/89/51 62/62/51
f 33/88/52 61/65/52 63/64/52
f 35/89/53 39/92/53 64/66/53
f 41/90/54 37/76/54 63/64/54
f 43/91/55 66/70/55 64/66/55
f 41/90/56 65/69/56 46/31/56
f 3/24/57 47/73/57 66/70/57
