# Blender 4.0.2
# www.blender.org
mtllib soup.mtl
g Sphere_Mesh
v -0.000000 -0.005630 0.084394
v 0.016665 -0.048478 0.028864
v 0.031320 -0.031556 0.054247
v 0.042197 -0.005630 0.073087
v 0.047985 0.026173 0.083112
v 0.047985 0.060017 0.083112
v 0.028864 -0.048478 0.016665
v 0.054248 -0.031556 0.031320
v 0.073087 -0.005630 0.042197
v 0.083112 0.026173 0.047985
v 0.083112 0.060017 0.047985
v 0.033330 -0.048478 -0.000000
v 0.062640 -0.031556 -0.000000
v 0.084394 -0.005630 -0.000000
v 0.095969 0.026173 0.000000
v 0.095969 0.060017 0.000000
v 0.028864 -0.048478 -0.016665
v 0.054247 -0.031556 -0.031320
v 0.073087 -0.005630 -0.042197
v 0.083112 0.026173 -0.047985
v 0.083112 0.060017 -0.047985
v 0.016665 -0.048478 -0.028865
v 0.031320 -0.031556 -0.054248
v 0.042197 -0.005630 -0.073087
v 0.047985 0.026173 -0.083112
v 0.047985 0.060017 -0.083112
v -0.000000 -0.048478 -0.033330
v -0.000000 -0.031556 -0.062640
v -0.000000 -0.005630 -0.084394
v -0.000000 0.026173 -0.095969
v -0.000000 0.060017 -0.095969
v -0.016665 -0.048478 -0.028865
v -0.031320 -0.031556 -0.054248
v -0.042197 -0.005630 -0.073087
v -0.047985 0.026173 -0.083112
v -0.047985 0.060017 -0.083112
v -0.028864 -0.048478 -0.016665
v -0.054248 -0.031556 -0.031320
v -0.073087 -0.005630 -0.042197
v -0.083112 0.026173 -0.047985
v -0.083112 0.060017 -0.047985
v -0.033330 -0.048478 -0.000000
v -0.062640 -0.031556 -0.000000
v -0.084394 -0.005630 0.000000
v -0.095969 0.026173 0.000000
v -0.095969 0.060017 0.000000
v -0.028864 -0.048478 0.016665
v -0.054247 -0.031556 0.031320
v -0.073087 -0.005630 0.042197
v -0.083112 0.026173 0.047985
v -0.083112 0.060017 0.047985
v -0.016665 -0.048478 0.028864
v -0.031320 -0.031556 0.054247
v -0.042197 -0.005630 0.073087
v -0.047985 0.026173 0.083112
v -0.047985 0.060017 0.083112
v -0.000000 -0.048478 0.033330
v 0.000000 -0.031556 0.062640
v -0.000000 0.026173 0.095969
v -0.000000 0.060017 0.095969
v 0.000545 -0.048478 0.017210
v 0.017210 -0.048478 0.000545
v -0.017210 -0.048478 -0.000545
v -0.000545 -0.048478 -0.017210
v 0.019899 -0.069190 0.034466
v 0.038470 -0.047874 0.066633
v 0.051667 -0.016218 0.089490
v 0.058678 0.022507 0.101633
v 0.058834 0.060017 0.101903
v -0.000000 -0.016218 0.103334
v 0.034466 -0.069190 0.019899
v 0.066633 -0.047874 0.038470
v 0.089490 -0.016218 0.051667
v 0.101633 0.022507 0.058678
v 0.101903 0.060017 0.058834
v 0.039798 -0.069190 -0.000000
v 0.076941 -0.047874 -0.000000
v 0.103334 -0.016218 -0.000000
v 0.117356 0.022507 0.000000
v 0.117668 0.060017 0.000000
v 0.034466 -0.069190 -0.019899
v 0.066633 -0.047874 -0.038470
v 0.089490 -0.016218 -0.051667
v 0.101633 0.022507 -0.058678
v 0.101903 0.060017 -0.058834
v 0.019899 -0.069190 -0.034466
v 0.038470 -0.047874 -0.066633
v 0.051667 -0.016218 -0.089490
v 0.058678 0.022507 -0.101633
v 0.058834 0.060017 -0.101903
v -0.000000 -0.069190 -0.039798
v -0.000000 -0.047874 -0.076941
v -0.000000 -0.016218 -0.103334
v -0.000000 0.022507 -0.117356
v -0.000000 0.060017 -0.117668
v -0.019899 -0.069190 -0.034466
v -0.038470 -0.047874 -0.066633
v -0.051667 -0.016218 -0.089490
v -0.058678 0.022507 -0.101633
v -0.058834 0.060017 -0.101903
v -0.034466 -0.069190 -0.019899
v -0.066633 -0.047874 -0.038470
v -0.089490 -0.016218 -0.051667
v -0.101633 0.022507 -0.058678
v -0.101903 0.060017 -0.058834
v -0.039798 -0.069190 -0.000000
v -0.076941 -0.047874 -0.000000
v -0.103334 -0.016218 0.000000
v -0.117356 0.022507 0.000000
v -0.117668 0.060017 0.000000
v -0.034466 -0.069190 0.019899
v -0.066633 -0.047874 0.038470
v -0.089490 -0.016218 0.051667
v -0.101633 0.022507 0.058678
v -0.101903 0.060017 0.058834
v -0.019899 -0.069190 0.034466
v -0.038470 -0.047874 0.066633
v -0.051667 -0.016218 0.089490
v -0.058678 0.022507 0.101633
v -0.058834 0.060017 0.101903
v -0.000000 -0.069190 0.039798
v 0.000000 -0.047874 0.076941
v -0.000000 0.022507 0.117356
v -0.000000 0.060017 0.117668
v 0.000545 -0.070176 0.017210
v -0.017210 -0.070176 -0.000545
v 0.017210 -0.070176 0.000545
v -0.000545 -0.070176 -0.017210
v -0.080245 0.042840 -0.080245
v 0.080245 0.042840 -0.080245
v -0.080245 0.042840 0.080245
v 0.080245 0.042840 0.080245
v -0.097450 0.042840 0.000000
v 0.097450 0.042840 0.000000
v -0.000000 0.042840 -0.097450
v -0.000000 0.042840 0.097450
v -0.000000 0.042840 0.000000
v 0.097450 0.042840 0.048725
v -0.097450 0.042840 0.048725
v -0.000000 0.033142 0.048725
v -0.097450 0.042840 -0.048725
v 0.097450 0.042840 -0.048725
v -0.000000 0.053209 -0.048725
v -0.048725 0.042840 0.097450
v -0.048725 0.053038 0.000000
v -0.048725 0.042840 -0.097450
v -0.048725 0.042840 0.048725
v -0.048725 0.042840 -0.048725
v 0.048725 0.042840 -0.097450
v 0.048725 0.042840 0.097450
v 0.048725 0.038345 0.000000
v 0.048725 0.042840 0.048725
v 0.048725 0.042840 -0.048725
vn -0.1328 0.8584 -0.4956
vn -0.2011 0.6297 -0.7504
vn -0.2442 0.3317 -0.9113
vn -0.2588 -0.0000 -0.9659
vn -0.5493 0.6297 -0.5493
vn -0.6671 0.3317 -0.6671
vn -0.7071 -0.0000 -0.7071
vn -0.3628 0.8584 -0.3628
vn -0.9659 -0.0000 -0.2588
vn -0.4956 0.8584 -0.1328
vn -0.7504 0.6297 -0.2011
vn -0.9113 0.3317 -0.2442
vn -0.7504 0.6297 0.2011
vn -0.9113 0.3317 0.2442
vn -0.9659 -0.0000 0.2588
vn -0.4956 0.8584 0.1328
vn -0.6671 0.3317 0.6671
vn -0.7071 -0.0000 0.7071
vn -0.3628 0.8584 0.3628
vn -0.5493 0.6297 0.5493
vn -0.1328 0.8584 0.4956
vn -0.2011 0.6297 0.7504
vn -0.2442 0.3317 0.9113
vn -0.2588 -0.0000 0.9659
vn 0.2442 0.3317 0.9113
vn 0.2588 -0.0000 0.9659
vn 0.1328 0.8584 0.4956
vn 0.2011 0.6297 0.7504
vn 0.7071 -0.0000 0.7071
vn 0.3628 0.8584 0.3628
vn 0.5493 0.6297 0.5493
vn 0.6671 0.3317 0.6671
vn 0.7504 0.6297 0.2011
vn 0.9113 0.3317 0.2442
vn 0.9659 -0.0000 0.2588
vn 0.4956 0.8584 0.1328
vn 0.9113 0.3317 -0.2442
vn 0.9659 -0.0000 -0.2588
vn 0.4956 0.8584 -0.1328
vn 0.7504 0.6297 -0.2011
vn 0.3628 0.8584 -0.3628
vn 0.5493 0.6297 -0.5493
vn 0.6671 0.3317 -0.6671
vn 0.7071 -0.0000 -0.7071
vn 0.2442 0.3317 -0.9113
vn 0.2588 -0.0000 -0.9659
vn 0.1328 0.8584 -0.4956
vn 0.2011 0.6297 -0.7504
vn -0.0000 1.0000 -0.0000
vn 0.1322 -0.8597 0.4934
vn 0.2016 -0.6272 0.7523
vn 0.2443 -0.3301 0.9118
vn 0.2588 -0.0080 0.9659
vn 0.5507 -0.6272 0.5507
vn 0.6675 -0.3301 0.6675
vn 0.7071 -0.0080 0.7071
vn 0.3612 -0.8597 0.3612
vn 0.9659 -0.0080 0.2588
vn 0.4934 -0.8597 0.1322
vn 0.7523 -0.6272 0.2016
vn 0.9118 -0.3301 0.2443
vn 0.7523 -0.6272 -0.2016
vn 0.9118 -0.3301 -0.2443
vn 0.9659 -0.0080 -0.2588
vn 0.4934 -0.8597 -0.1322
vn 0.6675 -0.3301 -0.6675
vn 0.7071 -0.0080 -0.7071
vn 0.3612 -0.8597 -0.3612
vn 0.5507 -0.6272 -0.5507
vn 0.1322 -0.8597 -0.4934
vn 0.2016 -0.6272 -0.7523
vn 0.2443 -0.3301 -0.9118
vn 0.2588 -0.0080 -0.9659
vn -0.2443 -0.3301 -0.9118
vn -0.2588 -0.0080 -0.9659
vn -0.1322 -0.8597 -0.4934
vn -0.2016 -0.6272 -0.7523
vn -0.7071 -0.0080 -0.7071
vn -0.3612 -0.8597 -0.3612
vn -0.5507 -0.6272 -0.5507
vn -0.6675 -0.3301 -0.6675
vn -0.7523 -0.6272 -0.2016
vn -0.9118 -0.3301 -0.2443
vn -0.9659 -0.0080 -0.2588
vn -0.4934 -0.8597 -0.1322
vn -0.9118 -0.3301 0.2443
vn -0.9659 -0.0080 0.2588
vn -0.4934 -0.8597 0.1322
vn -0.7523 -0.6272 0.2016
vn -0.3612 -0.8597 0.3612
vn -0.5507 -0.6272 0.5507
vn -0.6675 -0.3301 0.6675
vn -0.7071 -0.0080 0.7071
vn -0.2443 -0.3301 0.9118
vn -0.2588 -0.0080 0.9659
vn -0.1322 -0.8597 0.4934
vn -0.2016 -0.6272 0.7523
vn -0.0001 -0.9990 0.0436
vn 0.0002 -0.9990 0.0436
vn 0.0118 -0.9990 0.0439
vn -0.0261 -0.9993 0.0261
vn -0.0436 -0.9990 0.0001
vn -0.0436 -0.9990 -0.0002
vn -0.0434 -0.9990 0.0116
vn 0.0269 -0.9993 0.0269
vn -0.0000 -1.0000 -0.0000
vn -0.0269 -0.9993 -0.0269
vn 0.0436 -0.9990 0.0002
vn 0.0436 -0.9990 -0.0001
vn 0.0439 -0.9990 0.0118
vn 0.0262 -0.9993 -0.0262
vn 0.0262 -0.9993 -0.0261
vn -0.0002 -0.9990 -0.0436
vn 0.0001 -0.9990 -0.0436
vn 0.0116 -0.9990 -0.0434
vn 0.0460 -0.9979 -0.0460
vn 0.0915 -0.9916 -0.0915
vn 0.0017 -1.0000 -0.0017
vn -0.2007 -0.9589 0.2007
vn -0.0979 -0.9904 0.0979
vn -0.1962 -0.9608 -0.1962
vn -0.2007 -0.9589 -0.2007
vn 0.0460 -0.9979 0.0460
vn 0.0915 -0.9916 0.0915
vn 0.1044 -0.9890 0.1044
vn 0.1027 -0.9894 -0.1027
vn 0.1027 -0.9894 0.1027
vn -0.1044 -0.9890 0.1044
vn -0.2038 -0.9576 0.2038
vn 0.0524 -0.9972 -0.0524
vn 0.1916 -0.9626 -0.1916
vn -0.1487 -0.9776 -0.1487
vn -0.2038 -0.9576 -0.2038
vn 0.0979 -0.9904 0.0979
vn 0.1916 -0.9626 0.1916
vn -0.0116 -0.9990 0.0433
vn -0.0439 -0.9990 -0.0118
vn 0.0434 -0.9990 -0.0116
vn -0.0118 -0.9990 -0.0439
vn 0.2038 -0.9576 -0.2038
vn -0.1916 -0.9626 0.1916
vn -0.1916 -0.9626 -0.1916
vn 0.2038 -0.9576 0.2038
vn 0.2007 -0.9589 -0.2007
vn 0.2007 -0.9589 0.2007
vn -0.0915 -0.9916 0.0915
vn -0.0915 -0.9916 -0.0915
vt 0.794789 0.310436
vt 0.797836 0.314499
vt 0.797836 0.310436
vt 0.794789 0.306373
vt 0.797836 0.306373
vt 0.797836 0.302310
vt 0.794789 0.298247
vt 0.797836 0.298247
vt 0.791742 0.310436
vt 0.791742 0.302310
vt 0.794789 0.302310
vt 0.791742 0.298247
vt 0.794789 0.314499
vt 0.788694 0.298247
vt 0.788694 0.310436
vt 0.791742 0.314499
vt 0.788694 0.306373
vt 0.791742 0.306373
vt 0.788694 0.302310
vt 0.785647 0.306373
vt 0.785647 0.302310
vt 0.785647 0.298247
vt 0.785647 0.310436
vt 0.788694 0.314499
vt 0.782600 0.302310
vt 0.782600 0.298247
vt 0.782600 0.310436
vt 0.785647 0.314499
vt 0.782600 0.306373
vt 0.779552 0.310436
vt 0.782600 0.314499
vt 0.779552 0.306373
vt 0.779552 0.302310
vt 0.779552 0.298247
vt 0.776505 0.302310
vt 0.776505 0.298247
vt 0.776505 0.310436
vt 0.779552 0.314499
vt 0.773458 0.298247
vt 0.773458 0.314499
vt 0.776505 0.314499
vt 0.776505 0.306373
vt 0.773458 0.310436
vt 0.773458 0.302310
vt 0.773458 0.306373
vt 0.770410 0.310436
vt 0.770410 0.302310
vt 0.770410 0.298247
vt 0.770410 0.314499
vt 0.803931 0.302310
vt 0.806979 0.306373
vt 0.806979 0.302310
vt 0.803931 0.298247
vt 0.806979 0.298247
vt 0.806979 0.310436
vt 0.803931 0.314499
vt 0.806979 0.314499
vt 0.803931 0.310436
vt 0.800884 0.314499
vt 0.800884 0.306373
vt 0.803931 0.306373
vt 0.800884 0.302310
vt 0.800884 0.298247
vt 0.800884 0.310436
vt 0.770410 0.306373
vt 0.236511 0.497623
vt 0.278617 0.539729
vt 0.236511 0.539729
vt 0.236511 0.413411
vt 0.278617 0.455517
vt 0.236511 0.455517
vt 0.152299 0.413411
vt 0.194405 0.455517
vt 0.152299 0.455517
vt 0.152299 0.497623
vt 0.194405 0.539729
vt 0.152299 0.539729
vt 0.194405 0.371305
vt 0.152299 0.371305
vt 0.278617 0.371305
vt 0.236511 0.371305
vt 0.110192 0.371305
vt 0.110192 0.413411
vt 0.110192 0.455517
vt 0.110192 0.497623
vt 0.110192 0.539729
vt 0.194405 0.413411
vt 0.194405 0.497623
vt 0.278617 0.497623
vt 0.278617 0.413411
s 1
usemtl Material.041
f 3/1/1 57/2/1 58/3/1
f 4/4/2 58/3/2 1/5/2
f 59/6/3 4/4/3 1/5/3
f 6/7/4 59/6/4 60/8/4
f 4/4/5 8/9/5 3/1/5
f 10/10/6 4/4/6 5/11/6
f 11/12/7 5/11/7 6/7/7
f 8/9/8 2/13/8 3/1/8
f 16/14/9 10/10/9 11/12/9
f 13/15/10 7/16/10 8/9/10
f 14/17/11 8/9/11 9/18/11
f 15/19/12 9/18/12 10/10/12
f 19/20/13 13/15/13 14/17/13
f 20/21/14 14/17/14 15/19/14
f 21/22/15 15/19/15 16/14/15
f 18/23/16 12/24/16 13/15/16
f 25/25/17 19/20/17 20/21/17
f 26/26/18 20/21/18 21/22/18
f 23/27/19 17/28/19 18/23/19
f 24/29/20 18/23/20 19/20/20
f 28/30/21 22/31/21 23/27/21
f 29/32/22 23/27/22 24/29/22
f 30/33/23 24/29/23 25/25/23
f 31/34/24 25/25/24 26/26/24
f 35/35/25 29/32/25 30/33/25
f 36/36/26 30/33/26 31/34/26
f 33/37/27 27/38/27 28/30/27
f 29/32/28 33/37/28 28/30/28
f 41/39/29 35/35/29 36/36/29
f 33/37/30 37/40/30 32/41/30
f 34/42/31 38/43/31 33/37/31
f 40/44/32 34/42/32 35/35/32
f 39/45/33 43/46/33 38/43/33
f 45/47/34 39/45/34 40/44/34
f 46/48/35 40/44/35 41/39/35
f 38/43/36 42/49/36 37/40/36
f 50/50/37 44/51/37 45/52/37
f 51/53/38 45/52/38 46/54/38
f 43/55/39 47/56/39 42/57/39
f 44/51/40 48/58/40 43/55/40
f 48/58/41 52/59/41 47/56/41
f 54/60/42 48/58/42 49/61/42
f 55/62/43 49/61/43 50/50/43
f 56/63/44 50/50/44 51/53/44
f 59/6/45 54/60/45 55/62/45
f 60/8/46 55/62/46 56/63/46
f 58/3/47 52/59/47 53/64/47
f 54/60/48 58/3/48 53/64/48
f 57/2/49 61/16/49 52/59/49
f 61/16/49 47/56/49 52/59/49
f 63/24/49 42/57/49 47/56/49
f 7/16/49 61/16/49 2/13/49
f 62/24/49 63/24/49 61/16/49
f 64/28/49 37/40/49 63/24/49
f 12/24/49 62/24/49 7/16/49
f 17/28/49 64/28/49 62/24/49
f 64/28/49 27/38/49 32/41/49
f 122/3/50 65/13/50 66/1/50
f 122/3/51 67/4/51 70/5/51
f 70/5/52 68/11/52 123/6/52
f 123/6/53 69/7/53 124/8/53
f 66/1/54 73/18/54 67/4/54
f 67/4/55 74/10/55 68/11/55
f 68/11/56 75/12/56 69/7/56
f 65/13/57 72/9/57 66/1/57
f 74/10/58 80/14/58 75/12/58
f 71/16/59 77/15/59 72/9/59
f 73/18/60 77/15/60 78/17/60
f 73/18/61 79/19/61 74/10/61
f 78/17/62 82/23/62 83/20/62
f 78/17/63 84/21/63 79/19/63
f 79/19/64 85/22/64 80/14/64
f 77/15/65 81/28/65 82/23/65
f 83/20/66 89/25/66 84/21/66
f 84/21/67 90/26/67 85/22/67
f 81/28/68 87/27/68 82/23/68
f 82/23/69 88/29/69 83/20/69
f 87/27/70 91/38/70 92/30/70
f 87/27/71 93/32/71 88/29/71
f 88/29/72 94/33/72 89/25/72
f 90/26/73 94/33/73 95/34/73
f 93/32/74 99/35/74 94/33/74
f 94/33/75 100/36/75 95/34/75
f 91/38/76 97/37/76 92/30/76
f 92/30/77 98/42/77 93/32/77
f 99/35/78 105/39/78 100/36/78
f 97/37/79 101/40/79 102/43/79
f 98/42/80 102/43/80 103/45/80
f 98/42/81 104/44/81 99/35/81
f 102/43/82 108/65/82 103/45/82
f 103/45/83 109/47/83 104/44/83
f 105/39/84 109/47/84 110/48/84
f 101/40/85 107/46/85 102/43/85
f 108/51/86 114/50/86 109/52/86
f 110/54/87 114/50/87 115/53/87
f 106/57/88 112/58/88 107/55/88
f 108/51/89 112/58/89 113/61/89
f 111/56/90 117/64/90 112/58/90
f 112/58/91 118/60/91 113/61/91
f 113/61/92 119/62/92 114/50/92
f 115/53/93 119/62/93 120/63/93
f 118/60/94 123/6/94 119/62/94
f 119/62/95 124/8/95 120/63/95
f 116/59/96 122/3/96 117/64/96
f 117/64/97 70/5/97 118/60/97
f 121/2/98 125/16/99 65/13/100
f 111/56/101 125/16/101 116/59/101
f 106/57/102 126/24/103 111/56/104
f 65/13/105 127/24/105 71/16/105
f 126/24/106 127/24/106 125/16/106
f 101/40/107 128/28/107 126/24/107
f 127/24/108 76/24/109 71/16/110
f 128/28/111 81/28/111 127/24/112
f 128/28/113 91/38/114 86/31/115
f 21/22/49 90/26/49 26/26/49
f 41/39/49 100/36/49 105/39/49
f 16/14/49 75/12/49 80/14/49
f 46/54/49 115/53/49 51/53/49
f 31/34/49 100/36/49 36/36/49
f 11/12/49 69/7/49 75/12/49
f 31/34/49 90/26/49 95/34/49
f 60/8/49 69/7/49 6/7/49
f 16/14/49 85/22/49 21/22/49
f 51/53/49 120/63/49 56/63/49
f 56/63/49 124/8/49 60/8/49
f 46/48/49 105/39/49 110/48/49
f 152/66/106 132/67/106 150/68/106
f 153/69/116 134/70/116 151/71/117
f 148/72/118 137/73/118 145/74/119
f 147/75/120 136/76/120 144/77/106
f 137/73/121 147/75/121 145/74/122
f 134/70/123 152/66/123 151/71/124
f 135/78/125 148/72/125 146/79/106
f 130/80/106 153/69/106 149/81/106
f 129/82/106 148/72/106 141/83/106
f 133/84/126 147/75/126 139/85/106
f 147/75/106 131/86/106 139/85/106
f 148/72/127 133/84/127 141/83/106
f 135/78/128 153/69/128 143/87/129
f 137/73/130 152/66/130 140/88/131
f 153/69/132 137/73/132 143/87/133
f 152/66/134 136/76/134 140/88/135
f 3/1/1 2/13/1 57/2/1
f 4/4/2 3/1/2 58/3/2
f 59/6/3 5/11/3 4/4/3
f 6/7/4 5/11/4 59/6/4
f 4/4/5 9/18/5 8/9/5
f 10/10/6 9/18/6 4/4/6
f 11/12/7 10/10/7 5/11/7
f 8/9/8 7/16/8 2/13/8
f 16/14/9 15/19/9 10/10/9
f 13/15/10 12/24/10 7/16/10
f 14/17/11 13/15/11 8/9/11
f 15/19/12 14/17/12 9/18/12
f 19/20/13 18/23/13 13/15/13
f 20/21/14 19/20/14 14/17/14
f 21/22/15 20/21/15 15/19/15
f 18/23/16 17/28/16 12/24/16
f 25/25/17 24/29/17 19/20/17
f 26/26/18 25/25/18 20/21/18
f 23/27/19 22/31/19 17/28/19
f 24/29/20 23/27/20 18/23/20
f 28/30/21 27/38/21 22/31/21
f 29/32/22 28/30/22 23/27/22
f 30/33/23 29/32/23 24/29/23
f 31/34/24 30/33/24 25/25/24
f 35/35/25 34/42/25 29/32/25
f 36/36/26 35/35/26 30/33/26
f 33/37/27 32/41/27 27/38/27
f 29/32/28 34/42/28 33/37/28
f 41/39/29 40/44/29 35/35/29
f 33/37/30 38/43/30 37/40/30
f 34/42/31 39/45/31 38/43/31
f 40/44/32 39/45/32 34/42/32
f 39/45/33 44/65/33 43/46/33
f 45/47/34 44/65/34 39/45/34
f 46/48/35 45/47/35 40/44/35
f 38/43/36 43/46/36 42/49/36
f 50/50/37 49/61/37 44/51/37
f 51/53/38 50/50/38 45/52/38
f 43/55/39 48/58/39 47/56/39
f 44/51/40 49/61/40 48/58/40
f 48/58/41 53/64/41 52/59/41
f 54/60/42 53/64/42 48/58/42
f 55/62/43 54/60/43 49/61/43
f 56/63/44 55/62/44 50/50/44
f 59/6/45 1/5/45 54/60/45
f 60/8/46 59/6/46 55/62/46
f 58/3/47 57/2/47 52/59/47
f 54/60/48 1/5/48 58/3/48
f 57/2/49 2/13/49 61/16/49
f 61/16/49 63/24/49 47/56/49
f 63/24/49 37/40/49 42/57/49
f 7/16/49 62/24/49 61/16/49
f 62/24/49 64/28/49 63/24/49
f 64/28/49 32/41/49 37/40/49
f 12/24/49 17/28/49 62/24/49
f 17/28/49 22/31/49 64/28/49
f 64/28/49 22/31/49 27/38/49
f 122/3/50 121/2/50 65/13/50
f 122/3/51 66/1/51 67/4/51
f 70/5/52 67/4/52 68/11/52
f 123/6/53 68/11/53 69/7/53
f 66/1/54 72/9/54 73/18/54
f 67/4/55 73/18/55 74/10/55
f 68/11/56 74/10/56 75/12/56
f 65/13/57 71/16/57 72/9/57
f 74/10/58 79/19/58 80/14/58
f 71/16/59 76/24/59 77/15/59
f 73/18/60 72/9/60 77/15/60
f 73/18/61 78/17/61 79/19/61
f 78/17/62 77/15/62 82/23/62
f 78/17/63 83/20/63 84/21/63
f 79/19/64 84/21/64 85/22/64
f 77/15/65 76/24/65 81/28/65
f 83/20/66 88/29/66 89/25/66
f 84/21/67 89/25/67 90/26/67
f 81/28/68 86/31/68 87/27/68
f 82/23/69 87/27/69 88/29/69
f 87/27/70 86/31/70 91/38/70
f 87/27/71 92/30/71 93/32/71
f 88/29/72 93/32/72 94/33/72
f 90/26/73 89/25/73 94/33/73
f 93/32/74 98/42/74 99/35/74
f 94/33/75 99/35/75 100/36/75
f 91/38/76 96/41/76 97/37/76
f 92/30/77 97/37/77 98/42/77
f 99/35/78 104/44/78 105/39/78
f 97/37/79 96/41/79 101/40/79
f 98/42/80 97/37/80 102/43/80
f 98/42/81 103/45/81 104/44/81
f 102/43/82 107/46/82 108/65/82
f 103/45/83 108/65/83 109/47/83
f 105/39/84 104/44/84 109/47/84
f 101/40/85 106/49/85 107/46/85
f 108/51/86 113/61/86 114/50/86
f 110/54/87 109/52/87 114/50/87
f 106/57/88 111/56/88 112/58/88
f 108/51/89 107/55/89 112/58/89
f 111/56/90 116/59/90 117/64/90
f 112/58/91 117/64/91 118/60/91
f 113/61/92 118/60/92 119/62/92
f 115/53/93 114/50/93 119/62/93
f 118/60/94 70/5/94 123/6/94
f 119/62/95 123/6/95 124/8/95
f 116/59/96 121/2/96 122/3/96
f 117/64/97 122/3/97 70/5/97
f 121/2/98 116/59/136 125/16/99
f 111/56/101 126/24/101 125/16/101
f 106/57/102 101/40/137 126/24/103
f 65/13/105 125/16/105 127/24/105
f 126/24/106 128/28/106 127/24/106
f 101/40/107 96/41/107 128/28/107
f 127/24/108 81/28/138 76/24/109
f 128/28/111 86/31/111 81/28/111
f 128/28/113 96/41/139 91/38/114
f 21/22/49 85/22/49 90/26/49
f 41/39/49 36/36/49 100/36/49
f 16/14/49 11/12/49 75/12/49
f 46/54/49 110/54/49 115/53/49
f 31/34/49 95/34/49 100/36/49
f 11/12/49 6/7/49 69/7/49
f 31/34/49 26/26/49 90/26/49
f 60/8/49 124/8/49 69/7/49
f 16/14/49 80/14/49 85/22/49
f 51/53/49 115/53/49 120/63/49
f 56/63/49 120/63/49 124/8/49
f 46/48/49 41/39/49 105/39/49
f 152/66/106 138/89/106 132/67/106
f 153/69/116 142/90/106 134/70/116
f 148/72/118 143/87/140 137/73/118
f 147/75/120 140/88/141 136/76/120
f 137/73/121 140/88/142 147/75/121
f 134/70/123 138/89/106 152/66/123
f 135/78/125 143/87/143 148/72/125
f 130/80/106 142/90/106 153/69/106
f 129/82/106 146/79/106 148/72/106
f 133/84/126 145/74/144 147/75/126
f 147/75/106 144/77/106 131/86/106
f 148/72/127 145/74/145 133/84/127
f 135/78/128 149/81/106 153/69/128
f 137/73/130 151/71/146 152/66/130
f 153/69/132 151/71/147 137/73/132
f 152/66/134 150/68/106 136/76/134
