# Blender 4.0.2
# www.blender.org
mtllib spring_roll.mtl
g Cylinder_Mesh
v -0.054441 -0.000597 -0.021485
v 0.054677 -0.000509 -0.021485
v -0.046173 -0.015753 -0.011344
v 0.046173 -0.015753 -0.011344
v -0.046173 -0.015753 0.011344
v 0.046173 -0.015753 0.011344
v -0.054441 -0.000597 0.021485
v 0.054677 -0.000509 0.021485
v -0.046173 0.015753 0.011344
v 0.046173 0.015753 0.011344
v -0.046173 0.015753 -0.011344
v 0.046173 0.015753 -0.011344
v -0.000000 -0.000036 -0.020225
v 0.000000 -0.013083 -0.009421
v -0.000026 -0.013855 0.009972
v -0.000000 -0.000000 0.017843
v -0.000004 0.014202 0.010364
v 0.000038 0.014127 -0.010216
v 0.024849 -0.000006 -0.019634
v 0.020519 -0.014001 -0.010082
v 0.020519 -0.014001 0.010082
v 0.024891 0.000000 0.019096
v 0.020517 0.014025 0.010099
v 0.020519 0.014001 -0.010082
v -0.020519 -0.014001 -0.010082
v -0.020429 -0.014699 0.010527
v -0.024891 -0.000000 0.019096
v -0.020507 0.014100 0.010160
v -0.020519 0.014001 -0.010082
v -0.024891 -0.000000 -0.019096
v 0.052801 0.010432 -0.015424
v -0.052273 0.012209 -0.014394
v -0.046396 0.016583 -0.000001
v 0.046173 0.015753 0.000000
v 0.000132 0.017388 0.000009
v 0.020408 0.018345 0.000033
v -0.020258 0.016340 0.000005
v -0.046173 -0.015753 -0.000000
v 0.046173 -0.015753 0.000000
v 0.054677 -0.000509 0.000000
v -0.054441 -0.000597 -0.000000
v 0.000000 -0.014689 0.000000
v 0.020363 -0.015546 0.000000
v -0.020519 -0.014001 -0.000000
vn -0.0671 -0.5344 -0.8425
vn -0.0716 -0.5389 -0.8393
vn -0.0783 -0.5453 -0.8345
vn -0.0423 -0.9969 0.0656
vn -0.0358 -0.9960 0.0821
vn -0.0079 -0.9884 0.1516
vn -0.0773 -0.5223 0.8492
vn -0.0772 -0.5222 0.8493
vn -0.0774 -0.5225 0.8491
vn -0.0656 0.5105 0.8574
vn -0.0701 0.5151 0.8543
vn -0.0764 0.5214 0.8499
vn 0.8733 -0.4872 -0.0000
vn 0.0037 0.9836 -0.1804
vn 0.0175 0.9766 -0.2143
vn 0.0916 0.9154 -0.3921
vn -0.0778 0.5236 -0.8484
vn -0.0557 0.5072 -0.8600
vn -0.0555 0.5226 -0.8508
vn -0.9860 0.1670 -0.0000
vn 0.9856 0.1690 -0.0000
vn -0.8779 -0.4789 -0.0000
vn -0.0184 0.5678 -0.8230
vn -0.0285 0.5578 -0.8295
vn -0.0371 0.5491 -0.8349
vn -0.0291 0.9634 -0.2664
vn -0.0275 0.9643 -0.2633
vn -0.0075 0.9742 -0.2257
vn 0.0267 0.5080 0.8609
vn 0.0080 0.4874 0.8731
vn 0.0428 0.5253 0.8498
vn 0.0439 -0.4934 0.8687
vn 0.0438 -0.4933 0.8688
vn 0.0437 -0.4932 0.8688
vn 0.0031 -1.0000 0.0082
vn 0.0040 -1.0000 0.0065
vn 0.0395 -0.9970 -0.0664
vn -0.0103 -0.5777 -0.8162
vn 0.0211 -0.6076 -0.7939
vn -0.0387 -0.5494 -0.8347
vn 0.0123 0.5738 -0.8189
vn 0.0159 0.5702 -0.8213
vn 0.0089 0.5771 -0.8166
vn -0.0194 0.9354 -0.3531
vn -0.0157 0.9379 -0.3466
vn 0.0079 0.9527 -0.3039
vn -0.0253 0.5113 0.8590
vn -0.0052 0.4892 0.8722
vn 0.0154 0.4659 0.8847
vn -0.0205 -0.5076 0.8614
vn -0.0323 -0.5203 0.8534
vn -0.0082 -0.4940 0.8694
vn -0.0247 -0.9927 0.1180
vn -0.0245 -0.9927 0.1177
vn -0.0076 -0.9965 0.0834
vn -0.0021 -0.5896 -0.8077
vn -0.0276 -0.6136 -0.7891
vn -0.0533 -0.6369 -0.7691
vn 0.0786 -0.5236 -0.8483
vn 0.0781 -0.5231 -0.8487
vn 0.0791 -0.5242 -0.8479
vn 0.0528 -0.9982 -0.0292
vn 0.0555 -0.9978 -0.0358
vn 0.0409 -0.9992 -0.0000
vn 0.0599 -0.5047 0.8612
vn 0.0686 -0.5136 0.8553
vn 0.0791 -0.5242 0.8479
vn 0.0637 0.5086 0.8586
vn 0.0675 0.5125 0.8560
vn 0.0595 0.5043 0.8615
vn 0.0444 0.9892 -0.1395
vn 0.0379 0.9871 -0.1555
vn 0.0715 0.9949 -0.0714
vn 0.0773 0.5135 -0.8546
vn 0.0730 0.5031 -0.8611
vn 0.0886 0.5011 -0.8609
vn 0.8514 0.5131 0.1088
vn 0.6260 0.7798 -0.0000
vn -0.8496 0.5109 0.1310
vn -0.6680 0.7427 0.0471
vn -0.5207 0.8525 -0.0465
vn -0.6948 0.7161 0.0661
vn 0.0360 0.9881 0.1498
vn 0.0419 0.9900 0.1350
vn 0.0674 0.9952 0.0715
vn -0.0138 0.9399 0.3411
vn -0.0178 0.9372 0.3483
vn 0.0120 0.9557 0.2942
vn -0.0273 0.9671 0.2530
vn -0.0292 0.9661 0.2565
vn -0.0070 0.9765 0.2152
vn 0.0185 0.9766 0.2141
vn 0.0045 0.9837 0.1797
vn 0.0926 0.9154 0.3919
vn 0.0681 -0.9977 -0.0000
vn -0.0453 -0.9861 -0.1599
vn -0.0454 -0.9861 -0.1597
vn -0.0414 -0.9849 -0.1680
vn 0.0058 -0.9964 -0.0845
vn 0.0073 -0.9967 -0.0813
vn 0.0447 -0.9990 -0.0000
vn -0.0358 -0.9960 -0.0821
vn -0.0423 -0.9969 -0.0656
vn -0.0079 -0.9884 -0.1516
vn -0.0615 -0.5288 -0.8465
vn -0.0681 -0.9977 -0.0000
vn -0.0771 -0.5221 0.8494
vn -0.0604 0.5053 0.8609
vn -0.0681 0.9977 -0.0000
vn -0.0783 0.5450 -0.8348
vn -0.1731 0.4544 -0.8738
vn -0.0089 0.5771 -0.8166
vn -0.0489 0.9517 -0.3030
vn -0.0111 0.4659 0.8847
vn 0.0441 -0.4936 0.8686
vn -0.0334 -0.9960 0.0833
vn 0.0533 -0.6369 -0.7691
vn 0.0189 0.5673 -0.8233
vn -0.0428 0.9178 -0.3946
vn -0.0426 0.5300 0.8469
vn -0.0426 -0.5314 0.8461
vn -0.0415 -0.9875 0.1520
vn 0.0203 -0.5679 -0.8229
vn 0.0774 -0.5225 -0.8491
vn 0.0680 -0.9955 -0.0666
vn 0.0477 -0.4922 0.8692
vn 0.0727 0.5177 0.8525
vn 0.0091 0.9741 -0.2261
vn 0.0791 0.5685 -0.8189
vn 0.0579 0.5275 -0.8476
vn -0.4733 0.8778 -0.0735
vn 0.0090 0.9764 0.2156
vn -0.0438 0.9179 0.3944
vn -0.0491 0.9548 0.2931
vn -0.0672 0.9977 -0.0000
vn -0.0491 -0.9872 -0.1520
vn -0.0331 -0.9852 -0.1680
vt 0.923985 0.920190
vt 0.906029 0.933657
vt 0.906029 0.920190
vt 0.897051 0.933657
vt 0.888073 0.920190
vt 0.897051 0.920190
vt 0.888073 0.933657
vt 0.870117 0.920190
vt 0.852161 0.933657
vt 0.852161 0.920190
vt 0.847342 0.905598
vt 0.868712 0.893260
vt 0.868712 0.905598
vt 0.843183 0.933657
vt 0.834205 0.920190
vt 0.843183 0.920190
vt 0.834205 0.933657
vt 0.816250 0.933657
vt 0.816250 0.920190
vt 0.898752 0.905598
vt 0.883808 0.921647
vt 0.898752 0.930275
vt 0.834570 0.922902
vt 0.847342 0.880921
vt 0.920123 0.917937
vt 0.920123 0.905598
vt 0.834205 0.893256
vt 0.816250 0.906723
vt 0.816250 0.893256
vt 0.843183 0.893256
vt 0.834205 0.906723
vt 0.870117 0.906723
vt 0.852161 0.893256
vt 0.870117 0.893256
vt 0.888073 0.893256
vt 0.897051 0.893256
vt 0.888073 0.906723
vt 0.923985 0.906723
vt 0.906029 0.893256
vt 0.923985 0.893256
vt 0.843183 0.906723
vt 0.852161 0.906723
vt 0.897051 0.906723
vt 0.906029 0.906723
vt 0.906029 0.879789
vt 0.923985 0.879789
vt 0.897051 0.879789
vt 0.888073 0.879789
vt 0.870117 0.879789
vt 0.852161 0.879789
vt 0.843183 0.879789
vt 0.834205 0.879789
vt 0.816250 0.879789
vt 0.828806 0.879789
vt 0.825971 0.893260
vt 0.825971 0.905598
vt 0.898752 0.880921
vt 0.877381 0.893260
vt 0.877381 0.905598
vt 0.920123 0.893260
vt 0.868712 0.917937
vt 0.923985 0.933657
vt 0.870117 0.933657
vt 0.826981 0.933657
vt 0.847342 0.930275
vt 0.825971 0.917937
vt 0.877381 0.917937
s 1
usemtl Material.042
f 19/1/1 4/2/2 20/3/3
f 39/4/4 21/5/5 43/6/6
f 6/7/7 22/8/8 21/5/9
f 22/8/10 10/9/11 23/10/12
f 40/11/13 6/12/13 39/13/13
f 34/14/14 24/15/15 36/16/16
f 12/17/17 2/18/18 19/19/19
f 41/20/20 32/21/20 1/22/20
f 40/11/21 31/23/21 8/24/21
f 41/20/22 3/25/22 38/26/22
f 29/27/23 13/28/24 30/29/25
f 37/30/26 18/31/27 29/27/28
f 16/32/29 28/33/30 27/34/31
f 26/35/32 16/32/33 27/34/34
f 44/36/35 15/37/36 26/35/37
f 13/38/38 25/39/39 30/40/40
f 24/15/41 13/28/42 18/31/43
f 35/41/44 24/15/45 18/31/46
f 16/32/47 23/10/48 17/42/49
f 21/5/50 16/32/51 15/37/52
f 42/43/53 21/5/54 15/37/55
f 13/38/56 20/3/57 14/44/58
f 30/40/59 3/45/60 1/46/61
f 38/47/62 26/35/63 5/48/64
f 5/48/65 27/34/66 7/49/67
f 27/34/68 9/50/69 7/49/70
f 33/51/71 29/27/72 11/52/73
f 29/27/74 1/53/75 32/54/76
f 31/23/77 10/55/77 8/24/77
f 31/23/78 34/56/78 10/55/78
f 32/21/79 7/57/79 9/58/79
f 33/59/80 32/21/81 9/58/82
f 28/33/83 33/51/84 9/50/85
f 23/10/86 35/41/87 17/42/88
f 17/42/89 37/30/90 28/33/91
f 23/10/92 34/14/93 36/16/94
f 25/39/95 38/47/95 3/45/95
f 14/44/96 43/6/97 42/43/98
f 14/44/99 44/36/100 25/39/101
f 41/20/22 5/60/22 7/57/22
f 4/61/13 40/11/13 39/13/13
f 20/3/102 39/4/103 43/6/104
f 19/1/1 2/62/105 4/2/2
f 39/4/4 6/7/106 21/5/5
f 6/7/7 8/63/107 22/8/8
f 22/8/10 8/63/108 10/9/11
f 40/11/13 8/24/13 6/12/13
f 34/14/14 12/17/109 24/15/15
f 19/19/19 24/15/110 12/17/17
f 12/17/17 31/64/111 2/18/18
f 41/20/20 7/57/20 32/21/20
f 40/11/21 2/65/21 31/23/21
f 41/20/22 1/22/22 3/25/22
f 29/27/23 18/31/112 13/28/24
f 37/30/26 35/41/113 18/31/27
f 16/32/29 17/42/114 28/33/30
f 26/35/32 15/37/115 16/32/33
f 44/36/35 42/43/116 15/37/36
f 13/38/38 14/44/117 25/39/39
f 24/15/41 19/19/118 13/28/42
f 35/41/44 36/16/119 24/15/45
f 16/32/47 22/8/120 23/10/48
f 21/5/50 22/8/121 16/32/51
f 42/43/53 43/6/122 21/5/54
f 13/38/56 19/1/123 20/3/57
f 30/40/59 25/39/124 3/45/60
f 38/47/62 44/36/125 26/35/63
f 5/48/65 26/35/126 27/34/66
f 27/34/68 28/33/127 9/50/69
f 33/51/71 37/30/128 29/27/72
f 32/54/76 11/52/129 29/27/74
f 29/27/74 30/29/130 1/53/75
f 31/23/78 12/66/78 34/56/78
f 33/59/80 11/67/131 32/21/81
f 28/33/83 37/30/132 33/51/84
f 23/10/86 36/16/133 35/41/87
f 17/42/89 35/41/134 37/30/90
f 23/10/92 10/9/135 34/14/93
f 25/39/95 44/36/95 38/47/95
f 14/44/96 20/3/136 43/6/97
f 14/44/99 42/43/137 44/36/100
f 41/20/22 38/26/22 5/60/22
f 4/61/13 2/65/13 40/11/13
f 20/3/102 4/2/106 39/4/103
